<svg width="184" height="213" viewBox="0 0 184 213" fill="none" xmlns="http://www.w3.org/2000/svg">
<path d="M9.9303 47.7133L49.1133 24.88C58.1529 19.6123 69.5 26.1331 69.5 36.5956C69.5 41.4805 66.8725 45.9878 62.6218 48.3949L38.145 62.2552C31.8754 65.8055 28 72.4536 28 79.6587V132.964C28 140.103 31.8058 146.701 37.986 150.276L71.4965 169.66C74.8298 171.588 79 169.182 79 165.332V127.5C79 120.32 84.8203 114.5 92 114.5C99.1797 114.5 105 120.32 105 127.5V197.44C105 201.839 102.759 205.934 99.0539 208.306C95.0229 210.885 89.895 211.021 85.7328 208.659L10.1279 165.748C3.8679 162.195 0 155.553 0 148.355V64.9934C0 57.8768 3.78158 51.2963 9.9303 47.7133Z" fill="#4D4D4D"/>
<path d="M105.5 47.595V87C105.5 94.4558 99.4558 100.5 92 100.5C84.5442 100.5 78.5 94.4558 78.5 87V15.7645C78.5 10.676 81.2996 6.00022 85.785 3.59733C89.9645 1.35829 95.0008 1.4212 99.1231 3.76394L173.882 46.2498C180.136 49.8043 184 56.444 184 63.638V147.977C184 155.109 180.201 161.702 174.031 165.279L134.956 187.931C126.096 193.068 115 186.674 115 176.433C115 171.814 117.398 167.527 121.333 165.109L146.97 149.355C152.892 145.717 156.5 139.265 156.5 132.315V79.6347C156.5 72.4425 152.638 65.8041 146.386 62.2489L112.972 43.2485C109.638 41.3531 105.5 43.7605 105.5 47.595Z" fill="#4D4D4D"/>
</svg>
