<svg width="180" height="56" viewBox="0 0 180 56" fill="none" xmlns="http://www.w3.org/2000/svg">
<path d="M12.8105 16.9064C13.4573 17.3446 13.9793 17.8123 14.5829 18.0867C16.7921 19.0947 19.0469 19.9969 21.2501 21.0159C24.0533 22.3132 26.8481 23.635 29.6021 25.0369C33.2165 26.8756 35.8505 29.6264 36.9665 33.7446C36.7757 32.0129 36.5993 30.2775 36.3941 28.5544C35.8805 24.2701 35.3705 19.9858 34.8161 15.7064C34.6625 14.515 34.3661 13.3409 34.1153 12.1643C33.9774 11.5629 33.9652 10.9385 34.0796 10.332C34.194 9.72546 34.4323 9.15069 34.7789 8.64548C35.3009 7.85533 35.9249 7.1944 36.9785 7.41471C38.0585 7.63994 38.8133 8.30702 39.0701 9.41963C39.4385 11.0196 39.8405 12.6098 40.0481 14.2307C40.6157 18.6529 41.0789 23.0922 41.6081 27.523C42.0365 31.1439 42.6785 34.7206 43.8497 38.179C43.9181 38.3796 43.9985 38.5753 44.1125 38.8769C44.3153 38.611 44.4725 38.4141 44.6225 38.2086C47.0117 34.8916 49.3565 31.5402 51.8057 28.2689C53.0549 26.5987 54.5573 25.1612 56.4857 24.291C57.5243 23.8141 58.6961 23.7389 59.7845 24.0793C60.7445 24.3636 61.2833 25.0442 61.4969 26.0055C61.8857 27.7544 61.7777 29.4676 60.6305 30.8842C59.2661 32.5679 57.7721 34.1433 56.3309 35.7618C56.0009 36.131 55.6553 36.4892 55.2701 36.9027C56.1173 37.6018 56.9225 38.2566 57.7217 38.9261C60.0125 40.8338 62.2157 42.8289 63.7289 45.4824C64.5089 46.851 65.0273 48.3132 65.1437 49.9132C65.2877 51.8984 64.2101 52.9409 62.3057 52.6209C60.4589 52.3083 58.9841 51.3236 57.7193 49.955C56.6189 48.7649 55.5125 47.5796 54.4169 46.3858C53.3213 45.1919 52.2389 43.9858 51.0857 42.7144C50.9297 42.9261 50.7797 43.123 50.6369 43.3298C49.5485 44.8732 48.4769 46.4276 47.3669 47.9575C47.0236 48.4137 46.6439 48.8398 46.2317 49.2313C45.0545 50.3895 43.5989 50.5716 42.3617 49.4775C41.4994 48.7029 40.7771 47.7784 40.2281 46.7464C38.7749 44.0276 38.2241 40.9987 37.6517 37.9895C37.4849 37.1181 37.3421 36.2406 37.2317 35.6153C37.0865 36.8104 37.0673 38.2836 36.7109 39.6646C35.4497 44.5692 32.4089 48.0449 27.9893 50.1581C21.3833 53.315 14.7185 53.219 8.18213 49.9193C3.88013 47.7544 1.99373 43.9476 2.63933 39.1636C2.88653 37.3175 3.72773 35.8406 5.34413 34.9002C7.79933 33.4676 10.3505 34.787 10.6901 37.6621C10.7223 37.8036 10.7316 37.9495 10.7177 38.0941C10.4897 39.1403 11.1017 39.4763 11.9249 39.7926C15.1709 41.0406 18.5141 41.6043 21.9605 41.2572C24.3605 41.011 26.6141 40.2639 28.3397 38.3784C29.8445 36.7353 29.7989 35.9476 28.0769 34.563C25.7993 32.7255 23.2253 31.4258 20.5829 30.2775C17.9045 29.1144 15.1493 28.1372 12.4745 26.9655C9.79973 25.7938 7.39733 24.1236 5.54213 21.7569C3.00893 18.5224 2.89373 14.9975 5.17373 11.6929C6.37373 9.95625 8.06213 8.9224 9.97973 8.32179C13.9301 7.0824 17.9609 6.26517 22.1153 6.27748C23.7953 6.27748 25.4525 6.47317 27.0353 7.10579C29.2517 7.99194 30.5921 9.56733 30.6713 12.0978C30.7169 13.5415 29.9513 14.5089 28.8149 15.1944C27.7793 15.8233 26.8325 15.4406 25.9349 14.7932C25.7311 14.6427 25.4886 14.5571 25.2377 14.547C21.1361 14.5803 17.1593 15.3667 13.2701 16.6713C13.1127 16.7407 12.9592 16.8191 12.8105 16.9064Z" fill="#090839"/>
<path d="M112.844 39.9991C112.709 39.2607 112.58 38.7081 112.508 38.1431C111.951 33.7924 111.353 29.4465 110.871 25.0859C110.391 20.6994 109.884 16.3191 108.928 12.0078C108.644 10.7253 108.966 9.56837 109.689 8.51606C110.219 7.75298 110.879 7.17575 111.879 7.41944C112.878 7.66314 113.65 8.29206 113.879 9.35298C114.359 11.5881 114.858 13.8268 115.155 16.0914C115.744 20.585 116.084 25.1142 116.754 29.593C117.188 32.4865 118.022 35.3173 118.683 38.1751C118.759 38.4163 118.85 38.6522 118.955 38.8816C119.186 38.5665 119.35 38.345 119.511 38.121C121.871 34.8422 124.191 31.5339 126.605 28.2945C127.839 26.6391 129.333 25.2361 131.209 24.3228C132.14 23.8699 133.113 23.7887 134.1 23.9265C135.531 24.1247 136.292 25.1327 136.481 26.8114C136.714 28.873 135.944 30.5468 134.648 32.0139C133.544 33.2644 132.39 34.4754 131.234 35.6718C130.874 36.0471 130.428 36.3413 129.944 36.7364C130.446 37.1671 130.742 37.4293 131.045 37.6779C133.325 39.5487 135.627 41.3899 137.435 43.7776C138.755 45.5216 139.691 47.4367 139.955 49.6619C140.216 51.8207 139.098 52.9665 137.02 52.5948C135.236 52.2773 133.792 51.3136 132.572 49.9794C130.412 47.6213 128.26 45.2586 126.118 42.8914C126.043 42.8277 125.963 42.7708 125.878 42.7216C125.518 43.2558 125.169 43.7924 124.798 44.3081C123.718 45.7961 122.698 47.3431 121.515 48.7388C119.835 50.7241 117.878 50.6391 116.205 48.6096C114.916 47.049 114.263 45.1561 113.663 43.2447C113.613 43.0847 113.567 42.9222 113.514 42.7634C113.5 42.7216 113.464 42.6859 113.474 42.7007C113.114 43.7801 112.83 44.9345 112.353 45.9979C111.442 48.0274 110.039 49.6348 108.005 50.5518C105.293 51.769 102.029 51.0084 99.7721 48.6871C98.3321 47.2016 97.4297 45.3838 96.7205 43.449C96.6629 43.2914 96.6101 43.1314 96.5477 42.9764C96.5375 42.9509 96.5194 42.9297 96.4961 42.9161C96.1469 43.929 95.8685 45.001 95.4161 45.993C94.4981 48.0188 93.1037 49.6311 91.0721 50.5468C88.3661 51.769 85.0901 51.0194 82.8389 48.6933C80.9021 46.6933 79.7645 44.2096 79.2317 41.5191C78.5177 37.9081 77.9561 34.2576 77.5349 30.5985C76.779 24.1013 76.5782 17.5488 76.9349 11.0158C77.0417 9.09329 77.2337 7.17083 77.5001 5.2656C77.6608 4.22367 78.1833 3.27645 78.9713 2.59852C79.5365 2.08898 80.1713 1.68898 80.9573 1.98314C81.7613 2.2896 81.9629 3.03298 82.0013 3.80221C82.2413 8.61944 82.4713 13.4375 82.6913 18.2564C82.9457 24.0951 83.3573 29.9142 84.8441 35.5893C85.157 36.7998 85.5356 37.9914 85.9781 39.1585C86.9537 41.6939 88.4981 42.2268 90.8345 40.8988C91.3889 40.5825 91.9229 40.2244 92.4893 39.9364C93.5021 39.4207 94.5389 39.0465 95.7293 39.8367C95.5325 38.5333 95.3525 37.3751 95.1833 36.2121C93.8129 26.825 93.3233 17.3998 94.1033 7.92898C94.1993 6.76221 94.3661 5.5696 94.7321 4.47052C94.9829 3.7136 95.5325 2.97637 96.1289 2.44344C97.3985 1.30867 98.7569 1.9019 98.9297 3.62498C99.1205 5.52037 99.2789 7.42067 99.3653 9.32344C99.5789 14.0225 99.6641 18.729 99.9461 23.4231C100.251 28.489 100.966 33.4994 102.61 38.3154C102.827 38.9775 103.108 39.6154 103.45 40.2194C104.198 41.497 105.291 41.8859 106.658 41.3985C107.139 41.2076 107.606 40.9814 108.056 40.7216C108.555 40.4545 109.028 40.1308 109.535 39.8822C110.583 39.3838 111.651 39.0502 112.844 39.9991Z" fill="#090839"/>
<path d="M153.007 33.1371C151.255 33.0238 149.6 33.3044 148.045 32.2546C148.156 33.3057 148.255 34.2312 148.353 35.1555C148.58 37.2626 148.647 39.4054 149.473 41.3894C149.779 42.1448 150.187 42.8521 150.686 43.4903C152.33 45.5395 152.47 47.8681 150.995 50.0589C149.179 52.7592 146.968 52.7506 145.251 49.9924C143.811 47.6823 143.056 45.0928 142.57 42.4244C142.022 39.4054 141.73 36.358 141.885 33.2823C141.962 31.782 142.125 30.2731 142.893 28.9623C143.268 28.3071 143.791 27.7538 144.418 27.3488C145.271 26.8294 146.18 27.1666 146.769 27.9937C146.973 28.2792 147.148 28.5857 147.369 28.9414C148.209 26.8601 150.1 26.3568 151.821 25.6528C153.117 25.1248 153.153 25.1826 153.141 23.7389C153.098 20.2128 153.167 16.6903 153.751 13.2072C153.923 12.1721 154.265 11.1555 154.625 10.1672C154.824 9.67741 155.122 9.23649 155.499 8.87367C156.405 7.96537 157.553 8.10444 158.276 9.17891C159.021 10.2866 159.316 11.5826 159.356 12.8774C159.463 16.2731 159.454 19.6712 159.491 23.0681C159.491 23.3537 159.491 23.638 159.491 24.0811C160.553 23.766 161.531 23.4534 162.511 23.1924C164.414 22.687 166.322 22.2 168.235 21.7315C168.568 21.6503 168.938 21.6958 169.288 21.7241C170.896 21.8472 171.862 22.6226 172.168 24.0109C172.521 25.5924 171.977 26.9894 170.644 27.7955C167.949 29.4251 164.989 30.3666 162.004 31.2417C161.219 31.4718 160.427 31.6737 159.604 31.8989C159.604 34.3494 159.604 36.7617 160.28 39.1014C160.893 41.2454 162.04 41.974 164.108 41.2811C165.769 40.7248 167.324 39.8435 168.926 39.1051C170.335 38.4552 171.709 37.6983 173.165 37.1986C173.973 36.9217 174.927 36.998 175.805 37.0608C176.684 37.1235 177.232 37.7377 177.451 38.6152C177.725 39.7168 177.614 40.8306 177.079 41.7808C173.972 47.3266 169.328 50.6066 163.084 51.0977C159.017 51.4164 156.185 49.3586 154.586 45.4952C153.465 42.7875 153.099 39.9272 153.008 37.0189C152.973 35.7463 153.007 34.4712 153.007 33.1371Z" fill="#090839"/>
<path d="M66.8672 34.7802C67.0904 33.3143 67.2488 31.6811 67.616 30.1032C67.7996 29.3192 68.2712 28.5463 68.7824 27.9137C69.7136 26.758 71.2472 26.9168 72.0584 28.1599C72.9152 29.4756 73.0292 31.0066 73.2212 32.5106C73.5224 34.8749 73.7612 37.2491 74.1152 39.606C74.3217 41.0469 74.9198 42.3991 75.8408 43.5076C77.5928 45.6122 77.6204 48.2657 75.9092 50.4097C74.084 52.6952 72.134 52.6349 70.5392 50.1697C68.8856 47.6109 68.0744 44.71 67.6268 41.7143C67.2968 39.4792 67.13 37.2183 66.8672 34.7802Z" fill="#090839"/>
<path d="M138.959 14.5652C138.971 12.8594 139.05 11.5314 139.776 10.4175C140.228 9.72188 140.811 9.12666 141.492 8.66738C142.745 7.84523 143.797 8.16769 144.45 9.55477C144.874 10.4545 145.146 11.4428 145.387 12.4175C145.825 14.1886 146.254 15.9658 146.568 17.7628C146.841 19.3185 146.346 20.7166 145.347 21.9154C144.267 23.2175 142.807 23.3111 141.588 22.1382C140.217 20.82 139.713 19.0538 139.338 17.2532C139.127 16.2465 139.044 15.2065 138.959 14.5652Z" fill="#090839"/>
<path d="M63.9609 14.0759C64.2333 12.9411 64.4169 11.7743 64.8009 10.6826C65.1849 9.59095 66.0309 8.87833 67.0809 8.43403C67.9689 8.05618 68.6793 8.21618 69.2709 8.99403C69.5421 9.35095 69.8229 9.75218 69.9285 10.178C70.5693 12.7626 71.2269 15.3473 71.7441 17.9577C72.0273 19.3953 71.4933 20.7134 70.5825 21.8433C69.4569 23.2389 67.8549 23.4014 66.7005 22.0328C65.9386 21.1239 65.3562 20.0718 64.9857 18.9349C64.4901 17.3953 64.3005 15.7534 63.9609 14.0759Z" fill="#090839"/>
</svg>
