<svg width="168" height="42" viewBox="0 0 168 42" fill="none" xmlns="http://www.w3.org/2000/svg">
<path d="M9.28 32.896H7.696C5.232 32.896 3.36 32.224 2.08 30.88C0.832 29.536 0.208 27.6 0.208 25.072V17.344C0.208 14.816 0.896 12.88 2.272 11.536C3.648 10.192 5.6 9.52 8.128 9.52H19.216C19.92 9.52 20.272 9.856 20.272 10.528V34.192C20.272 36.688 19.568 38.608 18.16 39.952C16.784 41.296 14.848 41.968 12.352 41.968H3.136C2.752 41.968 2.48 41.888 2.32 41.728C2.192 41.6 2.128 41.36 2.128 41.008V37.696C2.128 37.024 2.464 36.688 3.136 36.688H11.344C12.368 36.688 13.088 36.464 13.504 36.016C13.952 35.6 14.176 34.896 14.176 33.904V30.256H13.984C13.632 31.12 13.008 31.776 12.112 32.224C11.216 32.672 10.272 32.896 9.28 32.896ZM14.176 23.968V15.328C14.176 14.976 13.984 14.8 13.6 14.8H9.088C8.064 14.8 7.344 15.024 6.928 15.472C6.512 15.888 6.304 16.608 6.304 17.632V24.784C6.304 25.808 6.512 26.528 6.928 26.944C7.344 27.36 8.064 27.568 9.088 27.568H10.864C13.072 27.568 14.176 26.368 14.176 23.968ZM34.5066 34H32.5386C30.0746 34 28.2026 33.328 26.9226 31.984C25.6746 30.64 25.0506 28.704 25.0506 26.176V17.344C25.0506 14.816 25.6746 12.88 26.9226 11.536C28.2026 10.192 30.0746 9.52 32.5386 9.52H34.5066C35.4986 9.52 36.4426 9.744 37.3386 10.192C38.2346 10.608 38.8586 11.248 39.2106 12.112H39.4026V1.264C39.4026 0.591999 39.7386 0.256 40.4106 0.256H44.4906C45.1626 0.256 45.4986 0.591999 45.4986 1.264V32.992C45.4986 33.664 45.1626 34 44.4906 34H40.4106C39.7386 34 39.4026 33.664 39.4026 32.992V31.408H39.2106C38.8586 32.272 38.2346 32.928 37.3386 33.376C36.4426 33.792 35.4986 34 34.5066 34ZM39.4026 25.072V18.448C39.4026 16.016 38.2986 14.8 36.0906 14.8H33.9306C32.9066 14.8 32.1866 15.024 31.7706 15.472C31.3546 15.888 31.1466 16.608 31.1466 17.632V25.888C31.1466 26.912 31.3546 27.648 31.7706 28.096C32.1866 28.512 32.9066 28.72 33.9306 28.72H36.0906C38.2986 28.72 39.4026 27.504 39.4026 25.072ZM55.8843 34H51.8043C51.1323 34 50.7963 33.664 50.7963 32.992V1.264C50.7963 0.591999 51.1323 0.256 51.8043 0.256H55.8843C56.5563 0.256 56.8923 0.591999 56.8923 1.264V12.112H57.0843C57.7883 10.384 59.3563 9.52 61.7883 9.52H63.3243C68.3483 9.52 70.8603 12.128 70.8603 17.344V32.992C70.8603 33.664 70.5083 34 69.8043 34H65.7723C65.1003 34 64.7643 33.664 64.7643 32.992V17.632C64.7643 16.608 64.5403 15.888 64.0923 15.472C63.6763 15.024 62.9563 14.8 61.9323 14.8H60.2043C57.9963 14.8 56.8923 16.016 56.8923 18.448V32.992C56.8923 33.664 56.5563 34 55.8843 34ZM84.7533 34H83.1693C80.7053 34 78.8333 33.328 77.5533 31.984C76.3053 30.64 75.6813 28.704 75.6813 26.176V10.528C75.6813 9.856 76.0173 9.52 76.6893 9.52H80.7693C81.4413 9.52 81.7773 9.856 81.7773 10.528V25.888C81.7773 26.912 81.9853 27.648 82.4013 28.096C82.8493 28.512 83.5693 28.72 84.5613 28.72H86.3373C88.5453 28.72 89.6493 27.504 89.6493 25.072V10.528C89.6493 9.856 89.9853 9.52 90.6573 9.52H94.6893C95.3933 9.52 95.7453 9.856 95.7453 10.528V32.992C95.7453 33.664 95.3933 34 94.6893 34H90.6573C89.9853 34 89.6493 33.664 89.6493 32.992V31.408H89.4573C89.1053 32.272 88.4813 32.928 87.5853 33.376C86.6893 33.792 85.7453 34 84.7533 34ZM107.67 28.72H112.566C113.59 28.72 114.31 28.512 114.726 28.096C115.174 27.648 115.398 26.912 115.398 25.888V17.536C115.398 16.512 115.174 15.792 114.726 15.376C114.31 14.928 113.59 14.704 112.566 14.704H110.454C108.246 14.704 107.142 15.92 107.142 18.352V28.192C107.142 28.544 107.318 28.72 107.67 28.72ZM101.046 32.992V1.264C101.046 0.591999 101.382 0.256 102.054 0.256H106.134C106.806 0.256 107.142 0.591999 107.142 1.264V12.064H107.334C107.686 11.2 108.31 10.544 109.206 10.096C110.102 9.648 111.046 9.424 112.038 9.424H113.574C116.102 9.424 118.054 10.096 119.43 11.44C120.806 12.784 121.494 14.72 121.494 17.248V26.176C121.494 28.704 120.806 30.64 119.43 31.984C118.054 33.328 116.102 34 113.574 34H102.054C101.382 34 101.046 33.664 101.046 32.992ZM131.64 27.088V32.992C131.64 33.664 131.336 34 130.728 34H126.456C125.816 34 125.496 33.664 125.496 32.992V27.136C125.496 26.496 125.816 26.176 126.456 26.176H130.728C131.336 26.176 131.64 26.48 131.64 27.088ZM136.349 5.392V1.216C136.349 0.575999 136.669 0.256 137.309 0.256H141.485C142.125 0.256 142.445 0.559999 142.445 1.168V5.392C142.445 6.032 142.125 6.352 141.485 6.352H137.309C136.669 6.352 136.349 6.032 136.349 5.392ZM136.349 32.992V10.528C136.349 9.856 136.669 9.52 137.309 9.52H141.437C142.109 9.52 142.445 9.856 142.445 10.528V32.992C142.445 33.408 142.365 33.68 142.205 33.808C142.077 33.936 141.837 34 141.485 34H137.357C136.685 34 136.349 33.664 136.349 32.992ZM159.68 34H155.408C152.88 34 150.928 33.328 149.552 31.984C148.176 30.64 147.488 28.704 147.488 26.176V17.344C147.488 14.816 148.176 12.88 149.552 11.536C150.928 10.192 152.88 9.52 155.408 9.52H159.68C162.176 9.52 164.112 10.208 165.488 11.584C166.896 12.928 167.6 14.848 167.6 17.344V26.176C167.6 28.672 166.896 30.608 165.488 31.984C164.112 33.328 162.176 34 159.68 34ZM156.32 28.768H158.768C159.792 28.768 160.512 28.56 160.928 28.144C161.376 27.728 161.6 27.008 161.6 25.984V17.536C161.6 16.512 161.376 15.792 160.928 15.376C160.512 14.96 159.792 14.752 158.768 14.752H156.32C155.296 14.752 154.576 14.96 154.16 15.376C153.744 15.792 153.536 16.512 153.536 17.536V25.984C153.536 27.008 153.744 27.728 154.16 28.144C154.576 28.56 155.296 28.768 156.32 28.768Z" fill="#4C4C4C"/>
</svg>
