<svg width="230" height="211" viewBox="0 0 230 211" fill="none" xmlns="http://www.w3.org/2000/svg">
<path opacity="0.45" d="M229.52 176.408C229.52 180.449 178.138 210.072 114.76 210.072C51.382 210.072 0 180.455 0 176.408C0 172.366 51.382 169.087 114.76 169.087C178.138 169.087 229.52 172.366 229.52 176.408Z" fill="#D4E6FF"/>
<path opacity="0.72" d="M182.252 175.757C182.252 178.138 152.033 195.554 114.754 195.554C77.475 195.554 47.2562 178.132 47.2562 175.757C47.2562 173.375 77.475 171.451 114.754 171.451C152.033 171.451 182.252 173.375 182.252 175.757Z" fill="#BBD4F2"/>
<path d="M56.9221 144.304H41.8098C39.3742 144.304 37.3905 142.321 37.3905 139.887V129.58C37.3905 127.146 39.3742 125.163 41.8098 125.163H56.9221C59.3577 125.163 61.3414 127.146 61.3414 129.58V139.887C61.3414 142.327 59.3577 144.304 56.9221 144.304ZM41.8098 127.709C40.7768 127.709 39.9376 128.548 39.9376 129.58V139.887C39.9376 140.919 40.7768 141.758 41.8098 141.758H56.9221C57.9551 141.758 58.7943 140.919 58.7943 139.887V129.58C58.7943 128.548 57.9551 127.709 56.9221 127.709H41.8098Z" fill="url(#paint0_linear)"/>
<path d="M77.516 180.091H21.2159C17.718 180.091 14.8834 177.258 14.8834 173.762V141.066C14.8834 137.57 17.718 134.737 21.2159 134.737H77.5219C81.0198 134.737 83.8544 137.57 83.8544 141.066V173.762C83.8544 177.258 81.0139 180.091 77.516 180.091Z" fill="url(#paint1_linear)"/>
<path d="M34.1861 134.737H28.593V180.091H34.1861V134.737Z" fill="url(#paint2_linear)"/>
<path d="M32.0734 161.362H30.7059C28.9042 161.362 27.437 159.901 27.437 158.094V156.728C27.437 154.927 28.8983 153.46 30.7059 153.46H32.0734C33.8751 153.46 35.3423 154.921 35.3423 156.728V158.094C35.3365 159.901 33.8751 161.362 32.0734 161.362Z" stroke="white" stroke-width="1.4475" stroke-miterlimit="10"/>
<path d="M70.1389 134.737H64.5458V180.091H70.1389V134.737Z" fill="url(#paint3_linear)"/>
<path d="M68.0261 161.362H66.6587C64.8569 161.362 63.3897 159.901 63.3897 158.094V156.728C63.3897 154.927 64.8511 153.46 66.6587 153.46H68.0261C69.8279 153.46 71.2951 154.921 71.2951 156.728V158.094C71.2951 159.901 69.8337 161.362 68.0261 161.362Z" stroke="white" stroke-width="1.4475" stroke-miterlimit="10"/>
<path d="M173.044 106.14H170.732V120.717H173.044V106.14Z" fill="url(#paint4_linear)"/>
<path d="M188.156 106.14H185.844V120.717H188.156V106.14Z" fill="url(#paint5_linear)"/>
<path d="M189.852 107.261H169.112C168.49 107.261 167.991 106.756 167.991 106.14C167.991 105.519 168.496 105.02 169.112 105.02H189.852C190.474 105.02 190.973 105.524 190.973 106.14C190.973 106.762 190.474 107.261 189.852 107.261Z" fill="url(#paint6_linear)"/>
<path d="M165.526 183.652C164.81 183.652 164.223 183.071 164.223 182.35V178.015C164.223 177.299 164.804 176.713 165.526 176.713C166.242 176.713 166.829 177.293 166.829 178.015V182.35C166.829 183.071 166.248 183.652 165.526 183.652Z" fill="url(#paint7_linear)"/>
<path d="M193.432 183.652C192.716 183.652 192.129 183.071 192.129 182.35V178.015C192.129 177.299 192.71 176.713 193.432 176.713C194.148 176.713 194.735 177.293 194.735 178.015V182.35C194.735 183.071 194.154 183.652 193.432 183.652Z" fill="url(#paint8_linear)"/>
<path d="M192.135 177.194H166.829V180.179H192.135V177.194Z" fill="url(#paint9_linear)"/>
<path d="M197.106 118.711H161.852C160.209 118.711 158.876 120.043 158.876 121.685V175.71C158.876 177.352 160.209 178.684 161.852 178.684H197.106C198.75 178.684 200.082 177.352 200.082 175.71V121.685C200.088 120.043 198.756 118.711 197.106 118.711Z" fill="url(#paint10_linear)"/>
<path d="M192.822 126.002H166.136C164.892 126.002 163.883 127.011 163.883 128.255V169.146C163.883 170.389 164.892 171.398 166.136 171.398H192.822C194.066 171.398 195.076 170.389 195.076 169.146V128.255C195.076 127.011 194.066 126.002 192.822 126.002Z" fill="url(#paint11_linear)"/>
<path d="M190.304 135.957H168.654C167.645 135.957 166.829 136.696 166.829 137.611V167.644C166.829 168.559 167.645 169.298 168.654 169.298H190.304C191.314 169.298 192.13 168.559 192.13 167.644V137.611C192.135 136.702 191.314 135.957 190.304 135.957Z" fill="url(#paint12_linear)"/>
<path opacity="0.45" d="M169.793 146.644V144.257C169.793 143.16 170.685 142.268 171.782 142.268H187.182C188.28 142.268 189.172 143.16 189.172 144.257V146.644" stroke="black" stroke-width="0.965" stroke-miterlimit="10" stroke-linecap="round" stroke-linejoin="round"/>
<path d="M92.9394 114.892L87.3463 126.284L90.046 136.696L99.0371 138.209L107.107 115.854L102.288 110.898" fill="url(#paint13_linear)"/>
<path d="M151.546 86.2258V109.355C151.546 109.355 151.035 115.831 150.443 123.791C150.366 124.8 150.29 125.832 150.214 126.876C150.143 127.844 150.073 128.818 150.003 129.803C149.926 130.83 149.85 131.862 149.779 132.889C149.709 133.874 149.645 134.854 149.574 135.816C149.504 136.866 149.433 137.898 149.369 138.901C149.298 139.904 149.24 140.884 149.181 141.828C149.11 142.908 149.052 143.94 148.993 144.914C148.952 145.653 148.911 146.363 148.876 147.02C141.217 150.316 126.099 154.892 118.187 155.167C107.359 155.549 103.269 154.616 102.23 152.381C102.218 152.346 102.2 152.311 102.189 152.281C101.514 150.668 102.347 147.225 103.363 143.688C103.374 143.641 103.386 143.6 103.404 143.553C103.691 142.567 103.99 141.576 104.272 140.62C104.419 140.127 104.56 139.646 104.695 139.177C104.818 138.755 104.918 138.256 105.006 137.711C105.147 136.807 105.241 135.757 105.299 134.631C105.352 133.692 105.376 132.695 105.381 131.698C105.387 130.666 105.381 129.616 105.358 128.607C105.346 128.12 105.334 127.633 105.317 127.164C105.299 126.647 105.282 126.149 105.258 125.674C105.199 124.454 105.141 123.38 105.094 122.582C105.035 121.638 104.988 121.075 104.988 121.075C104.425 118.858 103.292 117.379 101.942 116.417C98.2625 113.772 92.9394 114.91 92.9394 114.91C92.9394 114.91 95.0581 110.188 97.8634 102.386C100.669 94.5788 102.77 89.0883 110.775 90.3436C114.114 90.8657 117.289 91.4875 120.265 91.8687C124.414 92.3908 128.188 92.4319 131.498 91.0475C132.766 90.5196 133.998 89.9741 135.248 89.452C139.626 87.6101 144.28 86.0439 151.546 86.2258Z" fill="url(#paint14_linear)"/>
<path d="M106.315 127.539L105.317 127.152C105.199 123.756 104.988 121.057 104.988 121.057C104.425 118.84 103.292 117.362 101.942 116.4C103.55 113.355 106.403 107.924 108.193 104.457C108.48 108.094 106.168 117.086 106.315 127.539Z" fill="url(#paint15_linear)"/>
<path d="M124.896 98.1745C118.551 96.9955 119.396 93.5581 120.265 91.8453C124.414 92.3673 128.188 92.4084 131.498 91.024C132.766 90.4961 133.998 89.9506 135.248 89.4285C135.589 93.5581 132.437 99.5765 124.896 98.1745Z" fill="white"/>
<path d="M151.546 98.1687V109.355C151.546 109.355 149.51 135.106 148.882 147.02C148.711 150.222 148.647 152.428 148.747 152.856C149.228 154.88 128.505 156.517 117.518 156.904C106.69 157.285 103.251 154.669 102.236 152.381C102.224 152.346 102.206 152.311 102.195 152.281C101.514 150.651 102.371 147.137 103.41 143.553C108.375 143.717 124.056 143.224 126.498 130.595C129.397 115.561 142.537 113.696 145.654 92.9422L151.546 98.1687Z" fill="url(#paint16_linear)"/>
<path opacity="0.15" d="M149.187 141.823C149.116 142.902 149.057 143.934 148.999 144.908L103.368 143.682C103.38 143.635 103.392 143.594 103.409 143.547C103.697 142.562 103.996 141.57 104.278 140.614L149.187 141.823Z" fill="white"/>
<path opacity="0.15" d="M149.58 135.81C149.509 136.86 149.439 137.892 149.374 138.895L105.006 137.699C105.147 136.795 105.24 135.746 105.299 134.619L149.58 135.81Z" fill="white"/>
<path d="M136.422 88.9534C134.292 105.929 143.089 141.383 149.58 139.459C151.065 138.203 150.484 135.499 147.59 130.589C144.697 125.68 138.828 98.1159 139.597 87.8096C137.543 87.1702 136.422 88.9534 136.422 88.9534Z" fill="url(#paint17_linear)"/>
<path opacity="0.15" d="M150.008 129.797C149.932 130.824 149.856 131.856 149.785 132.883L105.381 131.686C105.387 130.654 105.381 129.604 105.358 128.595L150.008 129.797Z" fill="white"/>
<path opacity="0.15" d="M150.443 123.785C150.366 124.794 150.29 125.826 150.214 126.87L105.258 125.656C105.2 124.436 105.141 123.363 105.094 122.565L150.443 123.785Z" fill="white"/>
<path d="M118.874 91.6576C115.353 103.284 107.465 140.18 103.961 141.676C100.457 143.172 100.61 139.816 103.961 132.766C107.312 125.715 114.12 91.5051 115.857 90.5666C117.589 89.628 119.144 90.7484 118.874 91.6576Z" fill="url(#paint18_linear)"/>
<path d="M137.566 119.614C137.566 119.614 144.797 89.9389 149.134 86.9062C153.471 83.8735 167.257 90.1324 151.546 122.7L137.566 119.614Z" fill="url(#paint19_linear)"/>
<path d="M109.807 142.45L90.5273 149.196L78.7661 138.884L78.4316 139.036L72.457 141.676L71.8115 141.089L68.4545 138.016L57.8964 105.882L67.6857 114.218L78.2848 110.898L78.4316 111.044L88.2619 121.01L105.423 116.335L107.136 124.647L107.758 127.668L109.008 136.696L109.807 142.45Z" fill="url(#paint20_linear)"/>
<path d="M109.807 142.45L90.5273 149.196L88.2619 121.01L105.423 116.335L107.136 124.647L107.758 127.668L109.008 136.696L109.807 142.45Z" fill="url(#paint21_linear)"/>
<path d="M78.4314 111.044V139.036L72.4569 141.676L71.8113 141.089L67.6855 114.218L78.2847 110.898L78.4314 111.044Z" fill="url(#paint22_linear)"/>
<path d="M109.008 136.696C108.727 136.666 108.433 136.614 108.122 136.573C99.1077 135.464 96.1204 128.331 98.8612 128.137C101.602 127.938 106.866 125.545 107.037 124.495L107.136 124.653L107.758 127.674L109.008 136.696Z" fill="url(#paint23_linear)"/>
<path d="M137.566 119.614L132.848 134.936L111.731 128.771L107.031 124.495L107.752 127.674C107.752 127.674 103.051 128.648 101.754 128.507C100.452 128.36 97.3821 127.351 97.922 129.41C98.462 131.469 99.6592 132.877 102.007 133.78C104.354 134.684 108.732 134.502 108.732 134.502L131.304 146.732C135.741 149.137 141.281 147.184 143.23 142.532L151.54 122.7C151.546 122.7 144.897 119.133 137.566 119.614Z" fill="url(#paint24_linear)"/>
<path d="M63.149 121.873C64.8861 123.926 70.5496 123.832 71.0543 125.492C71.5591 127.152 71.0543 129.61 68.8594 130.144C66.6644 130.672 63.149 129.78 62.6149 126.601C62.0926 123.421 63.149 121.873 63.149 121.873Z" fill="url(#paint25_linear)"/>
<path d="M113.434 66.0178L107.647 62.1464C105.833 60.938 105.88 58.2573 107.729 57.1076L110.059 55.6587L108.856 54.0456C107.412 52.1098 108.868 49.3705 111.28 49.4819L131.117 50.397C135.184 50.5847 138.206 54.2333 137.631 58.2631L139.345 58.8556C141.299 59.5302 142.297 61.7005 141.534 63.6187L135.759 78.1836C135.096 79.8496 133.282 80.7529 131.551 80.266L128.012 79.2688L113.434 66.0178Z" fill="url(#paint26_linear)"/>
<path d="M133.388 91.2412C133.388 91.2412 130.823 95.9221 126.498 95.9221C122.167 95.9221 121.791 94.2621 121.791 94.2621L121.362 90.6252L120.881 86.5661L132.449 77.8963L132.854 83.6976L133.388 91.2412Z" fill="url(#paint27_linear)"/>
<path d="M132.854 83.6918C131.222 88.056 128.029 92.4026 121.357 90.6252L120.875 86.5661L132.443 77.8963L132.854 83.6918Z" fill="#F98875"/>
<path d="M111.89 58.5506C116.855 64.4751 129.532 67.4609 134.931 64.7156C134.931 64.7156 134.738 72.089 135.172 72.4703C135.606 72.8575 137.05 68.6164 137.05 68.6164C137.05 68.6164 141.675 66.7394 141.821 71.2678C141.968 75.7963 135.606 74.9281 135.606 74.9281C135.606 74.9281 129.403 87.6336 121.544 87.6336C113.686 87.6336 111.28 81.9496 111.18 76.4591C111.08 70.9687 111.362 68.7162 111.89 58.5506Z" fill="url(#paint28_linear)"/>
<path d="M118.604 71.2444L117.043 76.4943C116.867 77.0868 117.307 77.6792 117.923 77.6792H119.619" stroke="#F98875" stroke-width="0.965" stroke-miterlimit="10" stroke-linecap="round" stroke-linejoin="round"/>
<path d="M137.29 73.2505C137.29 73.2505 136.751 70.8865 138.664 70.2178C140.577 69.5491 140.383 71.7371 139.714 72.1887" stroke="#F98875" stroke-width="0.965" stroke-miterlimit="10" stroke-linecap="round" stroke-linejoin="round"/>
<path d="M126.087 72.6052C126.087 73.1214 125.664 73.5438 125.148 73.5438C124.631 73.5438 124.209 73.1214 124.209 72.6052C124.209 72.089 124.631 71.6667 125.148 71.6667C125.664 71.6667 126.087 72.089 126.087 72.6052Z" fill="#391051"/>
<path d="M115.312 72.6052C115.312 73.1214 114.889 73.5438 114.373 73.5438C113.856 73.5438 113.434 73.1214 113.434 72.6052C113.434 72.089 113.856 71.6667 114.373 71.6667C114.889 71.6667 115.312 72.089 115.312 72.6052Z" fill="#391051"/>
<path d="M123 69.3614C123 69.3614 125.506 67.7014 128.012 69.6254" stroke="#391051" stroke-width="0.965" stroke-miterlimit="10" stroke-linecap="round" stroke-linejoin="round"/>
<path d="M111.268 69.3614C111.268 69.3614 113.774 67.7014 116.28 69.6254" stroke="#391051" stroke-width="0.965" stroke-miterlimit="10" stroke-linecap="round" stroke-linejoin="round"/>
<path d="M124.05 79.6736C124.209 81.099 123.176 82.3836 121.744 82.542C120.318 82.7004 119.032 81.668 118.874 80.2367L124.05 79.6736Z" fill="white"/>
<path d="M59.9622 149.818C59.9622 154.54 63.0198 158.91 67.7678 160.359L125.06 177.862L129.614 179.253L134.538 163.931L130.4 162.236L75.1802 139.617C69.1704 137.159 62.3391 140.391 60.4493 146.603C60.1206 147.677 59.9622 148.756 59.9622 149.818Z" fill="url(#paint29_linear)"/>
<path d="M125.06 177.862L129.614 179.253L134.538 163.931L130.4 162.236L125.06 177.862Z" fill="url(#paint30_linear)"/>
<path d="M134.538 163.931L142.637 160.67C144.133 160.065 145.841 160.347 147.068 161.397L171.57 182.344C173.871 184.315 172.034 188.051 169.07 187.436L129.62 179.253L134.538 163.931Z" fill="url(#paint31_linear)"/>
<path d="M168.959 149.818C168.959 154.54 165.901 158.91 161.153 160.359L103.861 177.862L99.3071 179.253L94.3831 163.931L98.5206 162.236L153.741 139.617C159.751 137.159 166.582 140.391 168.472 146.603C168.806 147.677 168.959 148.756 168.959 149.818Z" fill="url(#paint32_linear)"/>
<path d="M103.861 177.862L99.3071 179.253L94.3831 163.931L98.5206 162.236L103.861 177.862Z" fill="url(#paint33_linear)"/>
<path d="M94.3831 163.931L86.2841 160.67C84.7875 160.065 83.0797 160.347 81.8531 161.397L57.3505 182.344C55.0499 184.315 56.8869 188.051 59.8506 187.436L99.3012 179.253L94.3831 163.931Z" fill="url(#paint34_linear)"/>
<path d="M71.5006 91.1824C68.1553 91.8394 65.9721 95.0832 66.6294 98.4268C66.6529 98.5324 66.6763 98.6379 66.6998 98.7435C67.9088 103.97 72.6685 104.433 74.3176 106.885C74.4585 107.097 74.7754 107.032 74.8282 106.786C75.4327 103.888 79.6583 101.659 78.8014 96.3679C78.7838 96.2623 78.7662 96.1508 78.7486 96.0452C78.0913 92.7017 74.8458 90.5254 71.5006 91.1824ZM73.1321 99.4709C71.8996 99.7114 70.7024 98.9078 70.4618 97.676C70.4266 97.4882 70.409 97.3005 70.4207 97.1128C70.4735 96.098 71.213 95.2064 72.2576 95.0011C73.3023 94.7958 74.3235 95.3413 74.7578 96.2623C74.8341 96.4265 74.8928 96.6084 74.9339 96.7961C75.1686 98.0338 74.3646 99.2245 73.1321 99.4709Z" fill="url(#paint35_linear)"/>
<path d="M74.9691 94.8486C87.4229 57.0372 168.413 37.2164 194.413 79.4683" stroke="#BBD4F2" stroke-width="0.965" stroke-miterlimit="10" stroke-linecap="round" stroke-linejoin="round" stroke-dasharray="2.89 2.89"/>
<path d="M27.4371 79.4624C27.5955 79.2278 27.754 78.9932 27.9183 78.7585" stroke="#BBD4F2" stroke-width="0.965" stroke-linecap="round" stroke-linejoin="round"/>
<path d="M28.8983 77.4153C46.2585 54.6029 72.8915 71.1505 73.0969 92.2266" stroke="#BBD4F2" stroke-width="0.965" stroke-linecap="round" stroke-linejoin="round" stroke-dasharray="2.85 2.85"/>
<path d="M73.0911 93.0595C73.0852 93.3411 73.0735 93.6226 73.0559 93.9101" stroke="#BBD4F2" stroke-width="0.965" stroke-linecap="round" stroke-linejoin="round"/>
<path d="M50.6075 29.8078C75.5267 32.1835 74.9692 92.9363 74.9692 92.9363C74.9692 92.9363 80.2277 31.8843 160.702 33.2217" stroke="#BBD4F2" stroke-width="0.965" stroke-miterlimit="10" stroke-linecap="round" stroke-linejoin="round" stroke-dasharray="2.89 2.89"/>
<path d="M215.687 79.4976C215.687 79.7087 215.687 79.914 215.676 80.1252C215.664 80.6003 215.629 81.0696 215.576 81.533C215.382 83.24 214.954 84.8766 214.32 86.4076C214.15 86.824 213.962 87.2288 213.756 87.6277C212.236 90.6427 209.895 93.1709 207.031 94.9189C206.585 95.1946 206.127 95.4469 205.657 95.6815C204.266 96.3737 202.776 96.8899 201.209 97.2066C200.933 97.2653 200.657 97.3122 200.381 97.3533C199.483 97.4941 198.556 97.5644 197.617 97.5644C196.672 97.5644 195.751 97.4941 194.853 97.3533C194.577 97.3122 194.301 97.2653 194.025 97.2066C192.458 96.8899 190.962 96.3737 189.577 95.6815C189.107 95.4469 188.649 95.1946 188.203 94.9189C184.887 92.8893 182.27 89.8215 180.82 86.1612C180.697 85.8562 180.58 85.5394 180.474 85.2227C180.357 84.8707 180.251 84.5129 180.151 84.1492C180.11 83.9967 180.069 83.8442 180.04 83.6858C179.717 82.3425 179.547 80.9406 179.547 79.4917C179.547 69.5138 187.64 61.4248 197.623 61.4248C207.594 61.4365 215.687 69.5197 215.687 79.4976Z" fill="url(#paint36_linear)"/>
<path d="M215.675 80.1253C215.664 80.6004 215.628 81.0697 215.576 81.5331C215.382 83.24 214.954 84.8766 214.32 86.4076C214.15 86.8241 213.962 87.2288 213.756 87.6277C212.236 90.6428 209.895 93.171 207.031 94.919C206.585 95.1947 206.127 95.4469 205.657 95.6815C204.266 96.3737 202.776 96.8899 201.209 97.2067C200.933 97.2653 200.657 97.3123 200.381 97.3533C199.483 97.4941 198.556 97.5645 197.617 97.5645C196.672 97.5645 195.751 97.4941 194.853 97.3533C194.577 97.3123 194.301 97.2653 194.025 97.2067C192.458 96.8899 190.962 96.3737 189.577 95.6815C189.107 95.4469 188.649 95.1947 188.203 94.919C184.887 92.8894 182.27 89.8215 180.82 86.1612C180.697 85.8562 180.58 85.5395 180.474 85.2227C180.357 84.8707 180.251 84.5129 180.151 84.1492C180.11 83.9967 180.069 83.8442 180.04 83.6858H184.834V88.0676H187.387V92.2559H190.615V83.9733H195.721V95.1008H199.201V90.7366H203.738V83.4923H206.08V87.2464H210.37V80.1194H215.675V80.1253Z" fill="url(#paint37_linear)"/>
<path d="M202.905 84.8414H192.928V86.8592H202.905V84.8414Z" fill="#02419C"/>
<path d="M192.892 74.6876H190.146L190.885 68.9039C190.926 68.5871 191.196 68.3466 191.519 68.3466C191.842 68.3466 192.112 68.5871 192.153 68.9039L192.892 74.6876Z" fill="url(#paint38_linear)"/>
<path d="M193.397 71.3088H189.635V78.5649H193.397V71.3088Z" fill="url(#paint39_linear)"/>
<path d="M193.831 72.8985H189.207V82.8529H193.831V72.8985Z" fill="url(#paint40_linear)"/>
<path d="M194.407 76.5999H188.626V88.0442H194.407V76.5999Z" fill="url(#paint41_linear)"/>
<path d="M194.847 83.3281V97.3592C194.571 97.3182 194.295 97.2712 194.019 97.2126C192.452 96.8958 190.956 96.3796 189.571 95.6875C189.101 95.4528 188.643 95.2006 188.197 94.9249V83.3281H194.847Z" fill="url(#paint42_linear)"/>
<path d="M205.076 74.6876H202.33L203.069 68.9039C203.11 68.5871 203.38 68.3466 203.703 68.3466C204.026 68.3466 204.296 68.5871 204.337 68.9039L205.076 74.6876Z" fill="url(#paint43_linear)"/>
<path d="M205.581 71.3088H201.819V78.5649H205.581V71.3088Z" fill="url(#paint44_linear)"/>
<path d="M206.009 72.8985H201.385V82.8529H206.009V72.8985Z" fill="url(#paint45_linear)"/>
<path d="M206.591 76.5999H200.81V88.0442H206.591V76.5999Z" fill="url(#paint46_linear)"/>
<path d="M207.025 83.3281V94.9249C206.579 95.2006 206.121 95.4528 205.651 95.6875C204.26 96.3796 202.77 96.8958 201.203 97.2126C200.927 97.2712 200.651 97.3182 200.375 97.3592V83.3281H207.025Z" fill="url(#paint47_linear)"/>
<path d="M218.387 57.8291C215.282 56.4213 211.62 57.7997 210.212 60.9028C210.165 61.0025 210.124 61.1022 210.083 61.202C208.034 66.1586 211.638 69.2969 211.556 72.2533C211.55 72.5055 211.843 72.6404 212.031 72.4703C214.203 70.4642 218.939 71.0977 221.316 66.2935C221.363 66.1997 221.415 66.1 221.456 66.0002C222.871 62.8913 221.492 59.2369 218.387 57.8291ZM214.901 65.5251C213.757 65.0089 213.246 63.6598 213.768 62.5159C213.85 62.3399 213.944 62.1816 214.062 62.0349C214.696 61.2371 215.816 60.938 216.785 61.3779C217.753 61.8179 218.27 62.8561 218.088 63.8592C218.053 64.041 218 64.217 217.918 64.393C217.395 65.5368 216.045 66.0413 214.901 65.5251Z" fill="url(#paint48_linear)"/>
<path d="M69.8397 27.8428C69.8397 28.0539 69.8397 28.2592 69.828 28.4704C69.8162 28.9455 69.781 29.4148 69.7282 29.8782C69.5345 31.5852 69.1061 33.2218 68.4723 34.7528C68.3021 35.1692 68.1143 35.574 67.9089 35.9729C66.1482 39.4572 63.3018 42.2904 59.8098 44.0267C58.4189 44.7189 56.9282 45.2351 55.3612 45.5518C54.1992 45.7865 53.0019 45.9097 51.7694 45.9097C50.537 45.9097 49.3397 45.7865 48.1777 45.5518C46.6107 45.2351 45.1141 44.7189 43.7291 44.0267C39.75 42.0499 36.6101 38.6594 34.961 34.5123C34.8377 34.2072 34.7204 33.8905 34.6147 33.5737C34.4973 33.2218 34.3917 32.864 34.2919 32.5003C34.2509 32.3478 34.2098 32.1952 34.1804 32.0369C33.8576 30.6936 33.6874 29.2916 33.6874 27.8428C33.6874 17.8649 41.7806 9.77588 51.7636 9.77588C61.7465 9.78174 69.8397 17.8649 69.8397 27.8428Z" fill="url(#paint49_linear)"/>
<path d="M69.828 28.4705C69.8163 28.9456 69.781 29.4149 69.7282 29.8783C69.5345 31.5852 69.1061 33.2218 68.4723 34.7528C68.3021 35.1693 68.1143 35.574 67.9089 35.9729C66.1482 39.4572 63.3018 42.2905 59.8098 44.0267C58.4189 44.7189 56.9282 45.2351 55.3612 45.5519C54.1992 45.7865 53.0019 45.9097 51.7694 45.9097C50.537 45.9097 49.3397 45.7865 48.1777 45.5519C46.6107 45.2351 45.1141 44.7189 43.7291 44.0267C39.75 42.05 36.6101 38.6595 34.961 34.5123C34.8377 34.2073 34.7204 33.8905 34.6147 33.5738C34.4973 33.2218 34.3917 32.864 34.2919 32.5003C34.2508 32.3478 34.2098 32.1953 34.1804 32.0369H38.9753V36.4187H41.5283V40.6069H44.7561V32.3243H49.8621V43.4519H53.3423V39.0877H57.879V31.8433H60.2206V35.5975H64.5108V28.4705H69.828Z" fill="url(#paint50_linear)"/>
<path d="M57.879 39.0877C57.6384 38.4425 57.3919 37.7796 57.1395 37.0875C57.028 36.7824 56.9165 36.4774 56.8109 36.1724C56.1594 34.3598 55.4962 32.4241 54.8683 30.4649C54.7978 30.2479 54.7274 30.0308 54.6629 29.8079C53.8295 27.1507 53.0841 24.47 52.5559 22.0122C52.462 21.5546 52.3681 21.1088 52.286 20.6689H51.2413C51.1591 21.1088 51.0711 21.5546 50.9713 22.0122C50.449 24.47 49.6978 27.1507 48.8703 29.8079C48.7998 30.0308 48.7294 30.2479 48.6649 30.4649C48.4653 31.0925 48.2599 31.7085 48.0604 32.3244C47.6202 33.6442 47.1683 34.9347 46.7223 36.1724C46.6107 36.4833 46.4992 36.7883 46.3936 37.0875C45.3724 39.8855 44.4099 42.3315 43.7291 44.0268C45.1201 44.719 46.6166 45.2352 48.1777 45.5519C48.4653 44.3494 48.9876 42.1204 49.5863 39.4397C49.5863 39.3224 49.6097 39.2109 49.6626 39.1053C49.7154 38.9997 49.7858 38.9 49.8797 38.812C50.7483 37.9673 53.3013 37.9204 53.8764 39.0877C53.9527 39.2402 53.9938 39.4103 53.9938 39.6039C54.5748 42.2084 55.0854 44.367 55.3671 45.5519C56.9341 45.2352 58.4248 44.719 59.8157 44.0268C59.2875 42.748 58.6185 41.0469 57.879 39.0877ZM51.5758 29.8079C51.6404 29.4677 51.7049 29.1275 51.7636 28.7931C51.8223 29.1275 51.8869 29.4677 51.9456 29.8079C51.9866 30.0249 52.0277 30.242 52.0688 30.4649C52.4268 32.3654 52.8318 34.3188 53.225 36.1724C53.2661 36.3601 53.3071 36.5478 53.3424 36.7296L51.435 36.6299L50.1732 36.7003C50.2084 36.5243 50.2495 36.3484 50.2847 36.1724C50.6837 34.3129 51.0828 32.3654 51.4408 30.4649C51.4937 30.242 51.5406 30.0249 51.5758 29.8079Z" fill="url(#paint51_linear)"/>
<path d="M49.5804 39.4463C49.5804 39.3287 49.6039 39.217 49.6568 39.1111C49.6333 39.2228 49.6098 39.3346 49.5804 39.4463Z" fill="url(#paint52_linear)"/>
<path d="M53.9821 39.6039C53.941 39.4338 53.9058 39.2637 53.8647 39.0936C53.941 39.2402 53.9821 39.4103 53.9821 39.6039Z" fill="url(#paint53_linear)"/>
<path d="M55.3144 30.4649H48.2131C48.0311 30.4649 47.8844 30.3182 47.8844 30.1364C47.8844 29.9546 48.0311 29.8079 48.2131 29.8079H55.3085C55.4905 29.8079 55.6372 29.9546 55.6372 30.1364C55.6431 30.3182 55.4963 30.4649 55.3144 30.4649Z" fill="url(#paint54_linear)"/>
<path d="M57.6618 37.0874H45.8653C45.613 37.0874 45.4076 36.8821 45.4076 36.6299C45.4076 36.3777 45.613 36.1724 45.8653 36.1724H57.6618C57.9141 36.1724 58.1195 36.3777 58.1195 36.6299C58.1195 36.8821 57.9141 37.0874 57.6618 37.0874Z" fill="url(#paint55_linear)"/>
<path d="M51.1709 20.5398L50.7718 18.3519C50.7601 18.2991 50.7659 18.2404 50.7894 18.1876L51.6228 16.2577C51.7284 16.0172 52.0688 16.029 52.151 16.2753L52.7379 17.9882C52.7555 18.0351 52.7555 18.082 52.7496 18.129L52.327 20.534H51.1709V20.5398Z" fill="url(#paint56_linear)"/>
<path d="M52.556 22.0122H50.942C50.766 22.0122 50.6075 21.6309 50.6075 21.1675C50.6075 20.6982 50.766 20.3228 50.9538 20.3228H52.5677C52.7614 20.3228 52.914 20.7041 52.914 21.1675C52.9199 21.6368 52.7673 22.0122 52.556 22.0122Z" fill="url(#paint57_linear)"/>
<path d="M37.6255 0.584043C34.3155 1.40526 32.2966 4.75468 33.1241 8.06303C33.1476 8.16861 33.1769 8.2742 33.2121 8.37392C34.6793 13.5359 39.4507 13.7588 41.229 16.1286C41.3816 16.3339 41.6927 16.2577 41.7337 16.0054C42.1915 13.0842 46.3056 10.6499 45.1846 5.39992C45.167 5.29434 45.1377 5.18875 45.1142 5.08317C44.2867 1.78068 40.9356 -0.237179 37.6255 0.584043ZM39.662 8.78453C38.4413 9.08956 37.2088 8.34459 36.9036 7.12449C36.8567 6.93678 36.8332 6.74907 36.8332 6.56723C36.8391 5.54657 37.5257 4.61976 38.5587 4.36753C39.5916 4.10943 40.6363 4.60803 41.1175 5.50551C41.2055 5.66975 41.2701 5.84573 41.317 6.02757C41.6281 7.24767 40.8827 8.4795 39.662 8.78453Z" fill="url(#paint58_linear)"/>
<path d="M186.296 27.5846C186.296 29.4911 185.973 31.3271 185.386 33.034C184.007 37.0404 181.143 40.3488 177.452 42.3197C176.483 42.8359 175.462 43.2583 174.388 43.5809C172.868 44.0384 171.26 44.2789 169.593 44.2789C167.474 44.2789 165.45 43.8859 163.583 43.1644C162.815 42.8711 162.069 42.5192 161.359 42.1144C161.259 42.0557 161.16 42.003 161.066 41.9443C160.884 41.8387 160.702 41.7273 160.526 41.6099C157.896 39.9088 155.778 37.4921 154.446 34.6296C153.448 32.4885 152.89 30.107 152.89 27.5905C152.89 18.3694 160.367 10.8962 169.593 10.8962C178.819 10.8904 186.296 18.3635 186.296 27.5846Z" fill="url(#paint59_linear)"/>
<path d="M185.386 33.0341C184.007 37.0404 181.143 40.3488 177.452 42.3197C176.483 42.8359 175.462 43.2583 174.388 43.5809C172.868 44.0384 171.26 44.2789 169.593 44.2789C167.474 44.2789 165.45 43.8859 163.583 43.1644C162.815 42.8711 162.069 42.5192 161.359 42.1144C161.259 42.0558 161.16 42.003 161.066 41.9443C160.884 41.8387 160.702 41.7273 160.526 41.61C157.896 39.9089 155.778 37.4921 154.446 34.6296C155.625 35.1575 156.582 36.2016 156.67 36.3013C156.629 36.2368 156.423 35.791 158.026 35.3217C159.763 34.8114 161.547 38.2312 161.547 38.2312C161.547 38.2312 161.876 37.3631 163.419 37.4628C164.968 37.5566 166.412 40.5424 166.412 40.5424C166.412 40.5424 167.087 38.6125 167.879 38.2547C168.179 39.0994 167.562 40.513 167.498 40.6538C167.562 40.5541 168.061 39.8443 168.865 39.7739C168.983 40.3664 168.513 41.041 168.46 41.1172C168.566 41.0586 170.068 40.2373 171.371 40.3957C172.721 40.5658 173.038 41.4105 173.038 41.4105C173.038 41.4105 174.318 37.2223 176.906 37.2164C179.494 37.2164 179.787 37.8675 179.787 37.8675C179.787 37.8675 180.855 33.2511 185.386 33.0341Z" fill="url(#paint60_linear)"/>
<path d="M163.049 26.1358H161.071V42.1144H163.049V26.1358Z" fill="url(#paint61_linear)"/>
<path d="M163.589 26.1358H160.531V28.7696H163.589V26.1358Z" fill="url(#paint62_linear)"/>
<path d="M163.589 41.2111V43.1586C162.82 42.8653 162.075 42.5133 161.365 42.1086H161.071V41.9385C160.889 41.8329 160.707 41.7215 160.531 41.6041V41.2111H163.589Z" fill="url(#paint63_linear)"/>
<path d="M163.425 33.2159H160.702V41.2111H163.425V33.2159Z" fill="url(#paint64_linear)"/>
<path d="M176.911 26.1358H174.934V42.1144H176.911V26.1358Z" fill="url(#paint65_linear)"/>
<path d="M177.453 26.1358H174.395V28.7696H177.453V26.1358Z" fill="url(#paint66_linear)"/>
<path d="M177.451 41.2111V42.3198C176.483 42.836 175.462 43.2583 174.388 43.5809V41.217H177.451V41.2111Z" fill="url(#paint67_linear)"/>
<path d="M177.281 33.2159H174.558V41.2111H177.281V33.2159Z" fill="url(#paint68_linear)"/>
<path d="M182.147 24.7984C173.848 28.8634 164.129 28.8634 155.831 24.7984C156.165 24.1121 156.505 23.4258 156.84 22.7336C164.505 26.4877 173.472 26.4877 181.131 22.7336C181.478 23.4199 181.812 24.1121 182.147 24.7984Z" fill="url(#paint69_linear)"/>
<path d="M190.885 9.87561V14.2574C190.885 15.413 189.946 16.3574 188.79 16.3574H182.158L180.04 18.475V16.3574H177.463C176.307 16.3574 175.362 15.4189 175.362 14.2574V9.87561C175.362 8.72003 176.301 7.78149 177.463 7.78149H188.79C189.946 7.78149 190.885 8.72003 190.885 9.87561Z" fill="url(#paint70_linear)"/>
<path d="M185.016 10.6264C185.216 10.8259 185.31 11.084 185.31 11.3421C185.31 11.6002 185.216 11.8583 185.016 12.0577L182.868 14.2046L180.72 12.0577C180.321 11.6588 180.327 11.0194 180.72 10.6264C180.914 10.4329 181.178 10.3331 181.436 10.3331C181.695 10.3331 181.953 10.4329 182.152 10.6264L182.868 11.3421L183.584 10.6264C183.984 10.2334 184.623 10.2334 185.016 10.6264Z" fill="white"/>
<path d="M45.1493 86.2434C45.1493 86.9708 45.1083 87.6923 45.032 88.3962C44.8266 90.2029 44.3746 91.9333 43.6997 93.5523C43.5178 93.9922 43.3182 94.4263 43.107 94.8486C39.9554 101.084 33.4879 105.36 26.0285 105.36C17.9588 105.36 11.057 100.368 8.2517 93.3C8.11671 92.9774 7.99934 92.6431 7.88783 92.3087C7.76458 91.9333 7.6472 91.5579 7.54743 91.1766C7.13074 89.6045 6.90186 87.9562 6.90186 86.2493C6.90186 75.6907 15.4645 67.1382 26.0285 67.1382C36.5866 67.1324 45.1493 75.6907 45.1493 86.2434Z" fill="url(#paint71_linear)"/>
<path d="M45.026 88.398C44.8206 90.2047 44.3687 91.9351 43.6938 93.5541C43.5118 93.994 43.3123 94.4281 43.101 94.8504L32.0558 94.739L23.3464 94.6569L25.4298 92.5745L25.5355 92.4689L37.8425 80.1682L45.026 88.398Z" fill="url(#paint72_linear)"/>
<path d="M37.8501 80.1605L32.0634 94.7313L23.354 94.6492L37.8501 80.1605Z" fill="url(#paint73_linear)"/>
<path d="M26.228 93.476L24.5436 93.4584L13.0524 93.3411L8.25163 93.2941C8.11664 92.9715 7.99927 92.6371 7.88776 92.3028L9.48996 90.7014L17.1371 83.0523L25.289 92.3966L25.4357 92.5609L26.228 93.476Z" fill="url(#paint74_linear)"/>
<path d="M17.1371 83.0523L14.2438 90.3377L13.0524 93.3411L8.25163 93.2941C8.11664 92.9715 7.99927 92.6371 7.88776 92.3028L9.48996 90.7014L17.1371 83.0523Z" fill="url(#paint75_linear)"/>
<path d="M43.6997 93.5522C43.5177 93.9922 43.3182 94.4262 43.1069 94.8486C40.7594 99.5061 36.5573 103.067 31.4748 104.574C29.7494 105.085 27.9183 105.36 26.0285 105.36C17.9588 105.36 11.057 100.368 8.25166 93.3C8.11668 92.9774 7.9993 92.643 7.88779 92.3087C7.76454 91.9332 7.64716 91.5578 7.54739 91.1765C8.20471 90.9888 8.85028 90.8363 9.48412 90.7131C11.057 90.4081 12.5594 90.3084 14.0266 90.3436H14.0442C14.1088 90.3436 14.1792 90.3436 14.2438 90.3495C18.0409 90.4726 21.5799 91.505 25.289 92.4084C25.3712 92.426 25.4533 92.4494 25.5355 92.4729C27.1729 92.8718 28.8456 93.2355 30.5945 93.4877C31.2225 93.5757 31.8504 93.6461 32.4725 93.693C36.5514 94.0098 40.419 93.5581 43.6997 93.5522Z" fill="url(#paint76_linear)"/>
<path d="M31.4748 104.568C29.7494 105.079 27.9183 105.354 26.0285 105.354C17.9588 105.354 11.057 100.362 8.25166 93.2941C8.11668 92.9714 7.9993 92.6371 7.88779 92.3027C7.76454 91.9273 7.64716 91.5519 7.54739 91.1706C8.20471 90.9829 8.85028 90.8304 9.48412 90.7072C11.057 90.4022 12.5594 90.3025 14.0266 90.3377H14.0442C20.9695 90.7248 23.6633 93.3703 20.77 96.837C18.1759 99.946 28.5638 100.767 31.4748 104.568Z" fill="url(#paint77_linear)"/>
<path opacity="0.25" d="M26.3278 77.9725C26.3278 80.2895 24.4498 82.1607 22.1375 82.1607C19.8251 82.1607 17.9471 80.2836 17.9471 77.9725C17.9471 75.6613 19.8251 73.7842 22.1375 73.7842C24.4498 73.7842 26.3278 75.6555 26.3278 77.9725Z" fill="white"/>
<path opacity="0.45" d="M22.1316 80.8116C23.7004 80.8116 24.9722 79.5405 24.9722 77.9725C24.9722 76.4045 23.7004 75.1334 22.1316 75.1334C20.5629 75.1334 19.2911 76.4045 19.2911 77.9725C19.2911 79.5405 20.5629 80.8116 22.1316 80.8116Z" fill="white"/>
<path d="M23.6283 77.9725C23.6283 78.7996 22.9593 79.4683 22.1318 79.4683C21.3043 79.4683 20.6352 78.7996 20.6352 77.9725C20.6352 77.1455 21.3043 76.4767 22.1318 76.4767C22.9593 76.4767 23.6283 77.1455 23.6283 77.9725Z" fill="#F3FF70"/>
<path d="M14.373 60.8618V65.2436C14.373 66.3991 15.3121 67.3435 16.4682 67.3435H23.0942L25.2129 69.4611V67.3435H27.7893C28.9455 67.3435 29.8904 66.405 29.8904 65.2436V60.8618C29.8904 59.7062 28.9513 58.7676 27.7893 58.7676H16.4624C15.3121 58.7676 14.373 59.7003 14.373 60.8618Z" fill="url(#paint78_linear)"/>
<path d="M20.2419 61.6126C20.0424 61.812 19.9485 62.0701 19.9485 62.3282C19.9485 62.5863 20.0424 62.8444 20.2419 63.0438L22.3899 65.1908L24.5379 63.0438C24.937 62.645 24.9312 62.0056 24.5379 61.6126C24.3443 61.419 24.0802 61.3193 23.8219 61.3193C23.5637 61.3193 23.3055 61.419 23.1059 61.6126L22.3899 62.3282L21.6739 61.6126C21.2749 61.2196 20.6351 61.2196 20.2419 61.6126Z" fill="white"/>
<defs>
<linearGradient id="paint0_linear" x1="39.869" y1="91.8849" x2="62.8711" y2="195.776" gradientUnits="userSpaceOnUse">
<stop stop-color="#302A7B"/>
<stop offset="0.9944" stop-color="#975189"/>
</linearGradient>
<linearGradient id="paint1_linear" x1="31.7732" y1="129.328" x2="102.244" y2="241.948" gradientUnits="userSpaceOnUse">
<stop stop-color="#FFE099"/>
<stop offset="1" stop-color="#F34C70"/>
</linearGradient>
<linearGradient id="paint2_linear" x1="23.9731" y1="98.3885" x2="30.8734" y2="153.374" gradientUnits="userSpaceOnUse">
<stop stop-color="#FFE099"/>
<stop offset="1" stop-color="#F34C70"/>
</linearGradient>
<linearGradient id="paint3_linear" x1="59.3708" y1="93.9462" x2="66.2712" y2="148.931" gradientUnits="userSpaceOnUse">
<stop stop-color="#FFE099"/>
<stop offset="1" stop-color="#F34C70"/>
</linearGradient>
<linearGradient id="paint4_linear" x1="172.239" y1="88.2847" x2="171.801" y2="119.845" gradientUnits="userSpaceOnUse">
<stop stop-color="#B3D3F1"/>
<stop offset="1" stop-color="#2C4CB6"/>
</linearGradient>
<linearGradient id="paint5_linear" x1="187.346" y1="88.4943" x2="186.908" y2="120.055" gradientUnits="userSpaceOnUse">
<stop stop-color="#B3D3F1"/>
<stop offset="1" stop-color="#2C4CB6"/>
</linearGradient>
<linearGradient id="paint6_linear" x1="179.727" y1="88.3888" x2="179.289" y2="119.949" gradientUnits="userSpaceOnUse">
<stop stop-color="#B3D3F1"/>
<stop offset="1" stop-color="#2C4CB6"/>
</linearGradient>
<linearGradient id="paint7_linear" x1="162.773" y1="154.027" x2="167.276" y2="196.828" gradientUnits="userSpaceOnUse">
<stop stop-color="#A2D6E2"/>
<stop offset="1" stop-color="#7B99CB"/>
</linearGradient>
<linearGradient id="paint8_linear" x1="189.485" y1="150.303" x2="193.319" y2="179.343" gradientUnits="userSpaceOnUse">
<stop stop-color="#B3D3F1"/>
<stop offset="1" stop-color="#2C4CB6"/>
</linearGradient>
<linearGradient id="paint9_linear" x1="175.965" y1="152.088" x2="179.799" y2="181.128" gradientUnits="userSpaceOnUse">
<stop stop-color="#B3D3F1"/>
<stop offset="1" stop-color="#2C4CB6"/>
</linearGradient>
<linearGradient id="paint10_linear" x1="166.21" y1="119.989" x2="206.633" y2="207.536" gradientUnits="userSpaceOnUse">
<stop stop-color="#B3D3F1"/>
<stop offset="1" stop-color="#5183E7"/>
</linearGradient>
<linearGradient id="paint11_linear" x1="173.325" y1="94.1775" x2="180.472" y2="157.546" gradientUnits="userSpaceOnUse">
<stop stop-color="#B3D3F1"/>
<stop offset="1" stop-color="#5183E7"/>
</linearGradient>
<linearGradient id="paint12_linear" x1="168.439" y1="87.3956" x2="179.529" y2="152.984" gradientUnits="userSpaceOnUse">
<stop stop-color="#B3D3F1"/>
<stop offset="1" stop-color="#2C4CB6"/>
</linearGradient>
<linearGradient id="paint13_linear" x1="109.457" y1="127.417" x2="160.35" y2="141.304" gradientUnits="userSpaceOnUse">
<stop stop-color="#FFB39F"/>
<stop offset="1" stop-color="#FFDEC5"/>
</linearGradient>
<linearGradient id="paint14_linear" x1="121.229" y1="93.7423" x2="132.279" y2="168.098" gradientUnits="userSpaceOnUse">
<stop stop-color="#4FB2C6"/>
<stop offset="1" stop-color="#02419C"/>
</linearGradient>
<linearGradient id="paint15_linear" x1="110.155" y1="49.1474" x2="98.0215" y2="197.426" gradientUnits="userSpaceOnUse">
<stop stop-color="#4FB2C6"/>
<stop offset="1" stop-color="#02419C"/>
</linearGradient>
<linearGradient id="paint16_linear" x1="41.1396" y1="16.9698" x2="166.517" y2="175.653" gradientUnits="userSpaceOnUse">
<stop stop-color="#4FB2C6"/>
<stop offset="1" stop-color="#02419C"/>
</linearGradient>
<linearGradient id="paint17_linear" x1="140.446" y1="76.3317" x2="146.512" y2="165.645" gradientUnits="userSpaceOnUse">
<stop stop-color="#FFE099"/>
<stop offset="1" stop-color="#F34C70"/>
</linearGradient>
<linearGradient id="paint18_linear" x1="107.6" y1="78.5628" x2="113.667" y2="167.877" gradientUnits="userSpaceOnUse">
<stop stop-color="#FFE099"/>
<stop offset="1" stop-color="#F34C70"/>
</linearGradient>
<linearGradient id="paint19_linear" x1="145.589" y1="90.1214" x2="156.639" y2="164.479" gradientUnits="userSpaceOnUse">
<stop stop-color="#4FB2C6"/>
<stop offset="1" stop-color="#02419C"/>
</linearGradient>
<linearGradient id="paint20_linear" x1="90.6593" y1="283.639" x2="81.4143" y2="66.846" gradientUnits="userSpaceOnUse">
<stop stop-color="#63B3BB"/>
<stop offset="1" stop-color="#C7FFE4"/>
</linearGradient>
<linearGradient id="paint21_linear" x1="93.3372" y1="164.037" x2="104.508" y2="100.63" gradientUnits="userSpaceOnUse">
<stop stop-color="#63B3BB"/>
<stop offset="1" stop-color="#C7FFE4"/>
</linearGradient>
<linearGradient id="paint22_linear" x1="68.2631" y1="153.802" x2="78.2783" y2="96.956" gradientUnits="userSpaceOnUse">
<stop stop-color="#63B3BB"/>
<stop offset="1" stop-color="#C7FFE4"/>
</linearGradient>
<linearGradient id="paint23_linear" x1="102.616" y1="153.862" x2="105.071" y2="91.8628" gradientUnits="userSpaceOnUse">
<stop stop-color="#63B3BB"/>
<stop offset="1" stop-color="#C7FFE4"/>
</linearGradient>
<linearGradient id="paint24_linear" x1="183.96" y1="84.3256" x2="113.5" y2="142.024" gradientUnits="userSpaceOnUse">
<stop stop-color="#FFB39F"/>
<stop offset="1" stop-color="#FFDEC5"/>
</linearGradient>
<linearGradient id="paint25_linear" x1="42.7851" y1="127.12" x2="74.1621" y2="125.674" gradientUnits="userSpaceOnUse">
<stop stop-color="#FFB39F"/>
<stop offset="1" stop-color="#FFDEC5"/>
</linearGradient>
<linearGradient id="paint26_linear" x1="120.919" y1="43.7907" x2="126.191" y2="72.6957" gradientUnits="userSpaceOnUse">
<stop stop-color="#5C4070"/>
<stop offset="1" stop-color="#391051"/>
</linearGradient>
<linearGradient id="paint27_linear" x1="125.052" y1="81.1317" x2="141.666" y2="121.026" gradientUnits="userSpaceOnUse">
<stop stop-color="#FFB39F"/>
<stop offset="1" stop-color="#FFDEC5"/>
</linearGradient>
<linearGradient id="paint28_linear" x1="127.53" y1="61.2124" x2="122.954" y2="88.0845" gradientUnits="userSpaceOnUse">
<stop stop-color="#FFB39F"/>
<stop offset="1" stop-color="#FFDEC5"/>
</linearGradient>
<linearGradient id="paint29_linear" x1="88.4017" y1="198.632" x2="112.67" y2="82.4322" gradientUnits="userSpaceOnUse">
<stop stop-color="#302A7B"/>
<stop offset="0.9944" stop-color="#975189"/>
</linearGradient>
<linearGradient id="paint30_linear" x1="95.0778" y1="135.712" x2="115.792" y2="156.726" gradientUnits="userSpaceOnUse">
<stop stop-color="#302A7B"/>
<stop offset="0.9944" stop-color="#975189"/>
</linearGradient>
<linearGradient id="paint31_linear" x1="121.33" y1="89.902" x2="136.932" y2="138.032" gradientUnits="userSpaceOnUse">
<stop stop-color="#5C4070"/>
<stop offset="1" stop-color="#391051"/>
</linearGradient>
<linearGradient id="paint32_linear" x1="176.873" y1="110.279" x2="82.0707" y2="212.648" gradientUnits="userSpaceOnUse">
<stop stop-color="#302A7B"/>
<stop offset="0.9944" stop-color="#975189"/>
</linearGradient>
<linearGradient id="paint33_linear" x1="133.844" y1="135.712" x2="113.13" y2="156.726" gradientUnits="userSpaceOnUse">
<stop stop-color="#302A7B"/>
<stop offset="0.9944" stop-color="#975189"/>
</linearGradient>
<linearGradient id="paint34_linear" x1="107.592" y1="89.902" x2="91.9902" y2="138.032" gradientUnits="userSpaceOnUse">
<stop stop-color="#5C4070"/>
<stop offset="1" stop-color="#391051"/>
</linearGradient>
<linearGradient id="paint35_linear" x1="71.0092" y1="92.8438" x2="78.0537" y2="111.493" gradientUnits="userSpaceOnUse">
<stop stop-color="#FF487C"/>
<stop offset="1" stop-color="#FFADAA"/>
</linearGradient>
<linearGradient id="paint36_linear" x1="197.61" y1="79.5031" x2="195.732" y2="22.5622" gradientUnits="userSpaceOnUse">
<stop stop-color="#E5FFFF"/>
<stop offset="1" stop-color="#25DBFF"/>
</linearGradient>
<linearGradient id="paint37_linear" x1="194.843" y1="55.088" x2="202.066" y2="119.547" gradientUnits="userSpaceOnUse">
<stop stop-color="#E5FFFF"/>
<stop offset="1" stop-color="#5EC0FF"/>
</linearGradient>
<linearGradient id="paint38_linear" x1="191.518" y1="66.3798" x2="191.518" y2="77.0706" gradientUnits="userSpaceOnUse">
<stop stop-color="#4FB2C6"/>
<stop offset="1" stop-color="#02419C"/>
</linearGradient>
<linearGradient id="paint39_linear" x1="191.518" y1="69.0582" x2="191.518" y2="81.2924" gradientUnits="userSpaceOnUse">
<stop stop-color="#4FB2C6"/>
<stop offset="1" stop-color="#02419C"/>
</linearGradient>
<linearGradient id="paint40_linear" x1="191.518" y1="69.8101" x2="191.518" y2="86.5935" gradientUnits="userSpaceOnUse">
<stop stop-color="#4FB2C6"/>
<stop offset="1" stop-color="#02419C"/>
</linearGradient>
<linearGradient id="paint41_linear" x1="191.518" y1="73.0454" x2="191.518" y2="92.3477" gradientUnits="userSpaceOnUse">
<stop stop-color="#4FB2C6"/>
<stop offset="1" stop-color="#02419C"/>
</linearGradient>
<linearGradient id="paint42_linear" x1="191.519" y1="78.9685" x2="191.519" y2="102.626" gradientUnits="userSpaceOnUse">
<stop stop-color="#4FB2C6"/>
<stop offset="1" stop-color="#02419C"/>
</linearGradient>
<linearGradient id="paint43_linear" x1="203.7" y1="66.3798" x2="203.7" y2="77.0706" gradientUnits="userSpaceOnUse">
<stop stop-color="#4FB2C6"/>
<stop offset="1" stop-color="#02419C"/>
</linearGradient>
<linearGradient id="paint44_linear" x1="203.7" y1="69.0582" x2="203.7" y2="81.2924" gradientUnits="userSpaceOnUse">
<stop stop-color="#4FB2C6"/>
<stop offset="1" stop-color="#02419C"/>
</linearGradient>
<linearGradient id="paint45_linear" x1="203.7" y1="69.8101" x2="203.7" y2="86.5935" gradientUnits="userSpaceOnUse">
<stop stop-color="#4FB2C6"/>
<stop offset="1" stop-color="#02419C"/>
</linearGradient>
<linearGradient id="paint46_linear" x1="203.7" y1="73.0454" x2="203.7" y2="92.3477" gradientUnits="userSpaceOnUse">
<stop stop-color="#4FB2C6"/>
<stop offset="1" stop-color="#02419C"/>
</linearGradient>
<linearGradient id="paint47_linear" x1="203.7" y1="78.9685" x2="203.7" y2="102.626" gradientUnits="userSpaceOnUse">
<stop stop-color="#4FB2C6"/>
<stop offset="1" stop-color="#02419C"/>
</linearGradient>
<linearGradient id="paint48_linear" x1="217.019" y1="58.8993" x2="211.938" y2="78.1753" gradientUnits="userSpaceOnUse">
<stop stop-color="#FF487C"/>
<stop offset="1" stop-color="#FFADAA"/>
</linearGradient>
<linearGradient id="paint49_linear" x1="51.7636" y1="27.8495" x2="49.8858" y2="-29.0915" gradientUnits="userSpaceOnUse">
<stop stop-color="#E5FFFF"/>
<stop offset="1" stop-color="#25DBFF"/>
</linearGradient>
<linearGradient id="paint50_linear" x1="48.9973" y1="3.43428" x2="56.22" y2="67.8931" gradientUnits="userSpaceOnUse">
<stop stop-color="#E5FFFF"/>
<stop offset="1" stop-color="#5EC0FF"/>
</linearGradient>
<linearGradient id="paint51_linear" x1="59.0699" y1="23.3374" x2="49.9467" y2="46.5481" gradientUnits="userSpaceOnUse">
<stop stop-color="#5C4070"/>
<stop offset="1" stop-color="#391051"/>
</linearGradient>
<linearGradient id="paint52_linear" x1="49.6066" y1="39.2646" x2="49.7768" y2="39.4479" gradientUnits="userSpaceOnUse">
<stop stop-color="#5C4070"/>
<stop offset="1" stop-color="#391051"/>
</linearGradient>
<linearGradient id="paint53_linear" x1="53.8943" y1="39.3155" x2="54.2929" y2="39.7448" gradientUnits="userSpaceOnUse">
<stop stop-color="#5C4070"/>
<stop offset="1" stop-color="#391051"/>
</linearGradient>
<linearGradient id="paint54_linear" x1="52.9285" y1="49.6545" x2="51.4446" y2="24.7652" gradientUnits="userSpaceOnUse">
<stop stop-color="#302A7B"/>
<stop offset="0.9944" stop-color="#975189"/>
</linearGradient>
<linearGradient id="paint55_linear" x1="52.5381" y1="49.6118" x2="51.0617" y2="24.8479" gradientUnits="userSpaceOnUse">
<stop stop-color="#302A7B"/>
<stop offset="0.9944" stop-color="#975189"/>
</linearGradient>
<linearGradient id="paint56_linear" x1="48.2219" y1="2.50768" x2="56.7337" y2="40.7124" gradientUnits="userSpaceOnUse">
<stop stop-color="#5C4070"/>
<stop offset="1" stop-color="#391051"/>
</linearGradient>
<linearGradient id="paint57_linear" x1="55.8976" y1="36.0595" x2="51.4625" y2="20.0686" gradientUnits="userSpaceOnUse">
<stop stop-color="#302A7B"/>
<stop offset="0.9944" stop-color="#975189"/>
</linearGradient>
<linearGradient id="paint58_linear" x1="37.2158" y1="2.27253" x2="45.1794" y2="20.5482" gradientUnits="userSpaceOnUse">
<stop stop-color="#FF487C"/>
<stop offset="1" stop-color="#FFADAA"/>
</linearGradient>
<linearGradient id="paint59_linear" x1="164.665" y1="43.722" x2="193.051" y2="-49.2833" gradientUnits="userSpaceOnUse">
<stop stop-color="#E5FFFF"/>
<stop offset="1" stop-color="#5EC0FF"/>
</linearGradient>
<linearGradient id="paint60_linear" x1="171.304" y1="47.6874" x2="169.426" y2="28.8995" gradientUnits="userSpaceOnUse">
<stop stop-color="#2CEDB8"/>
<stop offset="1" stop-color="#A9FFB3"/>
</linearGradient>
<linearGradient id="paint61_linear" x1="158.591" y1="45.4839" x2="172.068" y2="1.32457" gradientUnits="userSpaceOnUse">
<stop stop-color="#FF487C"/>
<stop offset="1" stop-color="#FFADAA"/>
</linearGradient>
<linearGradient id="paint62_linear" x1="162.824" y1="24.9531" x2="165.723" y2="15.4539" gradientUnits="userSpaceOnUse">
<stop stop-color="#5C4070"/>
<stop offset="1" stop-color="#391051"/>
</linearGradient>
<linearGradient id="paint63_linear" x1="162.608" y1="40.3953" x2="164.193" y2="35.2018" gradientUnits="userSpaceOnUse">
<stop stop-color="#5C4070"/>
<stop offset="1" stop-color="#391051"/>
</linearGradient>
<linearGradient id="paint64_linear" x1="165.716" y1="81.5489" x2="161.188" y2="26.5805" gradientUnits="userSpaceOnUse">
<stop stop-color="#FF487C"/>
<stop offset="1" stop-color="#FFADAA"/>
</linearGradient>
<linearGradient id="paint65_linear" x1="172.451" y1="45.4846" x2="185.931" y2="1.32029" gradientUnits="userSpaceOnUse">
<stop stop-color="#FF487C"/>
<stop offset="1" stop-color="#FFADAA"/>
</linearGradient>
<linearGradient id="paint66_linear" x1="176.687" y1="24.9531" x2="179.586" y2="15.4539" gradientUnits="userSpaceOnUse">
<stop stop-color="#5C4070"/>
<stop offset="1" stop-color="#391051"/>
</linearGradient>
<linearGradient id="paint67_linear" x1="176.452" y1="40.0304" x2="179.135" y2="31.2408" gradientUnits="userSpaceOnUse">
<stop stop-color="#5C4070"/>
<stop offset="1" stop-color="#391051"/>
</linearGradient>
<linearGradient id="paint68_linear" x1="179.578" y1="81.549" x2="175.05" y2="26.5805" gradientUnits="userSpaceOnUse">
<stop stop-color="#FF487C"/>
<stop offset="1" stop-color="#FFADAA"/>
</linearGradient>
<linearGradient id="paint69_linear" x1="167.05" y1="31.1504" x2="175.326" y2="4.03364" gradientUnits="userSpaceOnUse">
<stop stop-color="#FF487C"/>
<stop offset="1" stop-color="#FFADAA"/>
</linearGradient>
<linearGradient id="paint70_linear" x1="180.116" y1="8.99368" x2="202.733" y2="32.1286" gradientUnits="userSpaceOnUse">
<stop stop-color="#FF487C"/>
<stop offset="1" stop-color="#FFADAA"/>
</linearGradient>
<linearGradient id="paint71_linear" x1="10.6194" y1="62.1349" x2="97.9632" y2="198.964" gradientUnits="userSpaceOnUse">
<stop stop-color="#E5FFFF"/>
<stop offset="1" stop-color="#25DBFF"/>
</linearGradient>
<linearGradient id="paint72_linear" x1="29.7134" y1="86.1584" x2="51.1544" y2="111.884" gradientUnits="userSpaceOnUse">
<stop stop-color="#FFE099"/>
<stop offset="1" stop-color="#F34C70"/>
</linearGradient>
<linearGradient id="paint73_linear" x1="26.5161" y1="79.7099" x2="42.7215" y2="110.276" gradientUnits="userSpaceOnUse">
<stop stop-color="#FFE099"/>
<stop offset="1" stop-color="#F34C70"/>
</linearGradient>
<linearGradient id="paint74_linear" x1="11.7491" y1="86.8065" x2="31.9878" y2="111.089" gradientUnits="userSpaceOnUse">
<stop stop-color="#FFE099"/>
<stop offset="1" stop-color="#F34C70"/>
</linearGradient>
<linearGradient id="paint75_linear" x1="9.65981" y1="82.4586" x2="21.1015" y2="104.039" gradientUnits="userSpaceOnUse">
<stop stop-color="#FFE099"/>
<stop offset="1" stop-color="#F34C70"/>
</linearGradient>
<linearGradient id="paint76_linear" x1="65.054" y1="86.29" x2="-16.7813" y2="107.121" gradientUnits="userSpaceOnUse">
<stop stop-color="#FFE099"/>
<stop offset="1" stop-color="#F34C70"/>
</linearGradient>
<linearGradient id="paint77_linear" x1="23.7365" y1="92.272" x2="5.3451" y2="116.648" gradientUnits="userSpaceOnUse">
<stop stop-color="#FFE099"/>
<stop offset="1" stop-color="#F34C70"/>
</linearGradient>
<linearGradient id="paint78_linear" x1="25.1419" y1="59.9768" x2="2.52479" y2="83.1116" gradientUnits="userSpaceOnUse">
<stop stop-color="#FF487C"/>
<stop offset="1" stop-color="#FFADAA"/>
</linearGradient>
</defs>
</svg>
