<svg width="583" height="213" viewBox="0 0 583 213" fill="none" xmlns="http://www.w3.org/2000/svg">
<g filter="url(#filter0_iiiii_203_5)">
<rect x="310" width="273" height="191" rx="66" fill="#F558A1"/>
</g>
<path d="M360.082 46.5625H371.84V105.762L403.832 72.334L411.557 79.8535L383.871 108.359L418.803 145H404.174L371.84 110.82V145H360.082V46.5625ZM449.075 46.3574C451.172 46.3574 452.995 47.0866 454.544 48.5449C456.048 50.14 456.8 52.0085 456.8 54.1504C456.8 56.3379 456.048 58.1836 454.544 59.6875C452.995 61.237 451.172 62.0117 449.075 62.0117C446.888 62.0117 445.019 61.237 443.47 59.6875C441.92 58.2292 441.146 56.3835 441.146 54.1504C441.146 51.9629 441.92 50.0944 443.47 48.5449C445.019 47.0866 446.888 46.3574 449.075 46.3574ZM443.06 73.9062H454.818V145H443.06V73.9062ZM496.848 57.6367H508.605V73.9062H532.531V83.8184H508.605V124.629C508.605 127.363 508.674 129.46 508.811 130.918C508.993 132.331 509.403 133.447 510.041 134.268C511.226 135.908 513.618 136.729 517.219 136.729C519.224 136.729 521.161 136.523 523.029 136.113C524.943 135.703 526.698 135.247 528.293 134.746C529.569 137.526 530.731 140.579 531.779 143.906C526.402 145.729 520.979 146.641 515.51 146.641C511.545 146.641 508.355 146.185 505.939 145.273C503.57 144.408 501.701 142.972 500.334 140.967C498.921 138.87 497.987 136.364 497.531 133.447C497.076 130.531 496.848 126.497 496.848 121.348V83.8184H486.594V73.9062H496.848V57.6367Z" fill="white"/>
<path d="M360.082 46.5625V41.0625H354.582V46.5625H360.082ZM371.84 46.5625H377.34V41.0625H371.84V46.5625ZM371.84 105.762H366.34V119.463L375.814 109.565L371.84 105.762ZM403.832 72.334L407.669 68.3929L403.694 64.5238L399.859 68.5312L403.832 72.334ZM411.557 79.8535L415.502 83.6854L419.33 79.7445L415.393 75.9125L411.557 79.8535ZM383.871 108.359L379.926 104.527L376.239 108.324L379.891 112.155L383.871 108.359ZM418.803 145V150.5H431.646L422.784 141.205L418.803 145ZM404.174 145L400.179 148.78L401.806 150.5H404.174V145ZM371.84 110.82L375.836 107.041L366.34 97.0031V110.82H371.84ZM371.84 145V150.5H377.34V145H371.84ZM360.082 145H354.582V150.5H360.082V145ZM360.082 52.0625H371.84V41.0625H360.082V52.0625ZM366.34 46.5625V105.762H377.34V46.5625H366.34ZM375.814 109.565L407.806 76.1368L399.859 68.5312L367.867 101.959L375.814 109.565ZM399.996 76.275L407.721 83.7946L415.393 75.9125L407.669 68.3929L399.996 76.275ZM407.612 76.0216L379.926 104.527L387.817 112.191L415.502 83.6854L407.612 76.0216ZM379.891 112.155L414.822 148.795L422.784 141.205L387.852 104.564L379.891 112.155ZM418.803 139.5H404.174V150.5H418.803V139.5ZM408.17 141.22L375.836 107.041L367.845 114.6L400.179 148.78L408.17 141.22ZM366.34 110.82V145H377.34V110.82H366.34ZM371.84 139.5H360.082V150.5H371.84V139.5ZM365.582 145V46.5625H354.582V145H365.582ZM454.544 48.5449L458.546 44.7719L458.433 44.6524L458.314 44.5398L454.544 48.5449ZM454.544 59.6875L450.655 55.7984L454.544 59.6875ZM443.47 59.6875L447.359 55.7984L447.3 55.7395L447.239 55.6824L443.47 59.6875ZM443.47 48.5449L439.7 44.5398L439.64 44.5969L439.581 44.6558L443.47 48.5449ZM443.06 73.9062V68.4062H437.56V73.9062H443.06ZM454.818 73.9062H460.318V68.4062H454.818V73.9062ZM454.818 145V150.5H460.318V145H454.818ZM443.06 145H437.56V150.5H443.06V145ZM449.075 51.8574C449.747 51.8574 450.228 52.0359 450.775 52.55L458.314 44.5398C455.761 42.1373 452.596 40.8574 449.075 40.8574V51.8574ZM450.542 52.318C451.109 52.9191 451.3 53.4474 451.3 54.1504H462.3C462.3 50.5696 460.987 47.3609 458.546 44.7719L450.542 52.318ZM451.3 54.1504C451.3 54.9257 451.095 55.3584 450.655 55.7984L458.433 63.5766C461.001 61.0088 462.3 57.75 462.3 54.1504H451.3ZM450.655 55.7984C450.085 56.3685 449.641 56.5117 449.075 56.5117V67.5117C452.702 67.5117 455.904 66.1055 458.433 63.5766L450.655 55.7984ZM449.075 56.5117C448.349 56.5117 447.879 56.3185 447.359 55.7984L439.581 63.5766C442.16 66.1555 445.426 67.5117 449.075 67.5117V56.5117ZM447.239 55.6824C446.854 55.3198 446.646 54.9513 446.646 54.1504H435.646C435.646 57.8157 436.987 61.1385 439.7 63.6926L447.239 55.6824ZM446.646 54.1504C446.646 53.4244 446.839 52.9541 447.359 52.434L439.581 44.6558C437.002 47.2347 435.646 50.5014 435.646 54.1504H446.646ZM447.239 52.55C447.737 52.0814 448.245 51.8574 449.075 51.8574V40.8574C445.53 40.8574 442.301 42.0918 439.7 44.5398L447.239 52.55ZM443.06 79.4062H454.818V68.4062H443.06V79.4062ZM449.318 73.9062V145H460.318V73.9062H449.318ZM454.818 139.5H443.06V150.5H454.818V139.5ZM448.56 145V73.9062H437.56V145H448.56ZM496.848 57.6367V52.1367H491.348V57.6367H496.848ZM508.605 57.6367H514.105V52.1367H508.605V57.6367ZM508.605 73.9062H503.105V79.4062H508.605V73.9062ZM532.531 73.9062H538.031V68.4062H532.531V73.9062ZM532.531 83.8184V89.3184H538.031V83.8184H532.531ZM508.605 83.8184V78.3184H503.105V83.8184H508.605ZM508.811 130.918L503.335 131.431L503.344 131.527L503.356 131.622L508.811 130.918ZM510.041 134.268L514.5 131.047L514.443 130.968L514.382 130.891L510.041 134.268ZM523.029 136.113L521.877 130.735L521.863 130.738L521.85 130.741L523.029 136.113ZM528.293 134.746L533.292 132.452L531.269 128.046L526.644 129.499L528.293 134.746ZM531.779 143.906L533.545 149.115L538.643 147.387L537.025 142.253L531.779 143.906ZM505.939 145.273L507.881 140.128L507.854 140.117L507.827 140.107L505.939 145.273ZM500.334 140.967L495.773 144.04L495.781 144.053L495.79 144.065L500.334 140.967ZM496.848 83.8184H502.348V78.3184H496.848V83.8184ZM486.594 83.8184H481.094V89.3184H486.594V83.8184ZM486.594 73.9062V68.4062H481.094V73.9062H486.594ZM496.848 73.9062V79.4062H502.348V73.9062H496.848ZM496.848 63.1367H508.605V52.1367H496.848V63.1367ZM503.105 57.6367V73.9062H514.105V57.6367H503.105ZM508.605 79.4062H532.531V68.4062H508.605V79.4062ZM527.031 73.9062V83.8184H538.031V73.9062H527.031ZM532.531 78.3184H508.605V89.3184H532.531V78.3184ZM503.105 83.8184V124.629H514.105V83.8184H503.105ZM503.105 124.629C503.105 127.415 503.174 129.715 503.335 131.431L514.287 130.405C514.174 129.205 514.105 127.311 514.105 124.629H503.105ZM503.356 131.622C503.619 133.662 504.275 135.813 505.7 137.644L514.382 130.891C514.458 130.988 514.455 131.02 514.418 130.918C514.379 130.812 514.314 130.591 514.265 130.214L503.356 131.622ZM505.582 137.488C508.39 141.375 513.184 142.229 517.219 142.229V131.229C515.79 131.229 514.943 131.06 514.508 130.911C514.116 130.776 514.277 130.739 514.5 131.047L505.582 137.488ZM517.219 142.229C519.601 142.229 521.935 141.985 524.209 141.485L521.85 130.741C520.387 131.062 518.846 131.229 517.219 131.229V142.229ZM524.182 141.491C526.236 141.051 528.159 140.553 529.942 139.993L526.644 129.499C525.237 129.941 523.651 130.355 521.877 130.735L524.182 141.491ZM523.294 137.041C524.463 139.585 525.545 142.421 526.534 145.559L537.025 142.253C535.917 138.738 534.675 135.467 533.292 132.452L523.294 137.041ZM530.014 138.697C525.183 140.335 520.355 141.141 515.51 141.141V152.141C521.602 152.141 527.621 151.123 533.545 149.115L530.014 138.697ZM515.51 141.141C511.891 141.141 509.436 140.714 507.881 140.128L503.998 150.419C507.274 151.656 511.199 152.141 515.51 152.141V141.141ZM507.827 140.107C506.492 139.62 505.571 138.884 504.878 137.868L495.79 144.065C497.831 147.06 500.648 149.196 504.052 150.439L507.827 140.107ZM504.895 137.893C504.002 136.568 503.317 134.851 502.965 132.598L492.097 134.296C492.657 137.877 493.84 141.172 495.773 144.04L504.895 137.893ZM502.965 132.598C502.574 130.095 502.348 126.389 502.348 121.348H491.348C491.348 126.606 491.577 130.966 492.097 134.296L502.965 132.598ZM502.348 121.348V83.8184H491.348V121.348H502.348ZM496.848 78.3184H486.594V89.3184H496.848V78.3184ZM492.094 83.8184V73.9062H481.094V83.8184H492.094ZM486.594 79.4062H496.848V68.4062H486.594V79.4062ZM502.348 73.9062V57.6367H491.348V73.9062H502.348Z" fill="white"/>
<path d="M42.442 82.8149C46.2057 82.8149 49.9694 83.2051 53.733 83.9854C57.5426 84.7656 61.0768 85.8442 64.3356 87.2212C63.693 88.6899 63.0275 90.1357 62.339 91.5586C61.6505 92.9814 60.8932 94.3813 60.067 95.7583C58.9196 95.2993 57.6344 94.8403 56.2115 94.3813C54.8346 93.9224 53.3658 93.5322 51.8053 93.2109C50.2906 92.8896 48.7072 92.6372 47.0548 92.4536C45.4484 92.2241 43.8649 92.1094 42.3043 92.1094C40.6061 92.1094 38.9537 92.293 37.3473 92.6602C35.7867 92.9814 34.3868 93.5322 33.1476 94.3125C31.9542 95.0928 30.9904 96.1255 30.256 97.4106C29.5216 98.6499 29.1544 100.21 29.1544 102.092C29.1544 104.02 29.5675 105.649 30.3937 106.98C31.2198 108.266 32.3444 109.344 33.7672 110.216C35.1901 111.088 36.8424 111.823 38.7242 112.419C40.652 113.016 42.6945 113.567 44.8517 114.072C48.2023 114.898 51.3234 115.839 54.215 116.895C57.1066 117.904 59.608 119.235 61.7194 120.888C63.8307 122.54 65.483 124.583 66.6764 127.015C67.8698 129.448 68.4664 132.454 68.4664 136.034C68.4664 139.798 67.7091 143.034 66.1945 145.742C64.7257 148.45 62.7062 150.699 60.1359 152.489C57.6115 154.233 54.651 155.518 51.2545 156.344C47.858 157.216 44.2321 157.652 40.3766 157.652C38.3571 157.652 36.2687 157.515 34.1115 157.239C32.0001 157.01 29.8888 156.643 27.7775 156.138C25.712 155.679 23.6696 155.105 21.65 154.417C19.6305 153.728 17.7257 152.971 15.9357 152.145C16.5782 150.676 17.2438 149.253 17.9323 147.876C18.6666 146.453 19.424 145.053 20.2042 143.676C21.7189 144.319 23.3253 144.938 25.0236 145.535C26.7218 146.086 28.4659 146.568 30.256 146.981C32.046 147.394 33.8131 147.738 35.5573 148.014C37.3014 148.243 38.9767 148.358 40.5831 148.358C42.6027 148.358 44.5533 148.128 46.4352 147.669C48.3629 147.21 50.0612 146.499 51.5299 145.535C53.0446 144.525 54.2379 143.24 55.11 141.68C56.028 140.119 56.4869 138.237 56.4869 136.034C56.4869 133.969 56.0509 132.271 55.1788 130.939C54.3527 129.608 53.2281 128.507 51.8053 127.635C50.3824 126.717 48.7072 125.982 46.7794 125.432C44.8976 124.835 42.901 124.284 40.7897 123.779C37.5768 122.999 34.5245 122.104 31.6329 121.094C28.7872 120.084 26.2858 118.776 24.1285 117.17C22.0172 115.518 20.319 113.498 19.0338 111.111C17.7946 108.679 17.1749 105.672 17.1749 102.092C17.1749 98.7417 17.8634 95.8501 19.2404 93.4175C20.6173 90.9849 22.4532 88.9883 24.7482 87.4277C27.089 85.8672 29.774 84.7197 32.8033 83.9854C35.8785 83.2051 39.0914 82.8149 42.442 82.8149ZM98.3353 56.8594H110.177V116.481L142.398 82.8149L150.178 90.3882L122.294 119.098L157.475 156H142.742L110.177 121.576V156H98.3353V56.8594ZM187.964 56.6528C190.075 56.6528 191.911 57.3872 193.472 58.856C194.986 60.4624 195.744 62.3442 195.744 64.5015C195.744 66.7046 194.986 68.5635 193.472 70.0781C191.911 71.6387 190.075 72.4189 187.964 72.4189C185.761 72.4189 183.879 71.6387 182.318 70.0781C180.758 68.6094 179.978 66.7505 179.978 64.5015C179.978 62.2983 180.758 60.4165 182.318 58.856C183.879 57.3872 185.761 56.6528 187.964 56.6528ZM181.905 84.3984H193.747V156H181.905V84.3984ZM239.658 128.186C239.658 131.949 239.703 135.116 239.795 137.687C239.887 140.211 240.002 142.437 240.139 144.365C240.277 146.292 240.484 148.037 240.759 149.597C241.08 151.158 241.47 152.879 241.929 154.761C240.002 155.266 238.074 155.725 236.146 156.138C234.219 156.597 232.291 156.987 230.363 157.308C229.445 154.325 228.78 151.594 228.366 149.115C227.999 146.637 227.816 144.204 227.816 141.817V56.9971H239.658V128.186ZM283.709 128.186C283.709 131.949 283.755 135.116 283.847 137.687C283.938 140.211 284.053 142.437 284.191 144.365C284.329 146.292 284.535 148.037 284.811 149.597C285.132 151.158 285.522 152.879 285.981 154.761C284.053 155.266 282.125 155.725 280.198 156.138C278.27 156.597 276.342 156.987 274.415 157.308C273.497 154.325 272.831 151.594 272.418 149.115C272.051 146.637 271.867 144.204 271.867 141.817V56.9971H283.709V128.186Z" fill="#1F2029"/>
<path d="M53.733 83.9854L52.6165 89.3708L52.6294 89.3735L53.733 83.9854ZM64.3356 87.2212L69.3744 89.4257L71.607 84.3228L66.4763 82.1549L64.3356 87.2212ZM60.067 95.7583L58.0244 100.865L62.3733 102.605L64.7832 98.588L60.067 95.7583ZM56.2115 94.3813L54.4723 99.5991L54.4976 99.6076L54.523 99.6157L56.2115 94.3813ZM51.8053 93.2109L50.664 98.5912L50.6801 98.5946L50.6962 98.598L51.8053 93.2109ZM47.0548 92.4536L46.277 97.8983L46.362 97.9105L46.4474 97.92L47.0548 92.4536ZM37.3473 92.6602L38.4564 98.0472L38.5147 98.0352L38.5728 98.0219L37.3473 92.6602ZM33.1476 94.3125L30.2171 89.6582L30.1772 89.6834L30.1377 89.7092L33.1476 94.3125ZM30.256 97.4106L34.9876 100.215L35.0098 100.177L35.0313 100.139L30.256 97.4106ZM30.3937 106.98L25.7207 109.881L25.7436 109.918L25.7672 109.955L30.3937 106.98ZM38.7242 112.419L37.0619 117.662L37.0799 117.668L37.098 117.674L38.7242 112.419ZM44.8517 114.072L46.1684 108.732L46.1368 108.724L46.105 108.716L44.8517 114.072ZM54.215 116.895L52.3288 122.061L52.3652 122.074L52.4017 122.087L54.215 116.895ZM66.1945 145.742L61.3943 143.057L61.3768 143.088L61.3598 143.119L66.1945 145.742ZM60.1359 152.489L63.2622 157.014L63.2707 157.008L63.2791 157.002L60.1359 152.489ZM51.2545 156.344L49.9546 151L49.9206 151.008L49.8867 151.017L51.2545 156.344ZM34.1115 157.239L34.8079 151.784L34.7569 151.777L34.7058 151.771L34.1115 157.239ZM27.7775 156.138L29.0566 150.789L29.0137 150.778L28.9706 150.769L27.7775 156.138ZM15.9357 152.145L10.8968 149.94L8.73595 154.879L13.6308 157.138L15.9357 152.145ZM17.9323 147.876L13.0448 145.353L13.0287 145.385L13.0129 145.416L17.9323 147.876ZM20.2042 143.676L22.3522 138.613L17.8371 136.698L15.4191 140.965L20.2042 143.676ZM25.0236 145.535L23.2004 150.724L23.2633 150.746L23.3268 150.767L25.0236 145.535ZM35.5573 148.014L34.6995 153.446L34.7695 153.457L34.8398 153.467L35.5573 148.014ZM46.4352 147.669L45.1613 142.319L45.1466 142.322L45.1319 142.326L46.4352 147.669ZM51.5299 145.535L54.5475 150.133L54.5642 150.122L54.5808 150.111L51.5299 145.535ZM55.11 141.68L50.3693 138.891L50.3385 138.944L50.3088 138.997L55.11 141.68ZM55.1788 130.939L50.5058 133.84L50.5414 133.897L50.5783 133.954L55.1788 130.939ZM51.8053 127.635L48.8236 132.256L48.877 132.291L48.9312 132.324L51.8053 127.635ZM46.7794 125.432L45.1171 130.674L45.1924 130.698L45.2685 130.72L46.7794 125.432ZM40.7897 123.779L39.4917 129.124L39.5011 129.126L39.5105 129.128L40.7897 123.779ZM31.6329 121.094L29.7937 126.278L29.8067 126.282L29.8197 126.287L31.6329 121.094ZM24.1285 117.17L20.7388 121.501L20.7907 121.542L20.8436 121.581L24.1285 117.17ZM19.0338 111.111L14.1331 113.608L14.1615 113.664L14.1912 113.719L19.0338 111.111ZM24.7482 87.4277L21.6973 82.8515L21.6763 82.8655L21.6555 82.8796L24.7482 87.4277ZM32.8033 83.9854L34.0991 89.3305L34.1276 89.3236L34.156 89.3164L32.8033 83.9854ZM42.442 88.3149C45.8227 88.3149 49.2123 88.6651 52.6165 89.3708L54.8495 78.5999C50.7264 77.7451 46.5887 77.3149 42.442 77.3149V88.3149ZM52.6294 89.3735C56.1182 90.0881 59.3014 91.0649 62.1949 92.2875L66.4763 82.1549C62.8522 80.6236 58.967 79.4432 54.8366 78.5972L52.6294 89.3735ZM59.2967 85.0167C58.6818 86.4221 58.0456 87.8042 57.3881 89.163L67.2899 93.9542C68.0093 92.4673 68.7041 90.9578 69.3744 89.4257L59.2967 85.0167ZM57.3881 89.163C56.7724 90.4354 56.0936 91.6905 55.3508 92.9286L64.7832 98.588C65.6927 97.0722 66.5286 95.5275 67.2899 93.9542L57.3881 89.163ZM62.1097 90.6517C60.8246 90.1376 59.4186 89.6368 57.9001 89.1469L54.523 99.6157C55.8502 100.044 57.0146 100.461 58.0244 100.865L62.1097 90.6517ZM57.9508 89.1636C56.3485 88.6295 54.6678 88.1849 52.9144 87.8239L50.6962 98.598C52.0639 98.8795 53.3207 99.2152 54.4723 99.5991L57.9508 89.1636ZM52.9466 87.8307C51.2431 87.4693 49.4808 87.1893 47.6622 86.9873L46.4474 97.92C47.9335 98.0851 49.3382 98.31 50.664 98.5912L52.9466 87.8307ZM47.8326 87.0089C45.9787 86.7441 44.1352 86.6094 42.3043 86.6094V97.6094C43.5945 97.6094 44.918 97.7042 46.277 97.8983L47.8326 87.0089ZM42.3043 86.6094C40.2063 86.6094 38.1424 86.8366 36.1218 87.2984L38.5728 98.0219C39.7651 97.7494 41.0059 97.6094 42.3043 97.6094V86.6094ZM36.2382 87.2731C34.0885 87.7157 32.0618 88.4967 30.2171 89.6582L36.0781 98.9668C36.7119 98.5677 37.485 98.2472 38.4564 98.0472L36.2382 87.2731ZM30.1377 89.7092C28.1876 90.9842 26.6299 92.6707 25.4806 94.6819L35.0313 100.139C35.3508 99.5802 35.7208 99.2013 36.1575 98.9158L30.1377 89.7092ZM25.5244 94.6067C24.1554 96.917 23.6544 99.5188 23.6544 102.092H34.6544C34.6544 100.902 34.8879 100.383 34.9876 100.215L25.5244 94.6067ZM23.6544 102.092C23.6544 104.809 24.2416 107.498 25.7207 109.881L35.0667 104.08C34.8934 103.801 34.6544 103.231 34.6544 102.092H23.6544ZM25.7672 109.955C27.0811 111.999 28.8306 113.642 30.8931 114.906L36.6413 105.527C35.8581 105.047 35.3586 104.533 35.0202 104.006L25.7672 109.955ZM30.8931 114.906C32.7577 116.048 34.8302 116.955 37.0619 117.662L40.3866 107.177C38.8546 106.691 37.6224 106.128 36.6413 105.527L30.8931 114.906ZM37.098 117.674C39.16 118.312 41.3276 118.896 43.5983 119.427L46.105 108.716C44.0613 108.238 42.1439 107.72 40.3505 107.165L37.098 117.674ZM43.535 119.412C46.7154 120.196 49.6445 121.081 52.3288 122.061L56.1011 111.728C53.0023 110.597 49.6891 109.6 46.1684 108.732L43.535 119.412ZM52.4017 122.087C54.804 122.926 56.7553 123.987 58.3297 125.219L65.1091 116.556C62.4607 114.484 59.4092 112.883 56.0282 111.702L52.4017 122.087ZM58.3297 125.219C59.7804 126.354 60.9066 127.742 61.7385 129.437L71.6142 124.593C70.0595 121.423 67.881 118.726 65.1091 116.556L58.3297 125.219ZM61.7385 129.437C62.463 130.914 62.9664 133.035 62.9664 136.034H73.9664C73.9664 131.873 73.2765 127.981 71.6142 124.593L61.7385 129.437ZM62.9664 136.034C62.9664 139.057 62.3617 141.327 61.3943 143.057L70.9946 148.427C73.0565 144.74 73.9664 140.539 73.9664 136.034H62.9664ZM61.3598 143.119C60.3068 145.061 58.8717 146.667 56.9926 147.975L63.2791 157.002C66.5407 154.731 69.1446 151.838 71.0291 148.364L61.3598 143.119ZM57.0095 147.964C55.1101 149.276 52.7874 150.311 49.9546 151L52.5545 161.688C56.5146 160.725 60.1128 159.19 63.2622 157.014L57.0095 147.964ZM49.8867 151.017C46.979 151.764 43.816 152.152 40.3766 152.152V163.152C44.6481 163.152 48.7371 162.669 52.6223 161.671L49.8867 151.017ZM40.3766 152.152C38.6069 152.152 36.7516 152.032 34.8079 151.784L33.415 162.695C35.7857 162.998 38.1072 163.152 40.3766 163.152V152.152ZM34.7058 151.771C32.83 151.568 30.9474 151.241 29.0566 150.789L26.4983 161.487C28.8302 162.045 31.1702 162.452 33.5171 162.707L34.7058 151.771ZM28.9706 150.769C27.1035 150.354 25.2551 149.835 23.4247 149.211L19.8753 159.622C22.084 160.375 24.3206 161.004 26.5843 161.507L28.9706 150.769ZM23.4247 149.211C21.5709 148.579 19.8442 147.891 18.2405 147.151L13.6308 157.138C15.6072 158.05 17.6901 158.877 19.8753 159.622L23.4247 149.211ZM20.9745 154.349C21.581 152.963 22.2068 151.625 22.8516 150.336L13.0129 145.416C12.2807 146.881 11.5755 148.389 10.8968 149.94L20.9745 154.349ZM22.8197 150.399C23.5216 149.039 24.2448 147.702 24.9893 146.388L15.4191 140.965C14.6031 142.405 13.8117 143.868 13.0448 145.353L22.8197 150.399ZM18.0562 148.739C19.6872 149.431 21.4026 150.093 23.2004 150.724L26.8467 140.346C25.248 139.784 23.7506 139.206 22.3522 138.613L18.0562 148.739ZM23.3268 150.767C25.1808 151.368 27.0786 151.892 29.0193 152.34L31.4927 141.622C29.8533 141.243 28.2628 140.804 26.7203 140.303L23.3268 150.767ZM29.0193 152.34C30.9297 152.781 32.8232 153.15 34.6995 153.446L36.415 142.581C34.803 142.326 33.1624 142.007 31.4927 141.622L29.0193 152.34ZM34.8398 153.467C36.7996 153.725 38.7154 153.858 40.5831 153.858V142.858C39.238 142.858 37.8032 142.762 36.2747 142.561L34.8398 153.467ZM40.5831 153.858C43.0231 153.858 45.4122 153.58 47.7384 153.013L45.1319 142.326C43.6945 142.677 42.1823 142.858 40.5831 142.858V153.858ZM47.7091 153.02C50.1786 152.432 52.4819 151.489 54.5475 150.133L48.5123 140.937C47.6404 141.509 46.5472 141.989 45.1613 142.319L47.7091 153.02ZM54.5808 150.111C56.8069 148.627 58.6059 146.698 59.9112 144.363L50.3088 138.997C49.8699 139.782 49.2823 140.423 48.4791 140.959L54.5808 150.111ZM59.8506 144.468C61.3634 141.897 61.9869 139.006 61.9869 136.034H50.9869C50.9869 137.469 50.6925 138.342 50.3693 138.891L59.8506 144.468ZM61.9869 136.034C61.9869 133.213 61.3899 130.384 59.7794 127.925L50.5783 133.954C50.7119 134.157 50.9869 134.725 50.9869 136.034H61.9869ZM59.8519 128.039C58.5443 125.932 56.7842 124.236 54.6794 122.945L48.9312 132.324C49.6721 132.778 50.161 133.284 50.5058 133.84L59.8519 128.039ZM54.787 123.013C52.8348 121.754 50.6456 120.816 48.2904 120.143L45.2685 130.72C46.7687 131.149 47.9301 131.68 48.8236 132.256L54.787 123.013ZM48.4418 120.189C46.4218 119.548 44.2966 118.963 42.0688 118.43L39.5105 129.128C41.5054 129.606 43.3734 130.122 45.1171 130.674L48.4418 120.189ZM42.0877 118.435C39.0353 117.693 36.1559 116.848 33.4462 115.902L29.8197 126.287C32.8932 127.36 36.1183 128.305 39.4917 129.124L42.0877 118.435ZM33.4722 115.911C31.0816 115.063 29.0798 114 27.4135 112.759L20.8436 121.581C23.4917 123.553 26.4928 125.106 29.7937 126.278L33.4722 115.911ZM27.5182 112.839C26.0118 111.66 24.8056 110.229 23.8764 108.504L14.1912 113.719C15.8324 116.767 18.0226 119.375 20.7388 121.501L27.5182 112.839ZM23.9345 108.615C23.1924 107.158 22.6749 105.065 22.6749 102.092H11.6749C11.6749 106.28 12.3967 110.199 14.1331 113.608L23.9345 108.615ZM22.6749 102.092C22.6749 99.5027 23.2024 97.5831 24.0268 96.1268L14.4539 90.7082C12.5244 94.1171 11.6749 97.9807 11.6749 102.092H22.6749ZM24.0268 96.1268C24.9909 94.4235 26.2494 93.058 27.8409 91.9758L21.6555 82.8796C18.6571 84.9185 16.2437 87.5463 14.4539 90.7082L24.0268 96.1268ZM27.799 92.004C29.5496 90.8369 31.6281 89.9296 34.0991 89.3305L31.5075 78.6402C27.92 79.5099 24.6284 80.8974 21.6973 82.8515L27.799 92.004ZM34.156 89.3164C36.765 88.6544 39.5221 88.3149 42.442 88.3149V77.3149C38.6608 77.3149 34.9921 77.7557 31.4507 78.6543L34.156 89.3164ZM98.3353 56.8594V51.3594H92.8353V56.8594H98.3353ZM110.177 56.8594H115.677V51.3594H110.177V56.8594ZM110.177 116.481H104.677V130.183L114.151 120.284L110.177 116.481ZM142.398 82.8149L146.234 78.8739L142.26 75.0048L138.424 79.0121L142.398 82.8149ZM150.178 90.3882L154.123 94.2201L157.951 90.2792L154.014 86.4471L150.178 90.3882ZM122.294 119.098L118.349 115.266L114.662 119.062L118.313 122.893L122.294 119.098ZM157.475 156V161.5H170.318L161.456 152.205L157.475 156ZM142.742 156L138.747 159.78L140.374 161.5H142.742V156ZM110.177 121.576L114.173 117.796L104.677 107.759V121.576H110.177ZM110.177 156V161.5H115.677V156H110.177ZM98.3353 156H92.8353V161.5H98.3353V156ZM98.3353 62.3594H110.177V51.3594H98.3353V62.3594ZM104.677 56.8594V116.481H115.677V56.8594H104.677ZM114.151 120.284L146.371 86.6178L138.424 79.0121L106.204 112.679L114.151 120.284ZM138.561 86.756L146.341 94.3292L154.014 86.4471L146.234 78.8739L138.561 86.756ZM146.232 86.5563L118.349 115.266L126.24 122.93L154.123 94.2201L146.232 86.5563ZM118.313 122.893L153.495 159.795L161.456 152.205L126.275 115.303L118.313 122.893ZM157.475 150.5H142.742V161.5H157.475V150.5ZM146.738 152.22L114.173 117.796L106.182 125.356L138.747 159.78L146.738 152.22ZM104.677 121.576V156H115.677V121.576H104.677ZM110.177 150.5H98.3353V161.5H110.177V150.5ZM103.835 156V56.8594H92.8353V156H103.835ZM193.472 58.856L197.473 55.0829L197.361 54.9634L197.241 54.8509L193.472 58.856ZM182.318 70.0781L186.208 66.189L186.149 66.1301L186.088 66.073L182.318 70.0781ZM182.318 58.856L178.549 54.8509L178.488 54.908L178.429 54.9669L182.318 58.856ZM181.905 84.3984V78.8984H176.405V84.3984H181.905ZM193.747 84.3984H199.247V78.8984H193.747V84.3984ZM193.747 156V161.5H199.247V156H193.747ZM181.905 156H176.405V161.5H181.905V156ZM187.964 62.1528C188.651 62.1528 189.145 62.3365 189.702 62.8611L197.241 54.8509C194.677 52.4379 191.5 51.1528 187.964 51.1528V62.1528ZM189.47 62.629C190.047 63.2415 190.244 63.7831 190.244 64.5015H201.244C201.244 60.9053 199.925 57.6833 197.473 55.0829L189.47 62.629ZM190.244 64.5015C190.244 65.2924 190.033 65.7383 189.583 66.189L197.361 73.9672C199.939 71.3887 201.244 68.1167 201.244 64.5015H190.244ZM189.583 66.189C189.002 66.7702 188.545 66.9189 187.964 66.9189V77.9189C191.606 77.9189 194.821 76.5072 197.361 73.9672L189.583 66.189ZM187.964 66.9189C187.222 66.9189 186.739 66.7201 186.208 66.189L178.429 73.9672C181.019 76.5572 184.299 77.9189 187.964 77.9189V66.9189ZM186.088 66.073C185.692 65.7 185.478 65.3183 185.478 64.5015H174.478C174.478 68.1827 175.824 71.5187 178.549 74.0832L186.088 66.073ZM185.478 64.5015C185.478 63.7599 185.676 63.2762 186.208 62.745L178.429 54.9669C175.839 57.5569 174.478 60.8368 174.478 64.5015H185.478ZM186.088 62.8611C186.597 62.382 187.118 62.1528 187.964 62.1528V51.1528C184.403 51.1528 181.161 52.3924 178.549 54.8509L186.088 62.8611ZM181.905 89.8984H193.747V78.8984H181.905V89.8984ZM188.247 84.3984V156H199.247V84.3984H188.247ZM193.747 150.5H181.905V161.5H193.747V150.5ZM187.405 156V84.3984H176.405V156H187.405ZM239.795 137.687L234.299 137.883L234.299 137.886L239.795 137.687ZM240.759 149.597L235.343 150.553L235.356 150.63L235.372 150.706L240.759 149.597ZM241.929 154.761L243.323 160.081L248.554 158.711L247.273 153.457L241.929 154.761ZM236.146 156.138L234.994 150.76L234.933 150.773L234.872 150.787L236.146 156.138ZM230.363 157.308L225.106 158.926L226.521 163.524L231.267 162.733L230.363 157.308ZM228.366 149.115L222.926 149.921L222.933 149.97L222.941 150.019L228.366 149.115ZM227.816 56.9971V51.4971H222.316V56.9971H227.816ZM239.658 56.9971H245.158V51.4971H239.658V56.9971ZM234.158 128.186C234.158 131.988 234.204 135.225 234.299 137.883L245.292 137.49C245.203 135.008 245.158 131.911 245.158 128.186H234.158ZM234.299 137.886C234.392 140.457 234.51 142.749 234.653 144.757L245.625 143.973C245.493 142.125 245.382 139.965 245.292 137.487L234.299 137.886ZM234.653 144.757C234.802 146.834 235.028 148.771 235.343 150.553L246.175 148.641C245.939 147.303 245.752 145.751 245.625 143.973L234.653 144.757ZM235.372 150.706C235.709 152.344 236.115 154.131 236.586 156.064L247.273 153.457C246.826 151.627 246.452 149.972 246.146 148.488L235.372 150.706ZM240.536 149.44C238.687 149.924 236.84 150.364 234.994 150.76L237.299 161.516C239.308 161.085 241.316 160.607 243.323 160.081L240.536 149.44ZM234.872 150.787C233.065 151.218 231.261 151.583 229.459 151.883L231.267 162.733C233.321 162.391 235.372 161.976 237.42 161.488L234.872 150.787ZM235.62 155.691C234.757 152.888 234.156 150.399 233.792 148.211L222.941 150.019C223.403 152.789 224.133 155.762 225.106 158.926L235.62 155.691ZM233.807 148.309C233.477 146.084 233.316 143.921 233.316 141.817H222.316C222.316 144.487 222.521 147.189 222.926 149.921L233.807 148.309ZM233.316 141.817V56.9971H222.316V141.817H233.316ZM227.816 62.4971H239.658V51.4971H227.816V62.4971ZM234.158 56.9971V128.186H245.158V56.9971H234.158ZM283.847 137.687L278.35 137.883L278.35 137.886L283.847 137.687ZM284.811 149.597L279.394 150.553L279.408 150.63L279.424 150.706L284.811 149.597ZM285.981 154.761L287.374 160.081L292.606 158.711L291.324 153.457L285.981 154.761ZM280.198 156.138L279.045 150.76L278.984 150.773L278.924 150.787L280.198 156.138ZM274.415 157.308L269.158 158.926L270.573 163.524L275.319 162.733L274.415 157.308ZM272.418 149.115L266.977 149.921L266.985 149.97L266.993 150.019L272.418 149.115ZM271.867 56.9971V51.4971H266.367V56.9971H271.867ZM283.709 56.9971H289.209V51.4971H283.709V56.9971ZM278.209 128.186C278.209 131.988 278.255 135.225 278.35 137.883L289.343 137.49C289.255 135.008 289.209 131.911 289.209 128.186H278.209ZM278.35 137.886C278.444 140.457 278.561 142.749 278.705 144.757L289.677 143.973C289.545 142.125 289.433 139.965 289.343 137.487L278.35 137.886ZM278.705 144.757C278.853 146.834 279.08 148.771 279.394 150.553L290.227 148.641C289.991 147.303 289.804 145.751 289.677 143.973L278.705 144.757ZM279.424 150.706C279.761 152.344 280.166 154.131 280.638 156.064L291.324 153.457C290.878 151.627 290.503 149.972 290.198 148.488L279.424 150.706ZM284.587 149.44C282.739 149.924 280.891 150.364 279.045 150.76L281.35 161.516C283.36 161.085 285.368 160.607 287.374 160.081L284.587 149.44ZM278.924 150.787C277.117 151.218 275.312 151.583 273.51 151.883L275.319 162.733C277.372 162.391 279.423 161.976 281.472 161.488L278.924 150.787ZM279.671 155.691C278.809 152.888 278.208 150.399 277.843 148.211L266.993 150.019C267.454 152.789 268.184 155.762 269.158 158.926L279.671 155.691ZM277.859 148.309C277.529 146.084 277.367 143.921 277.367 141.817H266.367C266.367 144.487 266.573 147.189 266.977 149.921L277.859 148.309ZM277.367 141.817V56.9971H266.367V141.817H277.367ZM271.867 62.4971H283.709V51.4971H271.867V62.4971ZM278.209 56.9971V128.186H289.209V56.9971H278.209Z" fill="#1F2029"/>
<path d="M18.322 204.38C17.0553 204.38 15.9027 204.127 14.864 203.62C13.8253 203.113 12.9893 202.429 12.356 201.568C11.7227 200.707 11.406 199.731 11.406 198.642C11.406 196.894 12.1153 195.501 13.534 194.462C14.9527 193.423 16.802 192.739 19.082 192.41L24.744 191.612V190.51C24.744 189.294 24.3893 188.344 23.68 187.66C22.996 186.976 21.8687 186.634 20.298 186.634C19.158 186.634 18.2333 186.862 17.524 187.318C16.84 187.774 16.3587 188.357 16.08 189.066C15.928 189.446 15.662 189.636 15.282 189.636H13.572C13.2933 189.636 13.078 189.56 12.926 189.408C12.7993 189.231 12.736 189.028 12.736 188.8C12.736 188.42 12.8753 187.951 13.154 187.394C13.458 186.837 13.914 186.292 14.522 185.76C15.13 185.228 15.9027 184.785 16.84 184.43C17.8027 184.05 18.968 183.86 20.336 183.86C21.856 183.86 23.1353 184.063 24.174 184.468C25.2127 184.848 26.0233 185.367 26.606 186.026C27.214 186.685 27.6447 187.432 27.898 188.268C28.1767 189.104 28.316 189.953 28.316 190.814V203.126C28.316 203.379 28.2273 203.595 28.05 203.772C27.898 203.924 27.6953 204 27.442 204H25.694C25.4153 204 25.2 203.924 25.048 203.772C24.896 203.595 24.82 203.379 24.82 203.126V201.492C24.4907 201.948 24.0473 202.404 23.49 202.86C22.9327 203.291 22.236 203.658 21.4 203.962C20.564 204.241 19.538 204.38 18.322 204.38ZM19.12 201.53C20.1587 201.53 21.1087 201.315 21.97 200.884C22.8313 200.428 23.5027 199.731 23.984 198.794C24.4907 197.857 24.744 196.679 24.744 195.26V194.196L20.336 194.842C18.5373 195.095 17.182 195.526 16.27 196.134C15.358 196.717 14.902 197.464 14.902 198.376C14.902 199.085 15.1047 199.681 15.51 200.162C15.9407 200.618 16.4727 200.96 17.106 201.188C17.7647 201.416 18.436 201.53 19.12 201.53ZM33.7408 204C33.4875 204 33.2721 203.924 33.0948 203.772C32.9428 203.595 32.8668 203.379 32.8668 203.126V177.894C32.8668 177.641 32.9428 177.438 33.0948 177.286C33.2721 177.109 33.4875 177.02 33.7408 177.02H35.5268C35.8055 177.02 36.0208 177.109 36.1728 177.286C36.3248 177.438 36.4008 177.641 36.4008 177.894V203.126C36.4008 203.379 36.3248 203.595 36.1728 203.772C36.0208 203.924 35.8055 204 35.5268 204H33.7408ZM42.031 211.22C41.7777 211.22 41.5624 211.131 41.385 210.954C41.233 210.802 41.157 210.599 41.157 210.346V185.114C41.157 184.861 41.233 184.658 41.385 184.506C41.5624 184.329 41.7777 184.24 42.031 184.24H43.779C44.0324 184.24 44.235 184.329 44.387 184.506C44.5644 184.658 44.653 184.861 44.653 185.114V186.786C45.261 185.95 46.0717 185.253 47.085 184.696C48.0984 184.139 49.365 183.86 50.885 183.86C52.3037 183.86 53.507 184.101 54.495 184.582C55.5084 185.063 56.3317 185.722 56.965 186.558C57.6237 187.394 58.1177 188.344 58.447 189.408C58.7764 190.472 58.9537 191.612 58.979 192.828C59.0044 193.233 59.017 193.664 59.017 194.12C59.017 194.576 59.0044 195.007 58.979 195.412C58.9537 196.603 58.7764 197.743 58.447 198.832C58.1177 199.896 57.6237 200.846 56.965 201.682C56.3317 202.493 55.5084 203.151 54.495 203.658C53.507 204.139 52.3037 204.38 50.885 204.38C49.4157 204.38 48.1744 204.114 47.161 203.582C46.173 203.025 45.3624 202.341 44.729 201.53V210.346C44.729 210.599 44.653 210.802 44.501 210.954C44.349 211.131 44.1337 211.22 43.855 211.22H42.031ZM50.087 201.302C51.4044 201.302 52.4304 201.023 53.165 200.466C53.925 199.883 54.4697 199.136 54.799 198.224C55.1284 197.287 55.3184 196.286 55.369 195.222C55.3944 194.487 55.3944 193.753 55.369 193.018C55.3184 191.954 55.1284 190.966 54.799 190.054C54.4697 189.117 53.925 188.369 53.165 187.812C52.4304 187.229 51.4044 186.938 50.087 186.938C48.8457 186.938 47.8324 187.229 47.047 187.812C46.287 188.395 45.717 189.142 45.337 190.054C44.9824 190.941 44.7797 191.853 44.729 192.79C44.7037 193.195 44.691 193.677 44.691 194.234C44.691 194.791 44.7037 195.285 44.729 195.716C44.7544 196.603 44.957 197.477 45.337 198.338C45.7424 199.199 46.3377 199.909 47.123 200.466C47.9084 201.023 48.8964 201.302 50.087 201.302ZM63.7178 204C63.4644 204 63.2491 203.924 63.0718 203.772C62.9198 203.595 62.8438 203.379 62.8438 203.126V177.894C62.8438 177.641 62.9198 177.438 63.0718 177.286C63.2491 177.109 63.4644 177.02 63.7178 177.02H65.6178C65.8964 177.02 66.1118 177.109 66.2638 177.286C66.4158 177.438 66.4918 177.641 66.4918 177.894V186.748C67.1758 185.887 68.0118 185.19 68.9998 184.658C69.9878 184.126 71.2418 183.86 72.7618 183.86C74.4084 183.86 75.8018 184.227 76.9418 184.962C78.1071 185.671 78.9811 186.672 79.5638 187.964C80.1718 189.231 80.4758 190.713 80.4758 192.41V203.126C80.4758 203.379 80.3998 203.595 80.2478 203.772C80.0958 203.924 79.8804 204 79.6018 204H77.7018C77.4484 204 77.2331 203.924 77.0558 203.772C76.9038 203.595 76.8278 203.379 76.8278 203.126V192.6C76.8278 190.827 76.3971 189.446 75.5358 188.458C74.6744 187.445 73.4078 186.938 71.7358 186.938C70.1651 186.938 68.8984 187.445 67.9358 188.458C66.9731 189.446 66.4918 190.827 66.4918 192.6V203.126C66.4918 203.379 66.4158 203.595 66.2638 203.772C66.1118 203.924 65.8964 204 65.6178 204H63.7178ZM90.522 204.38C89.2553 204.38 88.1027 204.127 87.064 203.62C86.0253 203.113 85.1893 202.429 84.556 201.568C83.9227 200.707 83.606 199.731 83.606 198.642C83.606 196.894 84.3153 195.501 85.734 194.462C87.1527 193.423 89.002 192.739 91.282 192.41L96.944 191.612V190.51C96.944 189.294 96.5893 188.344 95.88 187.66C95.196 186.976 94.0687 186.634 92.498 186.634C91.358 186.634 90.4333 186.862 89.724 187.318C89.04 187.774 88.5587 188.357 88.28 189.066C88.128 189.446 87.862 189.636 87.482 189.636H85.772C85.4933 189.636 85.278 189.56 85.126 189.408C84.9993 189.231 84.936 189.028 84.936 188.8C84.936 188.42 85.0753 187.951 85.354 187.394C85.658 186.837 86.114 186.292 86.722 185.76C87.33 185.228 88.1027 184.785 89.04 184.43C90.0027 184.05 91.168 183.86 92.536 183.86C94.056 183.86 95.3353 184.063 96.374 184.468C97.4127 184.848 98.2233 185.367 98.806 186.026C99.414 186.685 99.8447 187.432 100.098 188.268C100.377 189.104 100.516 189.953 100.516 190.814V203.126C100.516 203.379 100.427 203.595 100.25 203.772C100.098 203.924 99.8953 204 99.642 204H97.894C97.6153 204 97.4 203.924 97.248 203.772C97.096 203.595 97.02 203.379 97.02 203.126V201.492C96.6907 201.948 96.2473 202.404 95.69 202.86C95.1327 203.291 94.436 203.658 93.6 203.962C92.764 204.241 91.738 204.38 90.522 204.38ZM91.32 201.53C92.3587 201.53 93.3087 201.315 94.17 200.884C95.0313 200.428 95.7027 199.731 96.184 198.794C96.6907 197.857 96.944 196.679 96.944 195.26V194.196L92.536 194.842C90.7373 195.095 89.382 195.526 88.47 196.134C87.558 196.717 87.102 197.464 87.102 198.376C87.102 199.085 87.3047 199.681 87.71 200.162C88.1407 200.618 88.6727 200.96 89.306 201.188C89.9647 201.416 90.636 201.53 91.32 201.53ZM119.905 204C119.499 204 119.183 203.911 118.955 203.734C118.752 203.557 118.587 203.329 118.461 203.05L111.469 185.418C111.418 185.266 111.393 185.127 111.393 185C111.393 184.797 111.469 184.62 111.621 184.468C111.773 184.316 111.95 184.24 112.153 184.24H112.951C113.204 184.24 113.394 184.316 113.521 184.468C113.673 184.595 113.761 184.709 113.787 184.81L120.209 201.226L126.631 184.81C126.681 184.709 126.77 184.595 126.897 184.468C127.023 184.316 127.213 184.24 127.467 184.24H128.265C128.467 184.24 128.645 184.316 128.797 184.468C128.949 184.62 129.025 184.797 129.025 185C129.025 185.127 128.999 185.266 128.949 185.418L121.957 203.05C121.855 203.329 121.691 203.557 121.463 203.734C121.235 203.911 120.918 204 120.513 204H119.905ZM139.192 204.38C136.734 204.38 134.784 203.582 133.34 201.986C131.896 200.365 131.072 198.249 130.87 195.64C130.844 195.26 130.832 194.753 130.832 194.12C130.832 193.487 130.844 192.98 130.87 192.6C130.996 190.877 131.402 189.357 132.086 188.04C132.77 186.723 133.707 185.697 134.898 184.962C136.114 184.227 137.545 183.86 139.192 183.86C140.965 183.86 142.472 184.253 143.714 185.038C144.955 185.823 145.905 186.951 146.564 188.42C147.248 189.889 147.59 191.637 147.59 193.664V194.234C147.59 194.487 147.501 194.69 147.324 194.842C147.172 194.994 146.969 195.07 146.716 195.07H133.188C133.188 195.07 133.188 195.121 133.188 195.222C133.188 195.323 133.188 195.399 133.188 195.45C133.238 196.59 133.504 197.679 133.986 198.718C134.467 199.731 135.151 200.567 136.038 201.226C136.924 201.859 137.976 202.176 139.192 202.176C140.281 202.176 141.18 202.011 141.89 201.682C142.624 201.353 143.207 200.998 143.638 200.618C144.068 200.213 144.347 199.909 144.474 199.706C144.702 199.377 144.879 199.187 145.006 199.136C145.132 199.06 145.335 199.022 145.614 199.022H146.222C146.45 199.022 146.64 199.098 146.792 199.25C146.969 199.377 147.045 199.554 147.02 199.782C146.994 200.137 146.792 200.58 146.412 201.112C146.057 201.619 145.538 202.125 144.854 202.632C144.195 203.139 143.384 203.557 142.422 203.886C141.459 204.215 140.382 204.38 139.192 204.38ZM133.188 192.942H145.272V192.79C145.272 191.523 145.031 190.383 144.55 189.37C144.068 188.357 143.372 187.559 142.46 186.976C141.548 186.368 140.458 186.064 139.192 186.064C137.925 186.064 136.836 186.368 135.924 186.976C135.037 187.559 134.353 188.357 133.872 189.37C133.416 190.383 133.188 191.523 133.188 192.79V192.942ZM152.488 204C152.234 204 152.032 203.924 151.88 203.772C151.728 203.62 151.652 203.417 151.652 203.164V185.114C151.652 184.861 151.728 184.658 151.88 184.506C152.032 184.329 152.234 184.24 152.488 184.24H153.096C153.349 184.24 153.552 184.329 153.704 184.506C153.881 184.658 153.97 184.861 153.97 185.114V186.862C154.426 185.975 155.084 185.317 155.946 184.886C156.807 184.455 157.871 184.24 159.138 184.24H160.544C160.797 184.24 161 184.316 161.152 184.468C161.304 184.62 161.38 184.823 161.38 185.076V185.608C161.38 185.861 161.304 186.064 161.152 186.216C161 186.368 160.797 186.444 160.544 186.444H158.91C157.39 186.444 156.186 186.887 155.3 187.774C154.413 188.661 153.97 189.864 153.97 191.384V203.164C153.97 203.417 153.881 203.62 153.704 203.772C153.552 203.924 153.349 204 153.096 204H152.488ZM170.183 204.38C168.865 204.38 167.725 204.203 166.763 203.848C165.825 203.493 165.053 203.075 164.445 202.594C163.837 202.087 163.381 201.593 163.077 201.112C162.798 200.631 162.646 200.263 162.621 200.01C162.595 199.731 162.684 199.529 162.887 199.402C163.089 199.25 163.279 199.174 163.457 199.174H164.027C164.179 199.174 164.305 199.199 164.407 199.25C164.533 199.301 164.685 199.44 164.863 199.668C165.192 200.099 165.572 200.517 166.003 200.922C166.433 201.302 166.978 201.606 167.637 201.834C168.321 202.062 169.169 202.176 170.183 202.176C171.703 202.176 172.957 201.885 173.945 201.302C174.933 200.719 175.427 199.858 175.427 198.718C175.427 198.009 175.224 197.439 174.819 197.008C174.439 196.577 173.78 196.197 172.843 195.868C171.905 195.539 170.639 195.197 169.043 194.842C167.447 194.462 166.218 194.006 165.357 193.474C164.521 192.942 163.951 192.334 163.647 191.65C163.343 190.941 163.191 190.181 163.191 189.37C163.191 188.483 163.444 187.622 163.951 186.786C164.457 185.925 165.205 185.228 166.193 184.696C167.206 184.139 168.473 183.86 169.993 183.86C171.234 183.86 172.285 184.025 173.147 184.354C174.033 184.683 174.755 185.089 175.313 185.57C175.87 186.026 176.275 186.482 176.529 186.938C176.807 187.394 176.959 187.761 176.985 188.04C177.01 188.293 176.934 188.496 176.757 188.648C176.579 188.8 176.377 188.876 176.149 188.876H175.579C175.376 188.876 175.211 188.838 175.085 188.762C174.958 188.661 174.844 188.534 174.743 188.382C174.489 187.977 174.185 187.597 173.831 187.242C173.476 186.887 172.995 186.609 172.387 186.406C171.804 186.178 171.006 186.064 169.993 186.064C168.473 186.064 167.345 186.381 166.611 187.014C165.876 187.622 165.509 188.407 165.509 189.37C165.509 189.927 165.661 190.421 165.965 190.852C166.269 191.257 166.839 191.637 167.675 191.992C168.511 192.321 169.727 192.676 171.323 193.056C172.944 193.411 174.223 193.854 175.161 194.386C176.098 194.893 176.757 195.501 177.137 196.21C177.542 196.919 177.745 197.755 177.745 198.718C177.745 199.731 177.453 200.669 176.871 201.53C176.313 202.391 175.465 203.088 174.325 203.62C173.21 204.127 171.829 204.38 170.183 204.38ZM182.502 204C182.249 204 182.046 203.924 181.894 203.772C181.742 203.62 181.666 203.417 181.666 203.164V185.076C181.666 184.823 181.742 184.62 181.894 184.468C182.046 184.316 182.249 184.24 182.502 184.24H183.148C183.401 184.24 183.604 184.316 183.756 184.468C183.908 184.62 183.984 184.823 183.984 185.076V203.164C183.984 203.417 183.908 203.62 183.756 203.772C183.604 203.924 183.401 204 183.148 204H182.502ZM182.084 180.174C181.831 180.174 181.628 180.098 181.476 179.946C181.324 179.794 181.248 179.591 181.248 179.338V177.894C181.248 177.641 181.324 177.438 181.476 177.286C181.628 177.109 181.831 177.02 182.084 177.02H183.528C183.781 177.02 183.984 177.109 184.136 177.286C184.313 177.438 184.402 177.641 184.402 177.894V179.338C184.402 179.591 184.313 179.794 184.136 179.946C183.984 180.098 183.781 180.174 183.528 180.174H182.084ZM196.701 204.38C194.877 204.38 193.344 204 192.103 203.24C190.887 202.48 189.949 201.441 189.291 200.124C188.657 198.807 188.315 197.337 188.265 195.716C188.239 195.336 188.227 194.804 188.227 194.12C188.227 193.436 188.239 192.904 188.265 192.524C188.315 190.877 188.657 189.408 189.291 188.116C189.949 186.799 190.887 185.76 192.103 185C193.344 184.24 194.877 183.86 196.701 183.86C198.525 183.86 200.045 184.24 201.261 185C202.502 185.76 203.439 186.799 204.073 188.116C204.731 189.408 205.086 190.877 205.137 192.524C205.162 192.904 205.175 193.436 205.175 194.12C205.175 194.804 205.162 195.336 205.137 195.716C205.086 197.337 204.731 198.807 204.073 200.124C203.439 201.441 202.502 202.48 201.261 203.24C200.045 204 198.525 204.38 196.701 204.38ZM196.701 202.176C198.474 202.176 199.918 201.606 201.033 200.466C202.147 199.326 202.743 197.679 202.819 195.526C202.844 195.146 202.857 194.677 202.857 194.12C202.857 193.563 202.844 193.094 202.819 192.714C202.743 190.535 202.147 188.889 201.033 187.774C199.918 186.634 198.474 186.064 196.701 186.064C194.927 186.064 193.483 186.634 192.369 187.774C191.254 188.889 190.659 190.535 190.583 192.714C190.557 193.094 190.545 193.563 190.545 194.12C190.545 194.677 190.557 195.146 190.583 195.526C190.659 197.679 191.254 199.326 192.369 200.466C193.483 201.606 194.927 202.176 196.701 202.176ZM210.252 204C209.999 204 209.796 203.924 209.644 203.772C209.492 203.62 209.416 203.417 209.416 203.164V185.076C209.416 184.823 209.492 184.62 209.644 184.468C209.796 184.316 209.999 184.24 210.252 184.24H210.898C211.152 184.24 211.354 184.316 211.506 184.468C211.658 184.62 211.734 184.823 211.734 185.076V186.862C212.418 185.975 213.242 185.253 214.204 184.696C215.192 184.139 216.497 183.86 218.118 183.86C219.841 183.86 221.272 184.24 222.412 185C223.578 185.735 224.439 186.748 224.996 188.04C225.579 189.307 225.87 190.751 225.87 192.372V203.164C225.87 203.417 225.794 203.62 225.642 203.772C225.49 203.924 225.288 204 225.034 204H224.388C224.135 204 223.932 203.924 223.78 203.772C223.628 203.62 223.552 203.417 223.552 203.164V192.562C223.552 190.535 223.058 188.952 222.07 187.812C221.082 186.647 219.638 186.064 217.738 186.064C215.94 186.064 214.483 186.647 213.368 187.812C212.279 188.952 211.734 190.535 211.734 192.562V203.164C211.734 203.417 211.658 203.62 211.506 203.772C211.354 203.924 211.152 204 210.898 204H210.252Z" fill="#787878"/>
<defs>
<filter id="filter0_iiiii_203_5" x="310" y="-30" width="273" height="241" filterUnits="userSpaceOnUse" color-interpolation-filters="sRGB">
<feFlood flood-opacity="0" result="BackgroundImageFix"/>
<feBlend mode="normal" in="SourceGraphic" in2="BackgroundImageFix" result="shape"/>
<feColorMatrix in="SourceAlpha" type="matrix" values="0 0 0 0 0 0 0 0 0 0 0 0 0 0 0 0 0 0 127 0" result="hardAlpha"/>
<feOffset dy="20"/>
<feGaussianBlur stdDeviation="20"/>
<feComposite in2="hardAlpha" operator="arithmetic" k2="-1" k3="1"/>
<feColorMatrix type="matrix" values="0 0 0 0 1 0 0 0 0 1 0 0 0 0 1 0 0 0 0.5 0"/>
<feBlend mode="overlay" in2="shape" result="effect1_innerShadow_203_5"/>
<feColorMatrix in="SourceAlpha" type="matrix" values="0 0 0 0 0 0 0 0 0 0 0 0 0 0 0 0 0 0 127 0" result="hardAlpha"/>
<feOffset dy="-30"/>
<feGaussianBlur stdDeviation="30"/>
<feComposite in2="hardAlpha" operator="arithmetic" k2="-1" k3="1"/>
<feColorMatrix type="matrix" values="0 0 0 0 0 0 0 0 0 0 0 0 0 0 0 0 0 0 0.5 0"/>
<feBlend mode="overlay" in2="effect1_innerShadow_203_5" result="effect2_innerShadow_203_5"/>
<feColorMatrix in="SourceAlpha" type="matrix" values="0 0 0 0 0 0 0 0 0 0 0 0 0 0 0 0 0 0 127 0" result="hardAlpha"/>
<feOffset dy="5"/>
<feGaussianBlur stdDeviation="7.5"/>
<feComposite in2="hardAlpha" operator="arithmetic" k2="-1" k3="1"/>
<feColorMatrix type="matrix" values="0 0 0 0 1 0 0 0 0 1 0 0 0 0 1 0 0 0 0.7 0"/>
<feBlend mode="overlay" in2="effect2_innerShadow_203_5" result="effect3_innerShadow_203_5"/>
<feColorMatrix in="SourceAlpha" type="matrix" values="0 0 0 0 0 0 0 0 0 0 0 0 0 0 0 0 0 0 127 0" result="hardAlpha"/>
<feOffset dy="-40"/>
<feGaussianBlur stdDeviation="10"/>
<feComposite in2="hardAlpha" operator="arithmetic" k2="-1" k3="1"/>
<feColorMatrix type="matrix" values="0 0 0 0 0 0 0 0 0 0 0 0 0 0 0 0 0 0 0.15 0"/>
<feBlend mode="overlay" in2="effect3_innerShadow_203_5" result="effect4_innerShadow_203_5"/>
<feColorMatrix in="SourceAlpha" type="matrix" values="0 0 0 0 0 0 0 0 0 0 0 0 0 0 0 0 0 0 127 0" result="hardAlpha"/>
<feOffset dy="20"/>
<feGaussianBlur stdDeviation="10"/>
<feComposite in2="hardAlpha" operator="arithmetic" k2="-1" k3="1"/>
<feColorMatrix type="matrix" values="0 0 0 0 1 0 0 0 0 1 0 0 0 0 1 0 0 0 0.25 0"/>
<feBlend mode="overlay" in2="effect4_innerShadow_203_5" result="effect5_innerShadow_203_5"/>
</filter>
</defs>
</svg>
