<svg viewBox="0 0 583 191" fill="none" xmlns="http://www.w3.org/2000/svg">
  <g filter="url(#filter0_iiiii_1_12)">
    <rect x="310" width="273" height="191" rx="66" fill="#F558A1" />
  </g>
  <path d="M360.082 46.5625H371.84V105.762L403.832 72.334L411.557 79.8535L383.871 108.359L418.803 145H404.174L371.84 110.82V145H360.082V46.5625ZM449.075 46.3574C451.172 46.3574 452.995 47.0866 454.544 48.5449C456.048 50.14 456.8 52.0085 456.8 54.1504C456.8 56.3379 456.048 58.1836 454.544 59.6875C452.995 61.237 451.172 62.0117 449.075 62.0117C446.888 62.0117 445.019 61.237 443.47 59.6875C441.92 58.2292 441.146 56.3835 441.146 54.1504C441.146 51.9629 441.92 50.0944 443.47 48.5449C445.019 47.0866 446.888 46.3574 449.075 46.3574ZM443.06 73.9062H454.818V145H443.06V73.9062ZM496.848 57.6367H508.605V73.9062H532.531V83.8184H508.605V124.629C508.605 127.363 508.674 129.46 508.811 130.918C508.993 132.331 509.403 133.447 510.041 134.268C511.226 135.908 513.618 136.729 517.219 136.729C519.224 136.729 521.161 136.523 523.029 136.113C524.943 135.703 526.698 135.247 528.293 134.746C529.569 137.526 530.731 140.579 531.779 143.906C526.402 145.729 520.979 146.641 515.51 146.641C511.545 146.641 508.355 146.185 505.939 145.273C503.57 144.408 501.701 142.972 500.334 140.967C498.921 138.87 497.987 136.364 497.531 133.447C497.076 130.531 496.848 126.497 496.848 121.348V83.8184H486.594V73.9062H496.848V57.6367Z" fill="white" />
  <path d="M360.082 46.5625V41.0625H354.582V46.5625H360.082ZM371.84 46.5625H377.34V41.0625H371.84V46.5625ZM371.84 105.762H366.34V119.463L375.814 109.565L371.84 105.762ZM403.832 72.334L407.669 68.3929L403.694 64.5238L399.859 68.5312L403.832 72.334ZM411.557 79.8535L415.502 83.6854L419.33 79.7445L415.393 75.9125L411.557 79.8535ZM383.871 108.359L379.926 104.527L376.239 108.324L379.891 112.155L383.871 108.359ZM418.803 145V150.5H431.646L422.784 141.205L418.803 145ZM404.174 145L400.179 148.78L401.806 150.5H404.174V145ZM371.84 110.82L375.836 107.041L366.34 97.0031V110.82H371.84ZM371.84 145V150.5H377.34V145H371.84ZM360.082 145H354.582V150.5H360.082V145ZM360.082 52.0625H371.84V41.0625H360.082V52.0625ZM366.34 46.5625V105.762H377.34V46.5625H366.34ZM375.814 109.565L407.806 76.1368L399.859 68.5312L367.867 101.959L375.814 109.565ZM399.996 76.275L407.721 83.7946L415.393 75.9125L407.669 68.3929L399.996 76.275ZM407.612 76.0216L379.926 104.527L387.817 112.191L415.502 83.6854L407.612 76.0216ZM379.891 112.155L414.822 148.795L422.784 141.205L387.852 104.564L379.891 112.155ZM418.803 139.5H404.174V150.5H418.803V139.5ZM408.17 141.22L375.836 107.041L367.845 114.6L400.179 148.78L408.17 141.22ZM366.34 110.82V145H377.34V110.82H366.34ZM371.84 139.5H360.082V150.5H371.84V139.5ZM365.582 145V46.5625H354.582V145H365.582ZM454.544 48.5449L458.546 44.7719L458.433 44.6524L458.314 44.5398L454.544 48.5449ZM454.544 59.6875L450.655 55.7984L454.544 59.6875ZM443.47 59.6875L447.359 55.7984L447.3 55.7395L447.239 55.6824L443.47 59.6875ZM443.47 48.5449L439.7 44.5398L439.64 44.5969L439.581 44.6558L443.47 48.5449ZM443.06 73.9062V68.4062H437.56V73.9062H443.06ZM454.818 73.9062H460.318V68.4062H454.818V73.9062ZM454.818 145V150.5H460.318V145H454.818ZM443.06 145H437.56V150.5H443.06V145ZM449.075 51.8574C449.747 51.8574 450.228 52.0359 450.775 52.55L458.314 44.5398C455.761 42.1373 452.596 40.8574 449.075 40.8574V51.8574ZM450.542 52.318C451.109 52.919 451.3 53.4474 451.3 54.1504H462.3C462.3 50.5696 460.987 47.3609 458.546 44.7719L450.542 52.318ZM451.3 54.1504C451.3 54.9257 451.095 55.3584 450.655 55.7984L458.433 63.5766C461.001 61.0088 462.3 57.75 462.3 54.1504H451.3ZM450.655 55.7984C450.085 56.3685 449.641 56.5117 449.075 56.5117V67.5117C452.702 67.5117 455.904 66.1055 458.433 63.5766L450.655 55.7984ZM449.075 56.5117C448.349 56.5117 447.879 56.3185 447.359 55.7984L439.581 63.5766C442.16 66.1555 445.426 67.5117 449.075 67.5117V56.5117ZM447.239 55.6824C446.854 55.3198 446.646 54.9513 446.646 54.1504H435.646C435.646 57.8157 436.987 61.1385 439.7 63.6926L447.239 55.6824ZM446.646 54.1504C446.646 53.4244 446.839 52.9541 447.359 52.434L439.581 44.6558C437.002 47.2347 435.646 50.5014 435.646 54.1504H446.646ZM447.239 52.55C447.737 52.0814 448.245 51.8574 449.075 51.8574V40.8574C445.53 40.8574 442.301 42.0918 439.7 44.5398L447.239 52.55ZM443.06 79.4062H454.818V68.4062H443.06V79.4062ZM449.318 73.9062V145H460.318V73.9062H449.318ZM454.818 139.5H443.06V150.5H454.818V139.5ZM448.56 145V73.9062H437.56V145H448.56ZM496.848 57.6367V52.1367H491.348V57.6367H496.848ZM508.605 57.6367H514.105V52.1367H508.605V57.6367ZM508.605 73.9062H503.105V79.4062H508.605V73.9062ZM532.531 73.9062H538.031V68.4062H532.531V73.9062ZM532.531 83.8184V89.3184H538.031V83.8184H532.531ZM508.605 83.8184V78.3184H503.105V83.8184H508.605ZM508.811 130.918L503.335 131.431L503.344 131.527L503.356 131.622L508.811 130.918ZM510.041 134.268L514.5 131.047L514.442 130.968L514.382 130.891L510.041 134.268ZM523.029 136.113L521.877 130.735L521.863 130.738L521.85 130.741L523.029 136.113ZM528.293 134.746L533.292 132.452L531.269 128.046L526.644 129.499L528.293 134.746ZM531.779 143.906L533.545 149.115L538.643 147.387L537.025 142.253L531.779 143.906ZM505.939 145.273L507.881 140.128L507.854 140.117L507.827 140.107L505.939 145.273ZM500.334 140.967L495.773 144.04L495.781 144.053L495.79 144.065L500.334 140.967ZM496.848 83.8184H502.348V78.3184H496.848V83.8184ZM486.594 83.8184H481.094V89.3184H486.594V83.8184ZM486.594 73.9062V68.4062H481.094V73.9062H486.594ZM496.848 73.9062V79.4062H502.348V73.9062H496.848ZM496.848 63.1367H508.605V52.1367H496.848V63.1367ZM503.105 57.6367V73.9062H514.105V57.6367H503.105ZM508.605 79.4062H532.531V68.4062H508.605V79.4062ZM527.031 73.9062V83.8184H538.031V73.9062H527.031ZM532.531 78.3184H508.605V89.3184H532.531V78.3184ZM503.105 83.8184V124.629H514.105V83.8184H503.105ZM503.105 124.629C503.105 127.415 503.174 129.715 503.335 131.431L514.287 130.405C514.174 129.205 514.105 127.311 514.105 124.629H503.105ZM503.356 131.622C503.619 133.662 504.275 135.813 505.7 137.644L514.382 130.891C514.458 130.988 514.455 131.02 514.418 130.918C514.379 130.812 514.314 130.591 514.265 130.214L503.356 131.622ZM505.582 137.488C508.39 141.375 513.184 142.229 517.219 142.229V131.229C515.79 131.229 514.943 131.06 514.508 130.911C514.116 130.776 514.277 130.739 514.5 131.047L505.582 137.488ZM517.219 142.229C519.601 142.229 521.935 141.985 524.209 141.485L521.85 130.741C520.387 131.062 518.846 131.229 517.219 131.229V142.229ZM524.182 141.491C526.236 141.051 528.159 140.553 529.942 139.993L526.644 129.499C525.237 129.941 523.651 130.355 521.877 130.735L524.182 141.491ZM523.294 137.041C524.463 139.585 525.545 142.421 526.534 145.559L537.025 142.253C535.917 138.738 534.675 135.467 533.292 132.452L523.294 137.041ZM530.014 138.697C525.183 140.335 520.355 141.141 515.51 141.141V152.141C521.602 152.141 527.621 151.123 533.545 149.115L530.014 138.697ZM515.51 141.141C511.891 141.141 509.436 140.714 507.881 140.128L503.998 150.419C507.274 151.656 511.199 152.141 515.51 152.141V141.141ZM507.827 140.107C506.492 139.62 505.571 138.884 504.878 137.868L495.79 144.065C497.831 147.06 500.648 149.196 504.052 150.439L507.827 140.107ZM504.895 137.893C504.002 136.568 503.317 134.851 502.965 132.598L492.097 134.296C492.657 137.877 493.84 141.172 495.773 144.04L504.895 137.893ZM502.965 132.598C502.574 130.095 502.348 126.389 502.348 121.348H491.348C491.348 126.606 491.577 130.966 492.097 134.296L502.965 132.598ZM502.348 121.348V83.8184H491.348V121.348H502.348ZM496.848 78.3184H486.594V89.3184H496.848V78.3184ZM492.094 83.8184V73.9062H481.094V83.8184H492.094ZM486.594 79.4062H496.848V68.4062H486.594V79.4062ZM502.348 73.9062V57.6367H491.348V73.9062H502.348Z" fill="white" />
  <path d="M42.442 82.8149C46.2057 82.8149 49.9694 83.2051 53.733 83.9854C57.5426 84.7656 61.0768 85.8442 64.3356 87.2212C63.693 88.6899 63.0275 90.1357 62.339 91.5586C61.6505 92.9814 60.8932 94.3813 60.067 95.7583C58.9196 95.2993 57.6344 94.8403 56.2115 94.3813C54.8346 93.9224 53.3658 93.5322 51.8053 93.2109C50.2906 92.8896 48.7072 92.6372 47.0548 92.4536C45.4484 92.2241 43.8649 92.1094 42.3043 92.1094C40.6061 92.1094 38.9537 92.293 37.3473 92.6602C35.7867 92.9814 34.3868 93.5322 33.1476 94.3125C31.9542 95.0928 30.9904 96.1255 30.256 97.4106C29.5216 98.6499 29.1544 100.21 29.1544 102.092C29.1544 104.02 29.5675 105.649 30.3937 106.98C31.2198 108.266 32.3444 109.344 33.7672 110.216C35.1901 111.088 36.8424 111.823 38.7242 112.419C40.652 113.016 42.6945 113.567 44.8517 114.072C48.2023 114.898 51.3234 115.839 54.215 116.895C57.1066 117.904 59.608 119.235 61.7194 120.888C63.8307 122.54 65.483 124.583 66.6764 127.015C67.8698 129.448 68.4664 132.454 68.4664 136.034C68.4664 139.798 67.7091 143.034 66.1945 145.742C64.7257 148.45 62.7062 150.699 60.1359 152.489C57.6115 154.233 54.651 155.518 51.2545 156.344C47.858 157.216 44.2321 157.652 40.3766 157.652C38.3571 157.652 36.2687 157.515 34.1115 157.239C32.0001 157.01 29.8888 156.643 27.7775 156.138C25.712 155.679 23.6696 155.105 21.65 154.417C19.6305 153.728 17.7257 152.971 15.9357 152.145C16.5782 150.676 17.2438 149.253 17.9323 147.876C18.6666 146.453 19.424 145.053 20.2042 143.676C21.7189 144.319 23.3253 144.938 25.0236 145.535C26.7218 146.086 28.4659 146.568 30.256 146.981C32.046 147.394 33.8131 147.738 35.5573 148.014C37.3014 148.243 38.9767 148.358 40.5831 148.358C42.6027 148.358 44.5533 148.128 46.4352 147.669C48.3629 147.21 50.0612 146.499 51.5299 145.535C53.0446 144.525 54.2379 143.24 55.11 141.68C56.028 140.119 56.4869 138.237 56.4869 136.034C56.4869 133.969 56.0509 132.271 55.1788 130.939C54.3527 129.608 53.2281 128.507 51.8053 127.635C50.3824 126.717 48.7072 125.982 46.7794 125.432C44.8976 124.835 42.901 124.284 40.7897 123.779C37.5768 122.999 34.5245 122.104 31.6329 121.094C28.7872 120.084 26.2858 118.776 24.1285 117.17C22.0172 115.518 20.319 113.498 19.0338 111.111C17.7946 108.679 17.1749 105.672 17.1749 102.092C17.1749 98.7417 17.8634 95.8501 19.2404 93.4175C20.6173 90.9849 22.4532 88.9883 24.7482 87.4277C27.089 85.8672 29.774 84.7197 32.8033 83.9854C35.8785 83.2051 39.0914 82.8149 42.442 82.8149ZM98.3353 56.8594H110.177V116.481L142.398 82.8149L150.178 90.3882L122.294 119.098L157.475 156H142.742L110.177 121.576V156H98.3353V56.8594ZM187.964 56.6528C190.075 56.6528 191.911 57.3872 193.472 58.856C194.986 60.4624 195.744 62.3442 195.744 64.5015C195.744 66.7046 194.986 68.5635 193.472 70.0781C191.911 71.6387 190.075 72.4189 187.964 72.4189C185.761 72.4189 183.879 71.6387 182.318 70.0781C180.758 68.6094 179.978 66.7505 179.978 64.5015C179.978 62.2983 180.758 60.4165 182.318 58.856C183.879 57.3872 185.761 56.6528 187.964 56.6528ZM181.905 84.3984H193.747V156H181.905V84.3984ZM239.658 128.186C239.658 131.949 239.703 135.116 239.795 137.687C239.887 140.211 240.002 142.437 240.139 144.365C240.277 146.292 240.484 148.037 240.759 149.597C241.08 151.158 241.47 152.879 241.929 154.761C240.002 155.266 238.074 155.725 236.146 156.138C234.219 156.597 232.291 156.987 230.363 157.308C229.445 154.325 228.78 151.594 228.366 149.115C227.999 146.637 227.816 144.204 227.816 141.817V56.9971H239.658V128.186ZM283.709 128.186C283.709 131.949 283.755 135.116 283.847 137.687C283.938 140.211 284.053 142.437 284.191 144.365C284.329 146.292 284.535 148.037 284.811 149.597C285.132 151.158 285.522 152.879 285.981 154.761C284.053 155.266 282.125 155.725 280.198 156.138C278.27 156.597 276.342 156.987 274.415 157.308C273.497 154.325 272.831 151.594 272.418 149.115C272.051 146.637 271.867 144.204 271.867 141.817V56.9971H283.709V128.186Z" fill="#1F2029" />
  <path d="M53.733 83.9854L52.6165 89.3708L52.6294 89.3735L53.733 83.9854ZM64.3356 87.2212L69.3744 89.4257L71.607 84.3228L66.4763 82.1549L64.3356 87.2212ZM60.067 95.7583L58.0244 100.865L62.3733 102.605L64.7832 98.588L60.067 95.7583ZM56.2115 94.3813L54.4723 99.5991L54.4976 99.6075L54.523 99.6157L56.2115 94.3813ZM51.8053 93.2109L50.664 98.5912L50.6801 98.5946L50.6962 98.598L51.8053 93.2109ZM47.0548 92.4536L46.277 97.8983L46.362 97.9105L46.4474 97.92L47.0548 92.4536ZM37.3473 92.6602L38.4564 98.0472L38.5147 98.0352L38.5728 98.0219L37.3473 92.6602ZM33.1476 94.3125L30.2171 89.6582L30.1772 89.6834L30.1377 89.7092L33.1476 94.3125ZM30.256 97.4106L34.9876 100.215L35.0097 100.177L35.0313 100.139L30.256 97.4106ZM30.3937 106.98L25.7207 109.881L25.7436 109.918L25.7672 109.955L30.3937 106.98ZM38.7242 112.419L37.0619 117.662L37.0799 117.668L37.098 117.674L38.7242 112.419ZM44.8517 114.072L46.1684 108.732L46.1368 108.724L46.105 108.716L44.8517 114.072ZM54.215 116.895L52.3288 122.061L52.3652 122.074L52.4017 122.087L54.215 116.895ZM66.1945 145.742L61.3943 143.057L61.3768 143.088L61.3598 143.12L66.1945 145.742ZM60.1359 152.489L63.2622 157.014L63.2707 157.008L63.2791 157.002L60.1359 152.489ZM51.2545 156.344L49.9546 151L49.9206 151.008L49.8867 151.017L51.2545 156.344ZM34.1115 157.239L34.8079 151.784L34.7569 151.777L34.7058 151.771L34.1115 157.239ZM27.7775 156.138L29.0566 150.789L29.0137 150.778L28.9706 150.769L27.7775 156.138ZM15.9357 152.145L10.8968 149.94L8.73595 154.879L13.6308 157.138L15.9357 152.145ZM17.9323 147.876L13.0448 145.353L13.0287 145.385L13.0129 145.416L17.9323 147.876ZM20.2042 143.676L22.3522 138.613L17.8371 136.698L15.4191 140.965L20.2042 143.676ZM25.0236 145.535L23.2004 150.724L23.2633 150.746L23.3268 150.767L25.0236 145.535ZM35.5573 148.014L34.6995 153.446L34.7695 153.457L34.8398 153.467L35.5573 148.014ZM46.4352 147.669L45.1613 142.319L45.1466 142.322L45.1319 142.326L46.4352 147.669ZM51.5299 145.535L54.5475 150.133L54.5642 150.122L54.5808 150.111L51.5299 145.535ZM55.11 141.68L50.3693 138.891L50.3385 138.944L50.3088 138.997L55.11 141.68ZM55.1788 130.939L50.5058 133.84L50.5414 133.897L50.5783 133.954L55.1788 130.939ZM51.8053 127.635L48.8236 132.256L48.877 132.291L48.9312 132.324L51.8053 127.635ZM46.7794 125.432L45.1171 130.674L45.1924 130.698L45.2685 130.72L46.7794 125.432ZM40.7897 123.779L39.4917 129.124L39.5011 129.126L39.5105 129.128L40.7897 123.779ZM31.6329 121.094L29.7937 126.278L29.8067 126.282L29.8197 126.287L31.6329 121.094ZM24.1285 117.17L20.7388 121.501L20.7907 121.542L20.8436 121.581L24.1285 117.17ZM19.0338 111.111L14.1331 113.608L14.1615 113.664L14.1912 113.719L19.0338 111.111ZM24.7482 87.4277L21.6973 82.8515L21.6763 82.8655L21.6555 82.8796L24.7482 87.4277ZM32.8033 83.9854L34.0991 89.3305L34.1276 89.3236L34.156 89.3164L32.8033 83.9854ZM42.442 88.3149C45.8227 88.3149 49.2123 88.6651 52.6165 89.3708L54.8495 78.5999C50.7264 77.7451 46.5887 77.3149 42.442 77.3149V88.3149ZM52.6294 89.3735C56.1182 90.0881 59.3014 91.0649 62.1949 92.2875L66.4763 82.1549C62.8522 80.6236 58.967 79.4432 54.8366 78.5972L52.6294 89.3735ZM59.2967 85.0167C58.6818 86.4221 58.0456 87.8042 57.3881 89.163L67.2899 93.9542C68.0093 92.4673 68.7041 90.9578 69.3744 89.4257L59.2967 85.0167ZM57.3881 89.163C56.7725 90.4354 56.0936 91.6905 55.3508 92.9286L64.7832 98.588C65.6927 97.0722 66.5286 95.5275 67.2899 93.9542L57.3881 89.163ZM62.1097 90.6517C60.8246 90.1376 59.4186 89.6368 57.9001 89.147L54.523 99.6157C55.8502 100.044 57.0146 100.461 58.0244 100.865L62.1097 90.6517ZM57.9508 89.1636C56.3485 88.6295 54.6678 88.1849 52.9144 87.8239L50.6962 98.598C52.0639 98.8795 53.3207 99.2152 54.4723 99.5991L57.9508 89.1636ZM52.9466 87.8306C51.2431 87.4693 49.4808 87.1893 47.6622 86.9873L46.4474 97.92C47.9335 98.0851 49.3382 98.31 50.664 98.5912L52.9466 87.8306ZM47.8326 87.0089C45.9788 86.7441 44.1352 86.6094 42.3043 86.6094V97.6094C43.5945 97.6094 44.918 97.7042 46.277 97.8983L47.8326 87.0089ZM42.3043 86.6094C40.2063 86.6094 38.1424 86.8366 36.1218 87.2984L38.5728 98.0219C39.7651 97.7494 41.0059 97.6094 42.3043 97.6094V86.6094ZM36.2382 87.2731C34.0885 87.7157 32.0618 88.4967 30.2171 89.6582L36.0781 98.9668C36.7119 98.5677 37.485 98.2472 38.4564 98.0472L36.2382 87.2731ZM30.1377 89.7092C28.1876 90.9842 26.6299 92.6707 25.4806 94.6819L35.0313 100.139C35.3509 99.5802 35.7208 99.2013 36.1575 98.9158L30.1377 89.7092ZM25.5244 94.6067C24.1554 96.917 23.6544 99.5188 23.6544 102.092H34.6544C34.6544 100.902 34.8879 100.383 34.9876 100.215L25.5244 94.6067ZM23.6544 102.092C23.6544 104.809 24.2416 107.498 25.7207 109.881L35.0667 104.08C34.8934 103.801 34.6544 103.231 34.6544 102.092H23.6544ZM25.7672 109.955C27.0811 111.999 28.8306 113.642 30.8931 114.906L36.6413 105.527C35.8581 105.047 35.3586 104.533 35.0202 104.006L25.7672 109.955ZM30.8931 114.906C32.7577 116.048 34.8302 116.955 37.0619 117.662L40.3866 107.177C38.8546 106.691 37.6224 106.128 36.6413 105.527L30.8931 114.906ZM37.098 117.674C39.16 118.312 41.3276 118.896 43.5983 119.427L46.105 108.716C44.0613 108.238 42.1439 107.72 40.3505 107.165L37.098 117.674ZM43.535 119.412C46.7154 120.196 49.6445 121.081 52.3288 122.061L56.1011 111.728C53.0023 110.597 49.6891 109.6 46.1684 108.732L43.535 119.412ZM52.4017 122.087C54.804 122.926 56.7553 123.987 58.3297 125.219L65.1091 116.556C62.4607 114.484 59.4092 112.883 56.0282 111.702L52.4017 122.087ZM58.3297 125.219C59.7804 126.354 60.9066 127.742 61.7385 129.437L71.6142 124.593C70.0595 121.423 67.881 118.726 65.1091 116.556L58.3297 125.219ZM61.7385 129.437C62.463 130.914 62.9664 133.035 62.9664 136.034H73.9664C73.9664 131.873 73.2765 127.981 71.6142 124.593L61.7385 129.437ZM62.9664 136.034C62.9664 139.057 62.3617 141.327 61.3943 143.057L70.9946 148.427C73.0565 144.74 73.9664 140.539 73.9664 136.034H62.9664ZM61.3598 143.12C60.3068 145.061 58.8717 146.667 56.9926 147.975L63.2791 157.002C66.5407 154.731 69.1446 151.838 71.0291 148.364L61.3598 143.12ZM57.0095 147.964C55.1101 149.276 52.7874 150.311 49.9546 151L52.5545 161.688C56.5146 160.725 60.1128 159.19 63.2622 157.014L57.0095 147.964ZM49.8867 151.017C46.979 151.764 43.816 152.152 40.3766 152.152V163.152C44.6481 163.152 48.7371 162.669 52.6223 161.671L49.8867 151.017ZM40.3766 152.152C38.6069 152.152 36.7516 152.032 34.8079 151.784L33.415 162.695C35.7857 162.998 38.1072 163.152 40.3766 163.152V152.152ZM34.7058 151.771C32.83 151.568 30.9474 151.241 29.0566 150.789L26.4983 161.487C28.8302 162.045 31.1702 162.452 33.5171 162.707L34.7058 151.771ZM28.9706 150.769C27.1035 150.354 25.2551 149.835 23.4247 149.211L19.8753 159.622C22.084 160.375 24.3206 161.004 26.5843 161.507L28.9706 150.769ZM23.4247 149.211C21.5709 148.579 19.8442 147.891 18.2405 147.151L13.6308 157.138C15.6072 158.05 17.6901 158.877 19.8753 159.622L23.4247 149.211ZM20.9745 154.349C21.581 152.963 22.2068 151.625 22.8516 150.336L13.0129 145.416C12.2807 146.881 11.5755 148.389 10.8968 149.94L20.9745 154.349ZM22.8197 150.399C23.5216 149.039 24.2448 147.702 24.9893 146.388L15.4191 140.965C14.6031 142.405 13.8117 143.868 13.0448 145.353L22.8197 150.399ZM18.0562 148.739C19.6872 149.431 21.4026 150.093 23.2004 150.724L26.8467 140.346C25.248 139.784 23.7506 139.206 22.3522 138.613L18.0562 148.739ZM23.3268 150.767C25.1808 151.368 27.0786 151.892 29.0193 152.34L31.4927 141.622C29.8533 141.243 28.2628 140.804 26.7203 140.303L23.3268 150.767ZM29.0193 152.34C30.9297 152.781 32.8232 153.15 34.6995 153.446L36.415 142.581C34.803 142.326 33.1624 142.007 31.4927 141.622L29.0193 152.34ZM34.8398 153.467C36.7996 153.725 38.7154 153.858 40.5831 153.858V142.858C39.238 142.858 37.8032 142.762 36.2748 142.561L34.8398 153.467ZM40.5831 153.858C43.0231 153.858 45.4122 153.58 47.7384 153.013L45.1319 142.326C43.6945 142.677 42.1823 142.858 40.5831 142.858V153.858ZM47.7091 153.02C50.1786 152.432 52.4819 151.489 54.5475 150.133L48.5123 140.937C47.6404 141.509 46.5472 141.989 45.1613 142.319L47.7091 153.02ZM54.5808 150.111C56.8068 148.627 58.6059 146.698 59.9112 144.363L50.3088 138.997C49.8699 139.782 49.2823 140.423 48.4791 140.959L54.5808 150.111ZM59.8506 144.468C61.3634 141.897 61.9869 139.006 61.9869 136.034H50.9869C50.9869 137.469 50.6925 138.342 50.3693 138.891L59.8506 144.468ZM61.9869 136.034C61.9869 133.213 61.3899 130.384 59.7794 127.925L50.5783 133.954C50.7119 134.157 50.9869 134.725 50.9869 136.034H61.9869ZM59.8519 128.039C58.5443 125.932 56.7842 124.236 54.6794 122.945L48.9312 132.324C49.6721 132.778 50.161 133.284 50.5058 133.84L59.8519 128.039ZM54.787 123.013C52.8348 121.754 50.6456 120.816 48.2904 120.143L45.2685 130.72C46.7687 131.149 47.9301 131.68 48.8236 132.256L54.787 123.013ZM48.4418 120.189C46.4218 119.548 44.2966 118.963 42.0688 118.43L39.5105 129.128C41.5054 129.606 43.3734 130.122 45.1171 130.674L48.4418 120.189ZM42.0877 118.435C39.0353 117.693 36.1559 116.848 33.4462 115.902L29.8197 126.287C32.8932 127.36 36.1183 128.305 39.4917 129.124L42.0877 118.435ZM33.4722 115.911C31.0816 115.063 29.0798 114 27.4135 112.759L20.8436 121.581C23.4917 123.553 26.4928 125.106 29.7937 126.278L33.4722 115.911ZM27.5182 112.839C26.0118 111.66 24.8056 110.229 23.8764 108.504L14.1912 113.719C15.8324 116.767 18.0226 119.375 20.7388 121.501L27.5182 112.839ZM23.9345 108.615C23.1924 107.158 22.6749 105.065 22.6749 102.092H11.6749C11.6749 106.28 12.3967 110.199 14.1331 113.608L23.9345 108.615ZM22.6749 102.092C22.6749 99.5027 23.2024 97.5831 24.0268 96.1268L14.4539 90.7082C12.5244 94.1171 11.6749 97.9807 11.6749 102.092H22.6749ZM24.0268 96.1268C24.9909 94.4235 26.2494 93.058 27.8409 91.9758L21.6555 82.8796C18.6571 84.9185 16.2437 87.5463 14.4539 90.7082L24.0268 96.1268ZM27.799 92.004C29.5496 90.8369 31.6281 89.9296 34.0991 89.3305L31.5075 78.6402C27.92 79.5099 24.6284 80.8974 21.6973 82.8515L27.799 92.004ZM34.156 89.3164C36.765 88.6544 39.5221 88.3149 42.442 88.3149V77.3149C38.6608 77.3149 34.9921 77.7557 31.4507 78.6543L34.156 89.3164ZM98.3353 56.8594V51.3594H92.8353V56.8594H98.3353ZM110.177 56.8594H115.677V51.3594H110.177V56.8594ZM110.177 116.481H104.677V130.183L114.151 120.284L110.177 116.481ZM142.398 82.8149L146.234 78.8739L142.26 75.0048L138.424 79.0121L142.398 82.8149ZM150.178 90.3882L154.123 94.2201L157.951 90.2792L154.014 86.4471L150.178 90.3882ZM122.294 119.098L118.349 115.266L114.662 119.062L118.313 122.893L122.294 119.098ZM157.475 156V161.5H170.318L161.456 152.205L157.475 156ZM142.742 156L138.747 159.78L140.374 161.5H142.742V156ZM110.177 121.576L114.173 117.796L104.677 107.759V121.576H110.177ZM110.177 156V161.5H115.677V156H110.177ZM98.3353 156H92.8353V161.5H98.3353V156ZM98.3353 62.3594H110.177V51.3594H98.3353V62.3594ZM104.677 56.8594V116.481H115.677V56.8594H104.677ZM114.151 120.284L146.371 86.6178L138.424 79.0121L106.204 112.679L114.151 120.284ZM138.561 86.756L146.341 94.3292L154.014 86.4471L146.234 78.8739L138.561 86.756ZM146.232 86.5563L118.349 115.266L126.24 122.93L154.123 94.2201L146.232 86.5563ZM118.313 122.893L153.495 159.795L161.456 152.205L126.275 115.303L118.313 122.893ZM157.475 150.5H142.742V161.5H157.475V150.5ZM146.738 152.22L114.173 117.796L106.182 125.356L138.747 159.78L146.738 152.22ZM104.677 121.576V156H115.677V121.576H104.677ZM110.177 150.5H98.3353V161.5H110.177V150.5ZM103.835 156V56.8594H92.8353V156H103.835ZM193.472 58.856L197.473 55.0829L197.361 54.9634L197.241 54.8509L193.472 58.856ZM182.318 70.0781L186.208 66.189L186.149 66.1301L186.088 66.073L182.318 70.0781ZM182.318 58.856L178.549 54.8509L178.488 54.908L178.429 54.9669L182.318 58.856ZM181.905 84.3984V78.8984H176.405V84.3984H181.905ZM193.747 84.3984H199.247V78.8984H193.747V84.3984ZM193.747 156V161.5H199.247V156H193.747ZM181.905 156H176.405V161.5H181.905V156ZM187.964 62.1528C188.651 62.1528 189.145 62.3365 189.702 62.8611L197.241 54.8509C194.677 52.4379 191.5 51.1528 187.964 51.1528V62.1528ZM189.47 62.629C190.047 63.2415 190.244 63.7831 190.244 64.5015H201.244C201.244 60.9053 199.925 57.6833 197.473 55.0829L189.47 62.629ZM190.244 64.5015C190.244 65.2924 190.033 65.7383 189.583 66.189L197.361 73.9672C199.939 71.3887 201.244 68.1167 201.244 64.5015H190.244ZM189.583 66.189C189.002 66.7702 188.545 66.9189 187.964 66.9189V77.9189C191.606 77.9189 194.821 76.5072 197.361 73.9672L189.583 66.189ZM187.964 66.9189C187.222 66.9189 186.739 66.7201 186.208 66.189L178.429 73.9672C181.019 76.5572 184.299 77.9189 187.964 77.9189V66.9189ZM186.088 66.073C185.692 65.7 185.478 65.3183 185.478 64.5015H174.478C174.478 68.1827 175.824 71.5187 178.549 74.0832L186.088 66.073ZM185.478 64.5015C185.478 63.7599 185.676 63.2762 186.208 62.745L178.429 54.9669C175.839 57.5569 174.478 60.8368 174.478 64.5015H185.478ZM186.088 62.8611C186.597 62.382 187.118 62.1528 187.964 62.1528V51.1528C184.403 51.1528 181.161 52.3924 178.549 54.8509L186.088 62.8611ZM181.905 89.8984H193.747V78.8984H181.905V89.8984ZM188.247 84.3984V156H199.247V84.3984H188.247ZM193.747 150.5H181.905V161.5H193.747V150.5ZM187.405 156V84.3984H176.405V156H187.405ZM239.795 137.687L234.299 137.883L234.299 137.886L239.795 137.687ZM240.759 149.597L235.343 150.553L235.356 150.63L235.372 150.706L240.759 149.597ZM241.929 154.761L243.323 160.081L248.554 158.711L247.273 153.457L241.929 154.761ZM236.146 156.138L234.994 150.76L234.933 150.773L234.872 150.787L236.146 156.138ZM230.363 157.308L225.106 158.926L226.521 163.524L231.267 162.733L230.363 157.308ZM228.366 149.115L222.926 149.921L222.933 149.97L222.941 150.019L228.366 149.115ZM227.816 56.9971V51.4971H222.316V56.9971H227.816ZM239.658 56.9971H245.158V51.4971H239.658V56.9971ZM234.158 128.186C234.158 131.988 234.204 135.225 234.299 137.883L245.292 137.49C245.203 135.008 245.158 131.911 245.158 128.186H234.158ZM234.299 137.886C234.392 140.457 234.51 142.749 234.653 144.757L245.625 143.973C245.493 142.125 245.382 139.965 245.292 137.487L234.299 137.886ZM234.653 144.757C234.802 146.834 235.028 148.771 235.343 150.553L246.175 148.641C245.939 147.303 245.752 145.751 245.625 143.973L234.653 144.757ZM235.372 150.706C235.709 152.344 236.115 154.131 236.586 156.064L247.273 153.457C246.826 151.627 246.452 149.972 246.146 148.488L235.372 150.706ZM240.536 149.44C238.687 149.924 236.84 150.364 234.994 150.76L237.299 161.516C239.308 161.085 241.316 160.607 243.323 160.081L240.536 149.44ZM234.872 150.787C233.065 151.218 231.261 151.583 229.459 151.883L231.267 162.733C233.321 162.391 235.372 161.976 237.42 161.488L234.872 150.787ZM235.62 155.691C234.757 152.888 234.156 150.399 233.792 148.211L222.941 150.019C223.403 152.789 224.133 155.762 225.106 158.926L235.62 155.691ZM233.807 148.309C233.477 146.084 233.316 143.921 233.316 141.817H222.316C222.316 144.487 222.521 147.189 222.926 149.921L233.807 148.309ZM233.316 141.817V56.9971H222.316V141.817H233.316ZM227.816 62.4971H239.658V51.4971H227.816V62.4971ZM234.158 56.9971V128.186H245.158V56.9971H234.158ZM283.847 137.687L278.35 137.883L278.35 137.886L283.847 137.687ZM284.811 149.597L279.394 150.553L279.408 150.63L279.424 150.706L284.811 149.597ZM285.981 154.761L287.374 160.081L292.606 158.711L291.324 153.457L285.981 154.761ZM280.198 156.138L279.045 150.76L278.984 150.773L278.924 150.787L280.198 156.138ZM274.415 157.308L269.158 158.926L270.573 163.524L275.319 162.733L274.415 157.308ZM272.418 149.115L266.977 149.921L266.985 149.97L266.993 150.019L272.418 149.115ZM271.867 56.9971V51.4971H266.367V56.9971H271.867ZM283.709 56.9971H289.209V51.4971H283.709V56.9971ZM278.209 128.186C278.209 131.988 278.255 135.225 278.35 137.883L289.343 137.49C289.255 135.008 289.209 131.911 289.209 128.186H278.209ZM278.35 137.886C278.444 140.457 278.561 142.749 278.705 144.757L289.677 143.973C289.545 142.125 289.433 139.965 289.343 137.487L278.35 137.886ZM278.705 144.757C278.853 146.834 279.08 148.771 279.394 150.553L290.227 148.641C289.991 147.303 289.804 145.751 289.677 143.973L278.705 144.757ZM279.424 150.706C279.761 152.344 280.166 154.131 280.638 156.064L291.324 153.457C290.878 151.627 290.503 149.972 290.198 148.488L279.424 150.706ZM284.587 149.44C282.739 149.924 280.891 150.364 279.045 150.76L281.35 161.516C283.36 161.085 285.368 160.607 287.374 160.081L284.587 149.44ZM278.924 150.787C277.117 151.218 275.312 151.583 273.51 151.883L275.319 162.733C277.372 162.391 279.423 161.976 281.472 161.488L278.924 150.787ZM279.671 155.691C278.809 152.888 278.208 150.399 277.843 148.211L266.993 150.019C267.454 152.789 268.184 155.762 269.158 158.926L279.671 155.691ZM277.859 148.309C277.529 146.084 277.367 143.921 277.367 141.817H266.367C266.367 144.487 266.573 147.189 266.977 149.921L277.859 148.309ZM277.367 141.817V56.9971H266.367V141.817H277.367ZM271.867 62.4971H283.709V51.4971H271.867V62.4971ZM278.209 56.9971V128.186H289.209V56.9971H278.209Z" fill="#1F2029" />
  <defs>
    <filter id="filter0_iiiii_1_12" x="310" y="-30" width="273" height="241" filterUnits="userSpaceOnUse" color-interpolation-filters="sRGB">
      <feFlood flood-opacity="0" result="BackgroundImageFix" />
      <feBlend mode="normal" in="SourceGraphic" in2="BackgroundImageFix" result="shape" />
      <feColorMatrix in="SourceAlpha" type="matrix" values="0 0 0 0 0 0 0 0 0 0 0 0 0 0 0 0 0 0 127 0" result="hardAlpha" />
      <feOffset dy="20" />
      <feGaussianBlur stdDeviation="20" />
      <feComposite in2="hardAlpha" operator="arithmetic" k2="-1" k3="1" />
      <feColorMatrix type="matrix" values="0 0 0 0 1 0 0 0 0 1 0 0 0 0 1 0 0 0 0.5 0" />
      <feBlend mode="overlay" in2="shape" result="effect1_innerShadow_1_12" />
      <feColorMatrix in="SourceAlpha" type="matrix" values="0 0 0 0 0 0 0 0 0 0 0 0 0 0 0 0 0 0 127 0" result="hardAlpha" />
      <feOffset dy="-30" />
      <feGaussianBlur stdDeviation="30" />
      <feComposite in2="hardAlpha" operator="arithmetic" k2="-1" k3="1" />
      <feColorMatrix type="matrix" values="0 0 0 0 0 0 0 0 0 0 0 0 0 0 0 0 0 0 0.5 0" />
      <feBlend mode="overlay" in2="effect1_innerShadow_1_12" result="effect2_innerShadow_1_12" />
      <feColorMatrix in="SourceAlpha" type="matrix" values="0 0 0 0 0 0 0 0 0 0 0 0 0 0 0 0 0 0 127 0" result="hardAlpha" />
      <feOffset dy="5" />
      <feGaussianBlur stdDeviation="7.5" />
      <feComposite in2="hardAlpha" operator="arithmetic" k2="-1" k3="1" />
      <feColorMatrix type="matrix" values="0 0 0 0 1 0 0 0 0 1 0 0 0 0 1 0 0 0 0.7 0" />
      <feBlend mode="overlay" in2="effect2_innerShadow_1_12" result="effect3_innerShadow_1_12" />
      <feColorMatrix in="SourceAlpha" type="matrix" values="0 0 0 0 0 0 0 0 0 0 0 0 0 0 0 0 0 0 127 0" result="hardAlpha" />
      <feOffset dy="-40" />
      <feGaussianBlur stdDeviation="10" />
      <feComposite in2="hardAlpha" operator="arithmetic" k2="-1" k3="1" />
      <feColorMatrix type="matrix" values="0 0 0 0 0 0 0 0 0 0 0 0 0 0 0 0 0 0 0.15 0" />
      <feBlend mode="overlay" in2="effect3_innerShadow_1_12" result="effect4_innerShadow_1_12" />
      <feColorMatrix in="SourceAlpha" type="matrix" values="0 0 0 0 0 0 0 0 0 0 0 0 0 0 0 0 0 0 127 0" result="hardAlpha" />
      <feOffset dy="20" />
      <feGaussianBlur stdDeviation="10" />
      <feComposite in2="hardAlpha" operator="arithmetic" k2="-1" k3="1" />
      <feColorMatrix type="matrix" values="0 0 0 0 1 0 0 0 0 1 0 0 0 0 1 0 0 0 0.25 0" />
      <feBlend mode="overlay" in2="effect4_innerShadow_1_12" result="effect5_innerShadow_1_12" />
    </filter>
  </defs>
</svg>