<svg width="190" height="190" viewBox="0 0 190 190" fill="none" xmlns="http://www.w3.org/2000/svg">
<g filter="url(#filter0_iiiii_3_3)">
<rect width="190" height="190" rx="66" fill="#F558A1"/>
</g>
<path d="M94.9087 47.939C99.9002 47.939 104.892 48.4564 109.883 49.4912C114.936 50.526 119.623 51.9565 123.945 53.7827C123.093 55.7306 122.21 57.6481 121.297 59.5352C120.384 61.4222 119.379 63.2788 118.284 65.105C116.762 64.4963 115.057 63.8875 113.17 63.2788C111.344 62.6701 109.396 62.1527 107.327 61.7266C105.318 61.3005 103.218 60.9657 101.026 60.7222C98.8958 60.4178 96.7957 60.2656 94.7261 60.2656C92.4738 60.2656 90.2824 60.5091 88.1519 60.9961C86.0822 61.4222 84.2256 62.1527 82.582 63.1875C80.9993 64.2223 79.721 65.592 78.7471 67.2964C77.7731 68.9399 77.2861 71.0096 77.2861 73.5054C77.2861 76.062 77.834 78.223 78.9297 79.9883C80.0254 81.6927 81.5168 83.1232 83.4038 84.2798C85.2909 85.4364 87.4823 86.4103 89.978 87.2017C92.5347 87.993 95.2435 88.7235 98.1045 89.3931C102.548 90.4888 106.688 91.7367 110.522 93.1367C114.357 94.4759 117.675 96.2412 120.475 98.4326C123.275 100.624 125.467 103.333 127.049 106.559C128.632 109.785 129.423 113.772 129.423 118.521C129.423 123.512 128.419 127.804 126.41 131.395C124.462 134.986 121.784 137.969 118.375 140.343C115.027 142.656 111.101 144.361 106.596 145.457C102.092 146.613 97.2827 147.191 92.1694 147.191C89.491 147.191 86.7214 147.009 83.8604 146.644C81.0602 146.339 78.2601 145.852 75.46 145.183C72.7207 144.574 70.0119 143.813 67.3335 142.9C64.6551 141.987 62.1289 140.982 59.7549 139.887C60.6071 137.939 61.4897 136.052 62.4028 134.226C63.3768 132.339 64.3812 130.482 65.416 128.656C67.4248 129.508 69.5553 130.33 71.8076 131.121C74.0599 131.852 76.373 132.491 78.7471 133.039C81.1211 133.586 83.4647 134.043 85.7778 134.408C88.091 134.713 90.3128 134.865 92.4434 134.865C95.1217 134.865 97.7088 134.56 100.205 133.952C102.761 133.343 105.014 132.399 106.961 131.121C108.97 129.782 110.553 128.077 111.709 126.008C112.927 123.938 113.536 121.442 113.536 118.521C113.536 115.781 112.957 113.529 111.801 111.764C110.705 109.998 109.214 108.537 107.327 107.381C105.44 106.163 103.218 105.189 100.661 104.459C98.1654 103.668 95.5174 102.937 92.7173 102.268C88.4562 101.233 84.4082 100.046 80.5732 98.7065C76.7992 97.3674 73.4816 95.6325 70.6206 93.502C67.8205 91.3105 65.5682 88.6322 63.8638 85.4668C62.2202 82.2406 61.3984 78.2534 61.3984 73.5054C61.3984 69.0617 62.3115 65.2267 64.1377 62.0005C65.9639 58.7743 68.3988 56.1263 71.4424 54.0566C74.5469 51.987 78.1079 50.4652 82.1255 49.4912C86.2039 48.4564 90.465 47.939 94.9087 47.939Z" fill="white"/>
<path d="M109.883 49.4912L108.767 54.8767L108.78 54.8794L109.883 49.4912ZM123.945 53.7827L128.984 55.9872L131.216 50.8843L126.086 48.7164L123.945 53.7827ZM118.284 65.105L116.241 70.2116L120.59 71.9512L123 67.9347L118.284 65.105ZM113.17 63.2788L111.431 68.4966L111.456 68.505L111.482 68.5132L113.17 63.2788ZM107.327 61.7266L106.185 67.1069L106.201 67.1103L106.218 67.1136L107.327 61.7266ZM101.026 60.7222L100.249 66.1669L100.334 66.179L100.419 66.1885L101.026 60.7222ZM88.1519 60.9961L89.2609 66.3831L89.3193 66.3711L89.3774 66.3578L88.1519 60.9961ZM82.582 63.1875L79.6516 58.5332L79.6116 58.5584L79.5722 58.5842L82.582 63.1875ZM78.7471 67.2964L83.4787 70.1003L83.5008 70.0629L83.5224 70.0252L78.7471 67.2964ZM78.9297 79.9883L74.2567 82.8888L74.2796 82.9258L74.3032 82.9624L78.9297 79.9883ZM89.978 87.2017L88.3157 92.4444L88.3337 92.4501L88.3518 92.4557L89.978 87.2017ZM98.1045 89.3931L99.4212 84.053L99.3896 84.0452L99.3579 84.0378L98.1045 89.3931ZM110.522 93.1367L108.636 98.3032L108.673 98.3165L108.709 98.3292L110.522 93.1367ZM126.41 131.395L121.61 128.71L121.593 128.741L121.575 128.773L126.41 131.395ZM118.375 140.343L121.501 144.868L121.51 144.862L121.518 144.857L118.375 140.343ZM106.596 145.457L105.296 140.112L105.262 140.121L105.228 140.129L106.596 145.457ZM83.8604 146.644L84.5568 141.188L84.5058 141.181L84.4547 141.176L83.8604 146.644ZM75.46 145.183L76.7391 139.833L76.6962 139.823L76.6531 139.814L75.46 145.183ZM59.7549 139.887L54.716 137.682L52.5552 142.621L57.4501 144.88L59.7549 139.887ZM62.4028 134.226L57.5154 131.703L57.4992 131.734L57.4835 131.766L62.4028 134.226ZM65.416 128.656L67.564 123.593L63.0489 121.677L60.6309 125.944L65.416 128.656ZM71.8076 131.121L69.9844 136.31L70.0474 136.332L70.1108 136.353L71.8076 131.121ZM85.7778 134.408L84.92 139.841L84.9901 139.852L85.0603 139.861L85.7778 134.408ZM100.205 133.952L98.9307 128.601L98.916 128.605L98.9013 128.608L100.205 133.952ZM106.961 131.121L109.979 135.719L109.996 135.708L110.012 135.697L106.961 131.121ZM111.709 126.008L106.969 123.219L106.938 123.272L106.908 123.325L111.709 126.008ZM111.801 111.764L107.128 114.664L107.163 114.721L107.2 114.778L111.801 111.764ZM107.327 107.381L104.345 112.002L104.398 112.037L104.453 112.07L107.327 107.381ZM100.661 104.459L98.9988 109.702L99.0742 109.726L99.1502 109.747L100.661 104.459ZM92.7173 102.268L91.4193 107.612L91.4287 107.615L91.4381 107.617L92.7173 102.268ZM80.5732 98.7065L78.734 103.89L78.747 103.895L78.76 103.899L80.5732 98.7065ZM70.6206 93.502L67.2309 97.8332L67.2828 97.8738L67.3356 97.9132L70.6206 93.502ZM63.8638 85.4668L58.9631 87.9634L58.9915 88.0192L59.0212 88.0743L63.8638 85.4668ZM71.4424 54.0566L68.3915 49.4804L68.3705 49.4944L68.3497 49.5085L71.4424 54.0566ZM82.1255 49.4912L83.4213 54.8364L83.4498 54.8295L83.4781 54.8223L82.1255 49.4912ZM94.9087 53.439C99.5172 53.439 104.135 53.9164 108.767 54.8767L111 44.1057C105.649 42.9964 100.283 42.439 94.9087 42.439V53.439ZM108.78 54.8794C113.511 55.8485 117.847 57.1772 121.804 58.849L126.086 48.7164C121.398 46.7359 116.36 45.2036 110.987 44.1031L108.78 54.8794ZM118.906 51.5782C118.081 53.4628 117.228 55.3165 116.346 57.1396L126.248 61.9307C127.192 59.9797 128.104 57.9985 128.984 55.9872L118.906 51.5782ZM116.346 57.1396C115.506 58.8761 114.58 60.588 113.567 62.2753L123 67.9347C124.179 65.9696 125.262 63.9683 126.248 61.9307L116.346 57.1396ZM120.326 59.9984C118.667 59.3346 116.842 58.684 114.859 58.0444L111.482 68.5132C113.273 69.0911 114.857 69.6579 116.241 70.2116L120.326 59.9984ZM114.91 58.0611C112.858 57.3772 110.698 56.8054 108.436 56.3395L106.218 67.1136C108.094 67.5 109.83 67.963 111.431 68.4966L114.91 58.0611ZM108.468 56.3463C106.27 55.8801 103.991 55.5178 101.634 55.2558L100.419 66.1885C102.444 66.4135 104.365 66.7208 106.185 67.1069L108.468 56.3463ZM101.804 55.2774C99.4262 54.9377 97.0661 54.7656 94.7261 54.7656V65.7656C96.5254 65.7656 98.3654 65.8979 100.249 66.1669L101.804 55.2774ZM94.7261 54.7656C92.074 54.7656 89.471 55.0527 86.9263 55.6344L89.3774 66.3578C91.0938 65.9655 92.8736 65.7656 94.7261 65.7656V54.7656ZM87.0428 55.6091C84.3839 56.1565 81.9006 57.1172 79.6516 58.5332L85.5125 67.8418C86.5506 67.1882 87.7805 66.6879 89.2609 66.3831L87.0428 55.6091ZM79.5722 58.5842C77.2328 60.1138 75.3605 62.1372 73.9717 64.5676L83.5224 70.0252C84.0815 69.0467 84.7659 68.3309 85.5919 67.7908L79.5722 58.5842ZM74.0155 64.4925C72.4069 67.207 71.7861 70.3179 71.7861 73.5054H82.7861C82.7861 71.7013 83.1394 70.6729 83.4787 70.1003L74.0155 64.4925ZM71.7861 73.5054C71.7861 76.8508 72.5081 80.0716 74.2567 82.8888L83.6027 77.0878C83.1599 76.3743 82.7861 75.2732 82.7861 73.5054H71.7861ZM74.3032 82.9624C75.8867 85.4256 78.003 87.4205 80.5297 88.9691L86.2779 79.5905C85.0305 78.8259 84.1641 77.9598 83.5562 77.0141L74.3032 82.9624ZM80.5297 88.9691C82.8585 90.3964 85.4701 91.5422 88.3157 92.4444L91.6404 81.9589C89.4944 81.2785 87.7232 80.4763 86.2779 79.5905L80.5297 88.9691ZM88.3518 92.4557C91.0427 93.2886 93.8767 94.0522 96.8511 94.7484L99.3579 84.0378C96.6103 83.3947 94.0266 82.6974 91.6043 81.9476L88.3518 92.4557ZM96.7878 94.7331C101.061 95.7869 105.009 96.9788 108.636 98.3032L112.409 87.9703C108.366 86.4945 104.035 85.1907 99.4212 84.053L96.7878 94.7331ZM108.709 98.3292C112.055 99.4975 114.822 100.993 117.085 102.764L123.865 94.1013C120.528 91.4897 116.66 89.4543 112.336 87.9442L108.709 98.3292ZM117.085 102.764C119.225 104.438 120.89 106.492 122.111 108.981L131.987 104.137C130.043 100.174 127.326 96.8097 123.865 94.1013L117.085 102.764ZM122.111 108.981C123.225 111.252 123.923 114.354 123.923 118.521H134.923C134.923 113.191 134.039 108.319 131.987 104.137L122.111 108.981ZM123.923 118.521C123.923 122.771 123.072 126.097 121.61 128.71L131.21 134.08C133.766 129.51 134.923 124.253 134.923 118.521H123.923ZM121.575 128.773C120.043 131.598 117.949 133.937 115.232 135.83L121.518 144.857C125.618 142.001 128.881 138.375 131.245 134.017L121.575 128.773ZM115.249 135.818C112.526 137.7 109.237 139.154 105.296 140.112L107.896 150.801C112.964 149.568 117.528 147.613 121.501 144.868L115.249 135.818ZM105.228 140.129C101.213 141.16 96.8666 141.691 92.1694 141.691V152.691C97.6988 152.691 102.971 152.066 107.964 150.784L105.228 140.129ZM92.1694 141.691C89.7409 141.691 87.2043 141.526 84.5568 141.188L83.1639 152.099C86.2384 152.492 89.2412 152.691 92.1694 152.691V141.691ZM84.4547 141.176C81.8901 140.897 79.3187 140.45 76.7391 139.833L74.1808 150.532C77.2015 151.254 80.2303 151.781 83.266 152.111L84.4547 141.176ZM76.6531 139.814C74.1122 139.249 71.5975 138.543 69.1082 137.694L65.5588 148.106C68.4263 149.083 71.3292 149.899 74.2668 150.552L76.6531 139.814ZM69.1082 137.694C66.5955 136.838 64.2474 135.903 62.0597 134.893L57.4501 144.88C60.0104 146.062 62.7147 147.136 65.5588 148.106L69.1082 137.694ZM64.7937 142.091C65.6099 140.226 66.4528 138.424 67.3222 136.685L57.4835 131.766C56.5267 133.679 55.6043 135.652 54.716 137.682L64.7937 142.091ZM67.2902 136.748C68.2317 134.924 69.202 133.13 70.2011 131.367L60.6309 125.944C59.5603 127.833 58.5219 129.753 57.5154 131.703L67.2902 136.748ZM63.268 133.719C65.3931 134.621 67.6326 135.484 69.9844 136.31L73.6308 125.932C71.478 125.176 69.4565 124.395 67.564 123.593L63.268 133.719ZM70.1108 136.353C72.5189 137.134 74.9857 137.815 77.5103 138.398L79.9838 127.679C77.7604 127.166 75.6009 126.569 73.5044 125.889L70.1108 136.353ZM77.5103 138.398C80.0048 138.973 82.4748 139.455 84.92 139.841L86.6356 128.976C84.4546 128.631 82.2374 128.199 79.9838 127.679L77.5103 138.398ZM85.0603 139.861C87.5892 140.194 90.0515 140.365 92.4434 140.365V129.365C90.5741 129.365 88.5927 129.231 86.4953 128.955L85.0603 139.861ZM92.4434 140.365C95.5421 140.365 98.5677 140.012 101.508 139.295L98.9013 128.608C96.85 129.109 94.7013 129.365 92.4434 129.365V140.365ZM101.479 139.302C104.577 138.564 107.434 137.389 109.979 135.719L103.944 126.523C102.593 127.409 100.946 128.122 98.9307 128.601L101.479 139.302ZM110.012 135.697C112.733 133.884 114.921 131.536 116.511 128.691L106.908 123.325C106.185 124.619 105.208 125.68 103.911 126.545L110.012 135.697ZM116.45 128.796C118.262 125.716 119.036 122.211 119.036 118.521H108.036C108.036 120.674 107.592 122.161 106.969 123.219L116.45 128.796ZM119.036 118.521C119.036 115.025 118.296 111.642 116.401 108.75L107.2 114.778C107.618 115.416 108.036 116.537 108.036 118.521H119.036ZM116.474 108.863C114.897 106.322 112.77 104.266 110.201 102.692L104.453 112.07C105.658 112.809 106.513 113.674 107.128 114.664L116.474 108.863ZM110.308 102.759C107.892 101.2 105.156 100.023 102.172 99.1706L99.1502 109.747C101.279 110.356 102.987 111.127 104.345 112.002L110.308 102.759ZM102.323 99.2162C99.6896 98.3811 96.913 97.6158 93.9964 96.9184L91.4381 107.617C94.1218 108.259 96.6412 108.954 98.9988 109.702L102.323 99.2162ZM94.0153 96.9229C89.9147 95.9271 86.0396 94.7897 82.3865 93.514L78.76 103.899C82.7768 105.302 86.9977 106.538 91.4193 107.612L94.0153 96.9229ZM82.4125 93.5232C79.0936 92.3455 76.2756 90.8557 73.9056 89.0907L67.3356 97.9132C70.6876 100.409 74.5047 102.389 78.734 103.89L82.4125 93.5232ZM74.0103 89.1707C71.8151 87.4527 70.0548 85.3635 68.7064 82.8592L59.0212 88.0743C61.0816 91.9008 63.8259 95.1684 67.2309 97.8332L74.0103 89.1707ZM68.7645 82.9702C67.618 80.7198 66.8984 77.6457 66.8984 73.5054H55.8984C55.8984 78.8611 56.8224 83.7613 58.9631 87.9634L68.7645 82.9702ZM66.8984 73.5054C66.8984 69.8227 67.6505 66.9597 68.9241 64.7098L59.3513 59.2912C56.9725 63.4937 55.8984 68.3007 55.8984 73.5054H66.8984ZM68.9241 64.7098C70.3375 62.2128 72.1949 60.1961 74.5351 58.6047L68.3497 49.5085C64.6026 52.0566 61.5903 55.3357 59.3513 59.2912L68.9241 64.7098ZM74.4932 58.6329C77.0075 56.9567 79.962 55.675 83.4213 54.8364L80.8297 44.146C76.2539 45.2553 72.0862 47.0172 68.3915 49.4804L74.4932 58.6329ZM83.4781 54.8223C87.0904 53.9057 90.8956 53.439 94.9087 53.439V42.439C90.0344 42.439 85.3175 43.007 80.7728 44.1601L83.4781 54.8223Z" fill="white"/>
<defs>
<filter id="filter0_iiiii_3_3" x="0" y="-30" width="190" height="240" filterUnits="userSpaceOnUse" color-interpolation-filters="sRGB">
<feFlood flood-opacity="0" result="BackgroundImageFix"/>
<feBlend mode="normal" in="SourceGraphic" in2="BackgroundImageFix" result="shape"/>
<feColorMatrix in="SourceAlpha" type="matrix" values="0 0 0 0 0 0 0 0 0 0 0 0 0 0 0 0 0 0 127 0" result="hardAlpha"/>
<feOffset dy="20"/>
<feGaussianBlur stdDeviation="20"/>
<feComposite in2="hardAlpha" operator="arithmetic" k2="-1" k3="1"/>
<feColorMatrix type="matrix" values="0 0 0 0 1 0 0 0 0 1 0 0 0 0 1 0 0 0 0.5 0"/>
<feBlend mode="overlay" in2="shape" result="effect1_innerShadow_3_3"/>
<feColorMatrix in="SourceAlpha" type="matrix" values="0 0 0 0 0 0 0 0 0 0 0 0 0 0 0 0 0 0 127 0" result="hardAlpha"/>
<feOffset dy="-30"/>
<feGaussianBlur stdDeviation="30"/>
<feComposite in2="hardAlpha" operator="arithmetic" k2="-1" k3="1"/>
<feColorMatrix type="matrix" values="0 0 0 0 0 0 0 0 0 0 0 0 0 0 0 0 0 0 0.5 0"/>
<feBlend mode="overlay" in2="effect1_innerShadow_3_3" result="effect2_innerShadow_3_3"/>
<feColorMatrix in="SourceAlpha" type="matrix" values="0 0 0 0 0 0 0 0 0 0 0 0 0 0 0 0 0 0 127 0" result="hardAlpha"/>
<feOffset dy="5"/>
<feGaussianBlur stdDeviation="7.5"/>
<feComposite in2="hardAlpha" operator="arithmetic" k2="-1" k3="1"/>
<feColorMatrix type="matrix" values="0 0 0 0 1 0 0 0 0 1 0 0 0 0 1 0 0 0 0.7 0"/>
<feBlend mode="overlay" in2="effect2_innerShadow_3_3" result="effect3_innerShadow_3_3"/>
<feColorMatrix in="SourceAlpha" type="matrix" values="0 0 0 0 0 0 0 0 0 0 0 0 0 0 0 0 0 0 127 0" result="hardAlpha"/>
<feOffset dy="-40"/>
<feGaussianBlur stdDeviation="10"/>
<feComposite in2="hardAlpha" operator="arithmetic" k2="-1" k3="1"/>
<feColorMatrix type="matrix" values="0 0 0 0 0 0 0 0 0 0 0 0 0 0 0 0 0 0 0.15 0"/>
<feBlend mode="overlay" in2="effect3_innerShadow_3_3" result="effect4_innerShadow_3_3"/>
<feColorMatrix in="SourceAlpha" type="matrix" values="0 0 0 0 0 0 0 0 0 0 0 0 0 0 0 0 0 0 127 0" result="hardAlpha"/>
<feOffset dy="20"/>
<feGaussianBlur stdDeviation="10"/>
<feComposite in2="hardAlpha" operator="arithmetic" k2="-1" k3="1"/>
<feColorMatrix type="matrix" values="0 0 0 0 1 0 0 0 0 1 0 0 0 0 1 0 0 0 0.25 0"/>
<feBlend mode="overlay" in2="effect4_innerShadow_3_3" result="effect5_innerShadow_3_3"/>
</filter>
</defs>
</svg>
