<svg width="273" height="273" viewBox="0 0 273 273" fill="none" xmlns="http://www.w3.org/2000/svg">
<rect width="273" height="273" rx="20" fill="#424242"/>
<path d="M53.9303 77.7133L93.1133 54.88C102.153 49.6123 113.5 56.1331 113.5 66.5956C113.5 71.4805 110.873 75.9878 106.622 78.3949L82.145 92.2552C75.8754 95.8055 72 102.454 72 109.659V162.964C72 170.103 75.8058 176.701 81.986 180.276L115.496 199.66C118.83 201.588 123 199.182 123 195.332V157.5C123 150.32 128.82 144.5 136 144.5C143.18 144.5 149 150.32 149 157.5V227.44C149 231.839 146.759 235.934 143.054 238.306C139.023 240.885 133.895 241.021 129.733 238.659L54.1279 195.748C47.8679 192.195 44 185.553 44 178.355V94.9934C44 87.8768 47.7816 81.2963 53.9303 77.7133Z" fill="white"/>
<path d="M149.5 77.595V117C149.5 124.456 143.456 130.5 136 130.5C128.544 130.5 122.5 124.456 122.5 117V45.7645C122.5 40.676 125.3 36.0002 129.785 33.5973C133.965 31.3583 139.001 31.4212 143.123 33.7639L217.882 76.2498C224.136 79.8043 228 86.444 228 93.638V177.977C228 185.109 224.201 191.702 218.031 195.279L178.956 217.931C170.096 223.068 159 216.674 159 206.433C159 201.814 161.398 197.527 165.333 195.109L190.97 179.355C196.892 175.717 200.5 169.265 200.5 162.315V109.635C200.5 102.442 196.638 95.8041 190.386 92.2489L156.972 73.2485C153.638 71.3531 149.5 73.7605 149.5 77.595Z" fill="white"/>
</svg>
