<svg width="1080" height="874" viewBox="0 0 1080 874" fill="none" xmlns="http://www.w3.org/2000/svg">
<g clip-path="url(#clip0_1:87)">
<rect width="1080" height="874" fill="white"/>
<path d="M976.343 706.797C979.844 667.875 951.129 633.483 912.207 629.982C873.284 626.481 838.893 655.196 835.392 694.118C831.891 733.041 860.606 767.432 899.528 770.933C938.451 774.434 972.842 745.72 976.343 706.797Z" stroke="#0E0E0E" stroke-width="3" stroke-miterlimit="10"/>
<path d="M953.489 752.81C925.309 721.46 898.989 681.81 873.759 637.41" stroke="#0E0E0E" stroke-width="3" stroke-miterlimit="10"/>
<path d="M962.409 743.04C934.349 711.47 909.809 673.8 887.409 632.14" stroke="#0E0E0E" stroke-width="3" stroke-miterlimit="10"/>
<path d="M969.979 730.47C943.929 702.41 922.979 667.92 904.889 629.33" stroke="#0E0E0E" stroke-width="3" stroke-miterlimit="10"/>
<path d="M974.669 717.05C953.299 691.66 935.219 662.47 919.419 630.63" stroke="#0E0E0E" stroke-width="3" stroke-miterlimit="10"/>
<path d="M976.899 700.8C962.989 680.72 949.259 659.33 936.239 636.53" stroke="#0E0E0E" stroke-width="3" stroke-miterlimit="10"/>
<path d="M929.729 724.01C915.319 737.35 907.059 751.73 899.579 770.95" stroke="#0E0E0E" stroke-width="3" stroke-miterlimit="10"/>
<path d="M920.239 711.01C903.889 728.15 893.479 745.49 883.359 767.56" stroke="#0E0E0E" stroke-width="3" stroke-miterlimit="10"/>
<path d="M940.269 736.49C929.609 746.49 922.799 757 917.469 770.29" stroke="#0E0E0E" stroke-width="3" stroke-miterlimit="10"/>
<path d="M948.729 747.7C948.729 747.7 940.829 756.44 939.019 762.98" stroke="#0E0E0E" stroke-width="3" stroke-miterlimit="10"/>
<path d="M911.239 697.1C893.359 714.64 880.959 734.92 868.599 760.63" stroke="#0E0E0E" stroke-width="3" stroke-miterlimit="10"/>
<path d="M876.799 745.45C868.099 744.12 861.359 744.68 852.349 746.75" stroke="#0E0E0E" stroke-width="3" stroke-miterlimit="10"/>
<path d="M884.729 729.68C868.669 727.02 858.139 728.32 842.669 732.26" stroke="#0E0E0E" stroke-width="3" stroke-miterlimit="10"/>
<path d="M895.099 715.19C873.589 712.46 857.289 713.68 837.099 717.26" stroke="#0E0E0E" stroke-width="3" stroke-miterlimit="10"/>
<path d="M907.999 700.66C882.609 695.92 859.299 695.94 834.729 701.45" stroke="#0E0E0E" stroke-width="3" stroke-miterlimit="10"/>
<path d="M902.469 685.48C880.408 682.703 858.067 683.009 836.089 686.39" stroke="#0E0E0E" stroke-width="3" stroke-miterlimit="10"/>
<path d="M895.729 673.98C877.279 669.13 860.659 669.75 840.399 673.6" stroke="#0E0E0E" stroke-width="3" stroke-miterlimit="10"/>
<path d="M888.519 662.57C875.059 658.18 862.519 658.41 846.719 661.57" stroke="#0E0E0E" stroke-width="3" stroke-miterlimit="10"/>
<path d="M882.219 651.81C873.961 648.554 864.9 647.922 856.269 650" stroke="#0E0E0E" stroke-width="3" stroke-miterlimit="10"/>
<path d="M670.529 336.68L708.809 276.97L716.809 365.82C703.289 351.35 684.099 340.79 670.529 336.68Z" fill="#ABABAB"/>
<path d="M733.339 486.71L787.969 520.71L679.119 528.71C697.729 523.08 729.409 500.35 733.339 486.71Z" fill="#ABABAB"/>
<path d="M576.779 359.48C754.729 325.35 810.229 534.35 604.729 545.79C403.479 557.49 216.989 557.72 227.099 405.18C238.919 313.03 329.559 244.18 420.099 287.75C470.729 314.85 479.199 373.44 576.779 359.48Z" fill="#D3D3D3"/>
<path d="M403.899 245.22C407.279 246.667 410.663 248.277 414.049 250.05C467.379 281.05 476.319 348.05 579.159 332.05C766.669 293.05 825.159 532.05 608.639 545.11C396.539 558.49 200.009 558.75 210.639 384.31C218.089 321.24 255.299 267.71 304.429 245.57" stroke="#0E0E0E" stroke-width="3" stroke-miterlimit="10"/>
<path d="M671.339 336.61L707.109 276.47C707.582 275.682 708.29 275.064 709.135 274.703C709.979 274.342 710.916 274.257 711.812 274.46C712.708 274.662 713.516 275.143 714.123 275.833C714.729 276.522 715.103 277.386 715.189 278.3L724.039 373.74" stroke="#0E0E0E" stroke-width="3" stroke-miterlimit="10"/>
<path d="M736.849 479.63L792.179 515.22C792.695 515.552 793.093 516.037 793.319 516.607C793.545 517.177 793.587 517.804 793.44 518.399C793.292 518.994 792.962 519.528 792.496 519.926C792.029 520.325 791.45 520.567 790.839 520.62L677.529 530.5" stroke="#0E0E0E" stroke-width="3" stroke-miterlimit="10"/>
<path d="M711.219 360.26L704.119 281.5" stroke="#0E0E0E" stroke-width="3" stroke-miterlimit="10"/>
<path d="M730.149 490.55L780.359 521.53" stroke="#0E0E0E" stroke-width="3" stroke-miterlimit="10"/>
<path d="M495.049 320.88C516.939 344.32 521.769 367.09 500.439 388.88C477.209 413.08 502.439 430.5 525.439 418.06C556.339 396.62 561.959 367.06 552.829 334.5" stroke="#0E0E0E" stroke-width="3" stroke-miterlimit="10"/>
<path d="M500.439 550.07C524.499 520.46 541.979 491.15 514.959 463.96C498.879 445.87 516.079 423.96 541.959 434.7C577.249 450.78 586.179 500.59 565.429 547.64" stroke="#0E0E0E" stroke-width="3" stroke-miterlimit="10"/>
<path d="M434.529 225.6L342.099 284.82C331.099 290.82 312.779 280.39 306.779 269.39C300.779 258.39 303.529 233.58 314.529 227.58L412.699 185.58C418.006 182.704 424.235 182.045 430.027 183.746C435.818 185.447 440.701 189.371 443.609 194.66V194.66C446.495 199.97 447.159 206.206 445.458 212.005C443.756 217.803 439.827 222.692 434.529 225.6V225.6Z" stroke="#0E0E0E" stroke-width="3" stroke-miterlimit="10"/>
<path d="M375.899 214.704L342.348 232.095C334.9 235.956 331.991 245.121 335.85 252.567C339.71 260.012 348.876 262.919 356.324 259.058L389.875 241.667C397.323 237.806 400.232 228.641 396.373 221.195C392.513 213.749 383.347 210.843 375.899 214.704Z" fill="#0E0E0E"/>
<path d="M412.13 191.212L408.728 196.903C407.787 198.476 408.301 200.515 409.874 201.456C411.448 202.397 413.487 201.883 414.427 200.31L417.829 194.619C418.77 193.045 418.257 191.006 416.683 190.066C415.109 189.125 413.071 189.638 412.13 191.212Z" stroke="#0E0E0E" stroke-width="3" stroke-miterlimit="10"/>
<path d="M421.881 221.837L428.382 223.138C430.18 223.498 431.93 222.332 432.29 220.534C432.649 218.736 431.484 216.987 429.686 216.627L423.185 215.326C421.387 214.966 419.638 216.132 419.278 217.93C418.918 219.728 420.084 221.477 421.881 221.837Z" stroke="#0E0E0E" stroke-width="3" stroke-miterlimit="10"/>
<path d="M429.509 205.758C431.096 204.93 431.711 202.973 430.883 201.386C430.056 199.8 428.099 199.185 426.512 200.012L420.776 203.005C419.189 203.832 418.574 205.79 419.402 207.376C420.229 208.963 422.186 209.578 423.773 208.75L429.509 205.758Z" stroke="#0E0E0E" stroke-width="3" stroke-miterlimit="10"/>
<path d="M428.839 443.55L323.189 413.75C311.399 409.51 307.039 388.88 311.279 377.09C315.519 365.3 335.899 350.89 347.689 355.09L444.249 400.63C449.922 402.689 454.55 406.91 457.123 412.369C459.695 417.829 460.003 424.084 457.979 429.77V429.77C455.93 435.452 451.714 440.092 446.253 442.674C440.793 445.256 434.532 445.571 428.839 443.55V443.55Z" stroke="#0E0E0E" stroke-width="3" stroke-miterlimit="10"/>
<path d="M398.033 392.474L362.753 378.931C354.921 375.925 346.135 379.834 343.13 387.664C340.124 395.493 344.037 404.277 351.869 407.284L387.149 420.827C394.981 423.833 403.767 419.923 406.772 412.094C409.777 404.264 405.865 395.48 398.033 392.474Z" fill="#0E0E0E"/>
<path d="M439.657 403.983L433.143 405.217C431.341 405.558 430.158 407.296 430.499 409.097C430.841 410.899 432.578 412.082 434.379 411.741L440.893 410.507C442.695 410.165 443.879 408.428 443.537 406.627C443.196 404.825 441.459 403.641 439.657 403.983Z" stroke="#0E0E0E" stroke-width="3" stroke-miterlimit="10"/>
<path d="M423.256 431.585L426.599 437.311C427.523 438.894 429.556 439.428 431.14 438.504C432.723 437.579 433.257 435.546 432.333 433.963L428.99 428.237C428.065 426.654 426.032 426.12 424.449 427.044C422.865 427.969 422.331 430.002 423.256 431.585Z" stroke="#0E0E0E" stroke-width="3" stroke-miterlimit="10"/>
<path d="M440.324 426.626C441.996 427.263 443.868 426.424 444.505 424.751C445.142 423.079 444.303 421.207 442.631 420.57L436.584 418.268C434.912 417.631 433.04 418.47 432.403 420.142C431.766 421.814 432.606 423.686 434.278 424.323L440.324 426.626Z" stroke="#0E0E0E" stroke-width="3" stroke-miterlimit="10"/>
<path d="M211.859 433.83C134.039 447.76 90.6694 566.69 171.289 612.58C230.829 644.35 477.099 610.7 474.629 628.66C473.759 645.24 382.629 646.43 332.519 651.44C261.799 656.26 272.429 687.83 322.959 690.3C504.399 693.91 568.509 630.95 499.579 595.81C464.349 580.35 340.389 583.27 234.729 586.35C159.329 585.69 173.449 479.35 219.009 463.23" fill="#D3D3D3"/>
<path d="M210.249 418.65C133.929 432.57 91.3994 551.5 170.459 597.35C228.849 629.12 470.359 595.47 467.939 613.43C467.089 630.01 377.749 631.2 328.579 636.21C259.229 641.03 269.649 672.6 319.199 675.07C497.129 678.68 559.999 615.72 492.409 580.58C457.859 565.09 336.289 568.04 232.669 571.11C158.729 570.45 172.579 464.11 217.249 447.99" stroke="#0E0E0E" stroke-width="3" stroke-miterlimit="10"/>
<path d="M675.239 407.42C690.731 407.42 703.289 394.862 703.289 379.37C703.289 363.878 690.731 351.32 675.239 351.32C659.748 351.32 647.189 363.878 647.189 379.37C647.189 394.862 659.748 407.42 675.239 407.42Z" stroke="#0E0E0E" stroke-width="3" stroke-miterlimit="10"/>
<path d="M675.239 399.52C686.368 399.52 695.389 390.499 695.389 379.37C695.389 368.241 686.368 359.22 675.239 359.22C664.111 359.22 655.089 368.241 655.089 379.37C655.089 390.499 664.111 399.52 675.239 399.52Z" fill="#0E0E0E"/>
<path d="M681.799 509.51C697.291 509.51 709.849 496.952 709.849 481.46C709.849 465.968 697.291 453.41 681.799 453.41C666.308 453.41 653.749 465.968 653.749 481.46C653.749 496.952 666.308 509.51 681.799 509.51Z" stroke="#0E0E0E" stroke-width="3" stroke-miterlimit="10"/>
<path d="M681.799 501.61C692.928 501.61 701.949 492.589 701.949 481.46C701.949 470.331 692.928 461.31 681.799 461.31C670.671 461.31 661.649 470.331 661.649 481.46C661.649 492.589 670.671 501.61 681.799 501.61Z" fill="#0E0E0E"/>
<path d="M657.819 419.73L667.449 429.36C667.777 429.691 667.961 430.139 667.961 430.605C667.961 431.071 667.777 431.519 667.449 431.85L657.819 441.48C657.488 441.808 657.041 441.992 656.574 441.992C656.108 441.992 655.661 441.808 655.329 441.48V419.73C655.661 419.402 656.108 419.218 656.574 419.218C657.041 419.218 657.488 419.402 657.819 419.73Z" fill="#231F20"/>
<path d="M614.479 417.71L621.729 430.6L612.179 443.41" stroke="#0E0E0E" stroke-width="3" stroke-linecap="round" stroke-linejoin="round"/>
<path d="M628.339 391.28C624.229 361.85 627.429 335.03 636.559 310.34" stroke="#0E0E0E" stroke-width="3" stroke-linecap="round" stroke-linejoin="round"/>
<path d="M620.199 390.53C610.809 356.27 612.279 324.38 622.119 294.32" stroke="#0E0E0E" stroke-width="3" stroke-linecap="round" stroke-linejoin="round"/>
<path d="M611.729 390.58C594.529 352.13 592.909 314.65 602.669 277.88" stroke="#0E0E0E" stroke-width="3" stroke-linecap="round" stroke-linejoin="round"/>
<path d="M631.999 475.77C627.889 505.2 631.089 532.02 640.219 556.71" stroke="#0E0E0E" stroke-width="3" stroke-linecap="round" stroke-linejoin="round"/>
<path d="M623.859 476.52C614.469 510.78 615.939 542.67 625.779 572.73" stroke="#0E0E0E" stroke-width="3" stroke-linecap="round" stroke-linejoin="round"/>
<path d="M615.359 476.47C598.159 514.92 596.539 552.4 606.299 589.17" stroke="#0E0E0E" stroke-width="3" stroke-linecap="round" stroke-linejoin="round"/>
<path d="M218.409 349.1C204.729 346.6 159.309 391.37 128.179 369.1C20.7294 294.98 0.149399 661.51 210.249 637.3C324.039 625.05 386.089 633.44 344.579 574.1C309.729 516.24 496.449 401.65 520.989 433.2" stroke="#0E0E0E" stroke-width="6" stroke-linejoin="round"/>
<path d="M882.809 538.21C819.979 540.26 800.059 548.98 811.339 562.53C865.449 648.25 775.599 567.03 567.449 656.46C445.939 692.25 343.209 531.74 435.659 371.35C528.659 240.3 475.229 183.87 443.609 193.7" stroke="#0E0E0E" stroke-width="6" stroke-miterlimit="10"/>
<path d="M888.059 524.84H886.819C884.605 524.84 882.809 526.635 882.809 528.85V546.83C882.809 549.045 884.605 550.84 886.819 550.84H888.059C890.274 550.84 892.069 549.045 892.069 546.83V528.85C892.069 526.635 890.274 524.84 888.059 524.84Z" stroke="#0E0E0E" stroke-width="3" stroke-miterlimit="10"/>
<path d="M924.249 519.76H900.499C895.844 519.76 892.069 523.534 892.069 528.19V545.19C892.069 549.846 895.844 553.62 900.499 553.62H924.249C928.905 553.62 932.679 549.846 932.679 545.19V528.19C932.679 523.534 928.905 519.76 924.249 519.76Z" stroke="#0E0E0E" stroke-width="3" stroke-miterlimit="10"/>
<path d="M932.679 528.04H945.859C946.39 528.04 946.898 528.251 947.274 528.626C947.649 529.001 947.859 529.51 947.859 530.04C947.859 530.57 947.649 531.079 947.274 531.454C946.898 531.829 946.39 532.04 945.859 532.04H932.679V528.12V528.04Z" stroke="#0E0E0E" stroke-width="3" stroke-miterlimit="10"/>
<path d="M932.679 542.41H945.859C946.39 542.41 946.898 542.621 947.274 542.996C947.649 543.371 947.859 543.88 947.859 544.41C947.859 544.94 947.649 545.449 947.274 545.824C946.898 546.199 946.39 546.41 945.859 546.41H932.679V542.49V542.41Z" stroke="#0E0E0E" stroke-width="3" stroke-miterlimit="10"/>
<path d="M937.149 394.49H867.839C862.289 394.49 857.789 398.99 857.789 404.54V455.62C857.789 461.17 862.289 465.67 867.839 465.67H937.149C942.7 465.67 947.199 461.17 947.199 455.62V404.54C947.199 398.99 942.7 394.49 937.149 394.49Z" fill="#ABABAB"/>
<path d="M941.489 385.22H886.299C880.379 385.22 875.579 390.02 875.579 395.94V451.13C875.579 457.051 880.379 461.85 886.299 461.85H941.489C947.41 461.85 952.209 457.051 952.209 451.13V395.94C952.209 390.02 947.41 385.22 941.489 385.22Z" stroke="#0E0E0E" stroke-width="3" stroke-miterlimit="10"/>
<path d="M936.229 392.52H891.559C886.766 392.52 882.879 396.406 882.879 401.2V445.87C882.879 450.664 886.766 454.55 891.559 454.55H936.229C941.023 454.55 944.909 450.664 944.909 445.87V401.2C944.909 396.406 941.023 392.52 936.229 392.52Z" stroke="#0E0E0E" stroke-width="3" stroke-miterlimit="10"/>
<path d="M903.459 428.21C906.155 428.21 908.339 426.025 908.339 423.33C908.339 420.635 906.155 418.45 903.459 418.45C900.764 418.45 898.579 420.635 898.579 423.33C898.579 426.025 900.764 428.21 903.459 428.21Z" stroke="#0E0E0E" stroke-width="3" stroke-miterlimit="10"/>
<path d="M922.969 428.21C925.665 428.21 927.849 426.025 927.849 423.33C927.849 420.635 925.665 418.45 922.969 418.45C920.274 418.45 918.089 420.635 918.089 423.33C918.089 426.025 920.274 428.21 922.969 428.21Z" stroke="#0E0E0E" stroke-width="3" stroke-miterlimit="10"/>
<path d="M913.899 447.77C927.281 447.77 938.129 436.922 938.129 423.54C938.129 410.158 927.281 399.31 913.899 399.31C900.517 399.31 889.669 410.158 889.669 423.54C889.669 436.922 900.517 447.77 913.899 447.77Z" stroke="#0E0E0E" stroke-width="3" stroke-miterlimit="10"/>
<path d="M683.839 394.49C686.446 394.49 688.559 392.377 688.559 389.77C688.559 387.163 686.446 385.05 683.839 385.05C681.233 385.05 679.119 387.163 679.119 389.77C679.119 392.377 681.233 394.49 683.839 394.49Z" fill="white"/>
<path d="M691.349 494.68C693.956 494.68 696.069 492.567 696.069 489.96C696.069 487.353 693.956 485.24 691.349 485.24C688.743 485.24 686.629 487.353 686.629 489.96C686.629 492.567 688.743 494.68 691.349 494.68Z" fill="white"/>
<path d="M111.359 129.69L145.109 128.85" stroke="#0E0E0E" stroke-width="3" stroke-miterlimit="10" stroke-linecap="round"/>
<path d="M125.619 162.21L150.649 145.03" stroke="#0E0E0E" stroke-width="3" stroke-miterlimit="10" stroke-linecap="round"/>
<path d="M202.659 754.66C207.53 754.66 211.479 750.711 211.479 745.84C211.479 740.969 207.53 737.02 202.659 737.02C197.788 737.02 193.839 740.969 193.839 745.84C193.839 750.711 197.788 754.66 202.659 754.66Z" fill="#E2E2E2"/>
<path d="M175.369 803.8C185.565 803.8 193.829 795.535 193.829 785.34C193.829 775.145 185.565 766.88 175.369 766.88C165.174 766.88 156.909 775.145 156.909 785.34C156.909 795.535 165.174 803.8 175.369 803.8Z" fill="#E2E2E2"/>
<path d="M173.319 145.54C180.576 145.54 186.459 139.657 186.459 132.4C186.459 125.143 180.576 119.26 173.319 119.26C166.062 119.26 160.179 125.143 160.179 132.4C160.179 139.657 166.062 145.54 173.319 145.54Z" fill="#E2E2E2"/>
<path d="M194.019 160.66C198.195 160.66 201.579 157.275 201.579 153.1C201.579 148.925 198.195 145.54 194.019 145.54C189.844 145.54 186.459 148.925 186.459 153.1C186.459 157.275 189.844 160.66 194.019 160.66Z" fill="#E2E2E2"/>
<path d="M142.639 750.07C145.738 750.07 148.249 747.558 148.249 744.46C148.249 741.362 145.738 738.85 142.639 738.85C139.541 738.85 137.029 741.362 137.029 744.46C137.029 747.558 139.541 750.07 142.639 750.07Z" fill="#E2E2E2"/>
<path d="M853.819 96.9C863.457 96.9 871.269 89.0874 871.269 79.45C871.269 69.8126 863.457 62 853.819 62C844.182 62 836.369 69.8126 836.369 79.45C836.369 89.0874 844.182 96.9 853.819 96.9Z" fill="#E2E2E2"/>
<path d="M799.869 194.05C820.028 194.05 836.369 177.708 836.369 157.55C836.369 137.392 820.028 121.05 799.869 121.05C779.711 121.05 763.369 137.392 763.369 157.55C763.369 177.708 779.711 194.05 799.869 194.05Z" fill="#E2E2E2"/>
<path d="M735.149 87.83C741.28 87.83 746.249 82.8604 746.249 76.73C746.249 70.5997 741.28 65.63 735.149 65.63C729.019 65.63 724.049 70.5997 724.049 76.73C724.049 82.8604 729.019 87.83 735.149 87.83Z" fill="#E2E2E2"/>
<path d="M128.179 107.54L146.969 119.26" stroke="#0E0E0E" stroke-width="3" stroke-miterlimit="10" stroke-linecap="round"/>
<path d="M868.599 760.63C870.039 787.39 723.499 755.35 717.339 787.79" stroke="#231F20" stroke-width="3" stroke-miterlimit="10"/>
<path d="M979.889 345.92L968.309 363.51L964.039 357.82L953.149 376.04" stroke="#0E0E0E" stroke-width="3" stroke-linecap="round" stroke-linejoin="round"/>
<path d="M945.959 334.23L948.229 355.16L941.309 353.49L944.509 374.48" stroke="#0E0E0E" stroke-width="3" stroke-linecap="round" stroke-linejoin="round"/>
<path d="M996.079 372.58L976.639 380.68L976.289 373.57L957.059 382.58" stroke="#0E0E0E" stroke-width="3" stroke-linecap="round" stroke-linejoin="round"/>
<path d="M226.729 785.34H257.859" stroke="#0E0E0E" stroke-width="3" stroke-miterlimit="10" stroke-linecap="round"/>
<path d="M218.729 803.8L242.299 820.35" stroke="#0E0E0E" stroke-width="3" stroke-miterlimit="10" stroke-linecap="round"/>
</g>
<defs>
<clipPath id="clip0_1:87">
<rect width="1080" height="874" fill="white"/>
</clipPath>
</defs>
</svg>
