<svg viewBox="0 0 420 206" fill="none" xmlns="http://www.w3.org/2000/svg">
  <path d="M235.251 204.317C225.43 204.652 213.762 204.317 205.367 204.233C197.141 204.568 185.221 204.652 175.484 204.317C185.137 198.86 188.579 188.619 189.082 181.988H221.568C222.324 188.535 225.681 198.86 235.251 204.317Z" fill="#F1F3FA" stroke="#D6DDE8" stroke-width="2" stroke-miterlimit="10" />
  <path d="M266.645 96.702V180.813C266.645 182.911 264.966 184.59 263.12 184.59H148.202C146.187 184.59 144.677 182.911 144.677 180.813V96.702C144.677 94.6874 146.355 92.9246 148.202 92.9246H262.952C265.134 93.0924 266.645 94.7713 266.645 96.702Z" fill="white" stroke="#D6DDE8" stroke-width="2" stroke-miterlimit="10" />
  <path d="M266.645 96.7862V169.229H144.593V96.7862C144.593 94.7716 146.271 93.0088 148.118 93.0088H262.868C265.134 93.0927 266.645 94.7716 266.645 96.7862Z" fill="white" stroke="#D6DDE8" stroke-width="2" stroke-miterlimit="10" />
  <path d="M205.535 179.553C207.214 179.553 208.557 178.294 208.557 176.531C208.557 174.853 207.298 173.51 205.535 173.51C203.856 173.51 202.513 174.769 202.513 176.531C202.513 178.21 203.772 179.553 205.535 179.553Z" fill="#D6DDE8" />
  <path d="M24.4707 204.569H408.089" stroke="#D6DDE8" stroke-width="2" stroke-miterlimit="10" stroke-linecap="round" stroke-linejoin="round" />
  <path d="M280.16 143.29C283.182 143.29 285.616 140.856 285.616 137.834C285.616 134.812 283.182 132.378 280.16 132.378C277.138 132.378 274.704 134.812 274.704 137.834C274.788 140.856 277.138 143.29 280.16 143.29Z" fill="#F1F3FA" />
  <path d="M387.019 90.4901L387.775 90.1543" stroke="#D6DDE8" stroke-width="2" stroke-miterlimit="10" stroke-linecap="round" stroke-linejoin="round" />
  <path d="M387.104 108.202C387.355 107.95 387.523 107.782 387.607 107.698C387.607 107.698 388.195 107.195 388.195 107.111L388.614 106.775C388.95 106.607 389.538 106.02 390.545 105.768C392.224 105.264 393.231 105.768 393.819 105.684C393.903 105.684 394.071 105.6 394.071 105.6C394.239 105.516 394.407 105.432 394.407 105.432C394.91 105.012 394.742 105.012 397.428 87.5521L397.512 87.1324C397.596 86.6287 397.177 86.293 396.673 86.293H396.589H396.505L395.917 86.5448L389.37 89.3988L389.202 89.4828C377.282 94.6872 379.045 93.2602 379.8 96.6179C379.968 97.0376 380.22 98.5486 379.717 99.9756C379.549 100.563 379.213 101.067 378.709 101.906L387.104 108.202ZM385.425 101.906C384.333 101.067 384.082 99.472 384.921 98.2968C385.76 97.2055 387.355 96.9537 388.447 97.7931C389.538 98.6326 389.79 100.227 388.95 101.319C388.111 102.494 386.516 102.746 385.425 101.906Z" stroke="#D6DDE8" stroke-width="2" stroke-miterlimit="10" stroke-linecap="round" stroke-linejoin="round" />
  <path d="M388.698 97.6253L396.505 87.4683" stroke="#D6DDE8" stroke-width="2" stroke-miterlimit="10" stroke-linecap="round" stroke-linejoin="round" />
  <path d="M399.611 86.6289C406.074 92.337 409.684 101.487 406.914 111.308M371.238 83.7748C379.884 78.6543 389.454 79.6616 396.589 84.2785M397.596 82.8514L383.83 72.2747M414.553 95.8626L400.786 85.2858M416.315 95.4429C416.651 95.4429 416.987 95.5268 417.323 95.7786C418.078 96.3662 418.246 97.4575 417.659 98.213C417.071 98.9685 415.98 99.1364 415.224 98.5488C414.888 98.2969 414.721 97.9612 414.637 97.6254C414.469 97.1217 414.553 96.5341 414.888 96.1144C415.224 95.6108 415.812 95.3589 416.315 95.4429ZM382.235 69.2527C382.57 69.2527 382.906 69.3367 383.242 69.5885C383.997 70.1761 384.165 71.2674 383.578 72.0228C382.99 72.7783 381.899 72.9462 381.143 72.3586C380.808 72.1068 380.64 71.771 380.556 71.4352C380.388 70.9316 380.472 70.344 380.808 69.9243C381.143 69.4206 381.731 69.1688 382.235 69.2527ZM403.976 115.505L403.556 112.147L405.823 111.812L406.914 111.644L407.25 114.33L407.334 114.918L403.976 115.505ZM367.964 87.888L367.545 84.5303L369.811 84.1945L370.902 84.0266L371.238 86.7128L371.322 87.3004L367.964 87.888ZM397.093 86.6289L396.673 83.2712L398.939 82.9354L400.031 82.7675L400.366 85.4537L400.45 86.0413L397.093 86.6289Z" stroke="#D6DDE8" stroke-width="2" stroke-miterlimit="10" stroke-linecap="round" stroke-linejoin="round" />
  <path d="M381.311 112.819L373.756 107.027C373.337 106.691 373.253 106.104 373.589 105.684L375.099 103.669L376.359 102.074L376.694 101.571C377.03 101.151 377.618 101.067 378.037 101.403L387.691 108.874C388.111 109.209 388.195 109.797 387.859 110.217L384.753 114.246C384.417 114.666 383.83 114.75 383.41 114.414L383.074 114.162L381.311 112.819Z" fill="#D6DCE8" stroke="#AAB2C5" stroke-width="2" stroke-miterlimit="10" stroke-linejoin="round" />
  <path d="M74.5841 105.936L48.0582 99.3043C47.5546 99.2204 47.1349 98.8846 46.7991 98.5489L43.4414 95.1072L41.4268 93.0086C41.007 92.5889 41.1749 91.8334 41.7625 91.6655L44.5326 90.8261L49.1495 89.3991C49.6531 89.2312 50.1568 89.2312 50.6605 89.3151L77.1864 95.9466C78.1937 96.1985 78.7813 97.2058 78.5295 98.2131L76.9345 104.593C76.5988 105.516 75.5915 106.188 74.5841 105.936Z" fill="white" stroke="#D6DDE8" stroke-width="2" stroke-miterlimit="10" />
  <path d="M74.5843 105.936L70.3872 104.844L72.9055 94.8552L77.1026 95.9465C78.1099 96.1983 78.6975 97.2056 78.4457 98.2129L76.8508 104.593C76.599 105.516 75.5917 106.187 74.5843 105.936Z" fill="#F1F3FA" stroke="#D6DDE8" stroke-width="2" stroke-miterlimit="10" />
  <path d="M43.3576 95.107L41.343 93.0084C40.9233 92.5887 41.0912 91.8332 41.6788 91.6654L44.4489 90.8259L43.3576 95.107Z" fill="#D6DCE8" stroke="#D6DDE8" stroke-width="2" stroke-miterlimit="10" />
  <path d="M70.6389 94.2678L68.1206 104.341" stroke="#D6DDE8" stroke-width="2" stroke-miterlimit="10" />
  <path d="M50.157 89.1472L47.6387 99.1364" stroke="#D6DDE8" stroke-width="2" stroke-miterlimit="10" />
  <path d="M69.7997 97.4577L49.4016 92.3372" stroke="#D6DDE8" stroke-width="2" stroke-miterlimit="10" />
  <path d="M68.9603 100.899L48.4783 95.7788" stroke="#D6DDE8" stroke-width="2" stroke-miterlimit="10" />
  <path d="M145.525 38.0951L116.842 24.3323L103.079 53.0161L131.762 66.7789L145.525 38.0951Z" stroke="#D6DDE8" stroke-width="2" stroke-miterlimit="10" />
  <path d="M129.483 67.8257L112.778 73.7017L129.483 67.8257ZM151.14 60.1869L134.184 66.1468L151.14 60.1869ZM151.728 58.3401C151.979 58.0044 152.231 57.7525 152.651 57.6686C153.574 57.3328 154.666 57.8365 155.001 58.7598C155.337 59.6832 154.833 60.7745 153.91 61.1102C153.49 61.2781 153.155 61.2781 152.735 61.1102C152.231 60.9424 151.728 60.5226 151.56 59.935C151.308 59.4314 151.392 58.8438 151.728 58.3401ZM109.253 73.3659C109.504 73.0301 109.756 72.7783 110.176 72.6943C111.099 72.3586 112.191 72.8622 112.526 73.7856C112.862 74.709 112.358 75.8002 111.435 76.136C111.015 76.3039 110.68 76.3039 110.26 76.136C109.756 75.9681 109.253 75.5484 109.085 74.9608C108.833 74.3732 108.917 73.7856 109.253 73.3659ZM132.673 69.3366L129.483 67.8257L130.49 65.6431L130.994 64.6358L133.596 65.895L134.184 66.1468L132.673 69.3366Z" fill="#F1F3FA" stroke="#D6DDE8" stroke-width="2" stroke-miterlimit="10" />
  <path d="M114.793 25.8545L98.0882 31.7305L114.793 25.8545ZM136.366 18.2997L119.41 24.2596L136.366 18.2997ZM137.038 16.4529C137.289 16.1171 137.541 15.8653 137.961 15.7814C138.884 15.4456 139.976 15.9493 140.311 16.8726C140.647 17.796 140.143 18.8873 139.22 19.223C138.8 19.3909 138.465 19.3909 138.045 19.223C137.541 19.0551 137.038 18.6354 136.87 18.0478C136.618 17.4602 136.702 16.8726 137.038 16.4529ZM94.4786 31.3947C94.7304 31.059 94.9823 30.8071 95.402 30.7232C96.3254 30.3874 97.4166 30.8911 97.7524 31.8144C98.0882 32.7378 97.5845 33.8291 96.6611 34.1648C96.2414 34.3327 95.9056 34.3327 95.4859 34.1648C94.9823 33.997 94.4786 33.5772 94.3107 32.9896C94.0589 32.402 94.1428 31.8144 94.4786 31.3947ZM117.983 27.3655L114.793 25.8545L115.8 23.672L116.304 22.6647L118.906 23.9238L119.494 24.1756L117.983 27.3655ZM104.048 55.4863L100.858 53.9753L101.866 51.7928L102.369 50.7855L104.971 52.0446L105.559 52.2965L104.048 55.4863ZM148.202 37.3547L146.691 40.5445L144.509 39.5372L143.501 39.0335L144.76 36.4313L145.012 35.8437L148.202 37.3547Z" fill="#F1F3FA" stroke="#D6DDE8" stroke-width="2" stroke-miterlimit="10" />
  <path d="M125.37 48.1832L115.884 51.5409C115.38 51.7088 114.877 51.457 114.709 50.9533L111.351 41.4678C111.183 40.9641 111.435 40.4604 111.939 40.2926L121.424 36.9349C121.928 36.767 122.432 37.0188 122.599 37.5225L125.957 47.008C126.125 47.5116 125.873 48.0153 125.37 48.1832Z" fill="#F1F3FA" stroke="#D6DDE8" stroke-width="2" stroke-miterlimit="10" />
  <path d="M131.329 49.946L125.789 53.4716C124.53 54.2271 122.935 53.8914 122.096 52.6322L118.57 47.092C117.815 45.8329 118.15 44.2379 119.41 43.3985L124.95 39.8729C126.209 39.1174 127.804 39.4532 128.643 40.7123L132.169 46.2526C132.924 47.5117 132.505 49.1906 131.329 49.946Z" fill="#F1F3FA" stroke="#D6DDE8" stroke-width="2" stroke-miterlimit="10" />
  <path d="M136.282 51.9606C134.855 54.8986 131.33 56.1577 128.392 54.7307C125.454 53.3037 124.194 49.7781 125.622 46.8401C127.049 43.9021 130.574 42.643 133.512 44.07C136.45 45.4131 137.709 48.9387 136.282 51.9606Z" fill="#D6DCE8" stroke="#AAB2C5" stroke-width="2" stroke-miterlimit="10" stroke-linejoin="round" />
  <path d="M90.3654 138.338H79.2849V171.747H90.3654V138.338Z" fill="white" stroke="#D6DDE8" stroke-width="2" stroke-miterlimit="10" />
  <path d="M90.3654 144.129H85.8325" stroke="#D6DDE8" stroke-width="2" stroke-miterlimit="10" stroke-linecap="round" stroke-linejoin="round" />
  <path d="M90.3654 149.922H85.8325" stroke="#D6DDE8" stroke-width="2" stroke-miterlimit="10" stroke-linecap="round" stroke-linejoin="round" />
  <path d="M90.3654 155.798H85.8325" stroke="#D6DDE8" stroke-width="2" stroke-miterlimit="10" stroke-linecap="round" stroke-linejoin="round" />
  <path d="M90.3654 161.59H85.8325" stroke="#D6DDE8" stroke-width="2" stroke-miterlimit="10" stroke-linecap="round" stroke-linejoin="round" />
  <path d="M104.636 155.378L102.537 151.265L102.285 151.684L102.369 151.181L98.088 152.776C98.088 152.776 92.4639 161.506 87.931 173.174C85.4127 179.805 88.6865 179.469 92.1281 177.958C93.6391 181.316 95.8216 183.834 98.4238 177.203C102.873 165.703 104.636 155.378 104.636 155.378Z" fill="#F1F3FA" stroke="#D6DDE8" stroke-width="2" stroke-miterlimit="10" stroke-linecap="round" stroke-linejoin="round" />
  <path d="M108.833 152.356C107.574 155.63 103.88 157.225 100.607 155.966C97.3328 154.706 95.7379 151.013 96.9971 147.739C98.0044 145.053 104.552 139.849 106.902 138.002C107.322 137.666 107.91 137.918 107.994 138.421C108.581 141.527 109.84 149.754 108.833 152.356Z" fill="white" stroke="#D6DDE8" stroke-width="2" stroke-miterlimit="10" />
  <path d="M70.8909 177.203L61.8251 150.929C61.6572 150.425 61.6572 149.922 61.7412 149.418L62.8324 144.633L63.504 141.779C63.6719 141.192 64.3434 140.94 64.8471 141.276L67.1135 143.122L70.8909 146.228C71.3107 146.564 71.5625 146.984 71.7304 147.487L80.7962 173.761C81.132 174.769 80.6283 175.86 79.621 176.196L73.3253 178.378C72.234 178.714 71.2267 178.127 70.8909 177.203Z" fill="white" stroke="#D6DDE8" stroke-width="2" stroke-miterlimit="10" />
  <path d="M70.8906 177.203L69.4636 173.006L79.3689 169.564L80.7959 173.762C81.1317 174.769 80.628 175.86 79.6207 176.196L73.325 178.378C72.2337 178.714 71.2264 178.127 70.8906 177.203Z" fill="#F1F3FA" stroke="#D6DDE8" stroke-width="2" stroke-miterlimit="10" />
  <path d="M62.7483 144.549L63.4198 141.695C63.5877 141.108 64.2593 140.856 64.7629 141.192L67.0294 143.038L62.7483 144.549Z" fill="#D6DDE8" stroke="#D6DDE8" stroke-width="2" stroke-miterlimit="10" />
  <path d="M78.5295 167.382L68.6243 170.74" stroke="#D6DDE8" stroke-width="2" stroke-miterlimit="10" />
  <path d="M71.5623 147.152L61.741 150.509" stroke="#D6DDE8" stroke-width="2" stroke-miterlimit="10" />
  <path d="M73.9968 169.061L67.0295 148.83" stroke="#D6DDE8" stroke-width="2" stroke-miterlimit="10" />
  <path d="M64.0075 163.856H105.643C105.643 163.856 110.344 180.309 95.6539 191.305C95.6539 203.225 95.6539 204.401 95.6539 204.401H74.3325V195.503H64.763V183.667L57.9636 181.988L63.9236 171.327C63.0841 167.969 63.252 166.374 64.0075 163.856Z" fill="white" stroke="#D6DDE8" stroke-width="2" stroke-miterlimit="10" stroke-linecap="round" stroke-linejoin="round" />
  <path d="M72.4857 172.586C69.8835 172.586 67.7849 170.488 67.7849 167.802H69.3798C69.3798 169.564 70.8068 170.991 72.5696 170.991C74.3324 170.991 75.7595 169.564 75.7595 167.802H77.3544C77.2704 170.488 75.0879 172.586 72.4857 172.586Z" fill="#D6DDE8" />
  <path d="M127.468 180.645L103.964 204.149C103.125 204.988 101.782 204.988 100.942 204.149L90.4494 193.656C89.61 192.816 89.61 191.473 90.4494 190.634L113.953 167.13C114.793 166.29 116.136 166.29 116.975 167.13L127.468 177.623C128.308 178.378 128.308 179.805 127.468 180.645Z" fill="white" stroke="#D6DDE8" stroke-width="2" stroke-miterlimit="10" />
  <path d="M127.468 180.645L120.333 187.78L106.818 174.265L113.953 167.13C114.793 166.29 116.136 166.29 116.975 167.13L127.468 177.623C128.308 178.378 128.308 179.805 127.468 180.645Z" fill="#F1F3FA" stroke="#D6DDE8" stroke-width="2" stroke-miterlimit="10" />
  <path d="M106.812 174.155L97.8489 183.118L111.382 196.651L120.345 187.688L106.812 174.155Z" fill="white" stroke="#D6DDE8" stroke-width="2" stroke-miterlimit="10" />
  <path d="M129.987 192.397L98.8438 203.981C97.7526 204.4 96.4934 203.813 96.0737 202.722L90.8693 188.871C90.4496 187.78 91.0372 186.521 92.1284 186.101L123.271 174.517C124.362 174.097 125.622 174.685 126.041 175.776L131.246 189.626C131.665 190.802 131.078 191.977 129.987 192.397Z" fill="white" stroke="#D6DDE8" stroke-width="2" stroke-miterlimit="10" />
  <path d="M129.986 192.397L120.585 195.922L113.953 178.042L123.355 174.517C124.446 174.097 125.705 174.685 126.125 175.776L131.33 189.626C131.665 190.802 131.078 191.977 129.986 192.397Z" fill="white" stroke="#D6DDE8" stroke-width="2" stroke-miterlimit="10" />
  <path d="M113.931 178.028L102.05 182.447L108.722 200.386L120.602 195.967L113.931 178.028Z" fill="#F1F3FA" stroke="#D6DDE8" stroke-width="2" stroke-miterlimit="10" />
  <path d="M128.811 204.736H95.57C94.3948 204.736 93.3875 203.729 93.3875 202.554V187.78C93.3875 186.604 94.3108 185.597 95.57 185.597H128.811C129.986 185.597 130.994 186.521 130.994 187.78V202.554C130.91 203.729 129.986 204.736 128.811 204.736Z" fill="white" stroke="#D6DDE8" stroke-width="2" stroke-miterlimit="10" />
  <path d="M128.811 204.736H118.738V185.597H128.811C129.986 185.597 130.994 186.521 130.994 187.78V202.554C130.91 203.729 129.986 204.736 128.811 204.736Z" fill="white" stroke="#D6DDE8" stroke-width="2" stroke-miterlimit="10" />
  <path d="M118.738 185.597H106.063V204.736H118.738V185.597Z" fill="#F1F3FA" stroke="#D6DDE8" stroke-width="2" stroke-miterlimit="10" />
  <path d="M99.5991 197.265C100.944 197.265 102.033 196.175 102.033 194.831C102.033 193.486 100.944 192.396 99.5991 192.396C98.2547 192.396 97.1648 193.486 97.1648 194.831C97.1648 196.175 98.2547 197.265 99.5991 197.265Z" fill="white" stroke="#D6DDE8" stroke-width="2" stroke-miterlimit="10" />
  <path d="M328.259 204.569H298.796C295.186 204.569 292.248 201.631 292.248 198.021V159.743H334.807V198.021C334.807 201.631 331.869 204.569 328.259 204.569Z" fill="#F1F3FA" stroke="#D6DDE8" stroke-width="2" stroke-miterlimit="10" />
  <path d="M329.099 159.743V173.09C329.099 174.265 328.091 175.273 326.916 175.273C325.741 175.273 324.734 174.265 324.734 173.09V164.528C324.734 163.353 323.726 162.345 322.551 162.345C321.376 162.345 320.369 163.353 320.369 164.528V169.313C320.369 170.488 319.361 171.495 318.186 171.495C317.011 171.495 316.004 170.488 316.004 169.313V168.725C316.004 167.55 314.996 166.543 313.821 166.543C312.646 166.543 311.639 167.55 311.639 168.725V181.568C311.639 182.743 310.631 183.751 309.456 183.751C308.281 183.751 307.274 182.743 307.274 181.568V159.743H329.099Z" fill="#D6DCE8" stroke="#AAB2C5" stroke-width="2" stroke-miterlimit="10" stroke-linejoin="round" />
  <path d="M334.891 166.123H338.584C338.584 179.973 327.336 191.222 313.485 191.222C299.635 191.222 288.386 179.973 288.386 166.123H292.248" stroke="#D6DDE8" stroke-width="2" stroke-miterlimit="10" stroke-linecap="round" stroke-linejoin="round" />
  <path d="M336.486 160.834H290.905C290.317 160.834 289.813 160.331 289.813 159.743C289.813 159.156 290.317 158.652 290.905 158.652H336.486C337.073 158.652 337.577 159.156 337.577 159.743C337.577 160.331 337.073 160.834 336.486 160.834Z" fill="#D6DCE8" stroke="#AAB2C5" stroke-width="2" stroke-miterlimit="10" stroke-linejoin="round" />
  <path opacity="0.3" d="M231.222 96.7859V147.907C231.222 151.013 228.703 153.447 225.681 153.447H158.695C155.589 153.447 153.155 150.929 153.155 147.907V96.7859C153.155 95.275 153.742 93.9319 154.666 92.9246H229.711C230.634 93.9319 231.222 95.275 231.222 96.7859Z" fill="#F1F3FA" />
  <path d="M229.627 148.663H162.64C159.534 148.663 157.1 146.144 157.1 143.122V92.0012C157.1 88.8953 159.618 86.4609 162.64 86.4609H229.627C232.733 86.4609 235.167 88.9792 235.167 92.0012V143.122C235.251 146.144 232.733 148.663 229.627 148.663Z" fill="white" stroke="#D6DDE8" stroke-width="2" stroke-miterlimit="10" />
  <path d="M157.1 96.3662H235.251" stroke="#D6DDE8" stroke-width="2" stroke-miterlimit="10" />
  <path d="M162.472 92.7568C163.312 92.7568 163.983 92.1692 163.983 91.2458C163.983 90.4064 163.396 89.7349 162.472 89.7349C161.633 89.7349 160.961 90.3225 160.961 91.2458C160.961 92.0853 161.633 92.7568 162.472 92.7568Z" fill="#D6DDE8" />
  <path d="M166.67 92.7568C167.509 92.7568 168.181 92.1692 168.181 91.2458C168.181 90.4064 167.593 89.7349 166.67 89.7349C165.83 89.7349 165.159 90.3225 165.159 91.2458C165.159 92.0853 165.746 92.7568 166.67 92.7568Z" fill="#D6DDE8" />
  <path d="M170.783 92.7568C171.622 92.7568 172.294 92.1692 172.294 91.2458C172.294 90.4064 171.706 89.7349 170.783 89.7349C169.944 89.7349 169.272 90.3225 169.272 91.2458C169.272 92.0853 169.944 92.7568 170.783 92.7568Z" fill="#D6DDE8" />
  <path d="M207.717 108.454H183.458V133.217H207.717V108.454Z" stroke="#D6DDE8" stroke-width="2" stroke-miterlimit="10" stroke-linecap="round" stroke-linejoin="round" />
  <path d="M186.312 105.6H180.604V111.308H186.312V105.6Z" fill="#D6DCE8" stroke="#AAB2C5" stroke-width="2" stroke-miterlimit="10" stroke-linejoin="round" />
  <path d="M210.572 105.6H204.864V111.308H210.572V105.6Z" fill="#D6DCE8" stroke="#AAB2C5" stroke-width="2" stroke-miterlimit="10" stroke-linejoin="round" />
  <path d="M186.312 130.279H180.604V135.987H186.312V130.279Z" fill="#D6DCE8" stroke="#AAB2C5" stroke-width="2" stroke-miterlimit="10" stroke-linejoin="round" />
  <path d="M199.659 124.823L213.342 129.356L209.396 131.37L213.426 135.483L210.488 138.421L206.542 134.476L204.192 138.421L199.659 124.823Z" fill="#D6DCE8" stroke="#AAB2C5" stroke-width="2" stroke-miterlimit="10" stroke-linejoin="round" />
  <path d="M154.917 23.9237H154.246C153.154 23.9237 152.315 23.0843 152.315 21.9931V21.3215C152.315 20.4821 151.644 19.8105 150.804 19.8105C149.965 19.8105 149.293 20.4821 149.293 21.3215V21.9931C149.293 23.0843 148.454 23.9237 147.362 23.9237H146.691C145.851 23.9237 145.18 24.5953 145.18 25.4347C145.18 26.2741 145.851 26.9457 146.691 26.9457H147.362C148.454 26.9457 149.293 27.7851 149.293 28.8764V29.5479C149.293 30.3873 149.965 31.0589 150.804 31.0589C151.644 31.0589 152.315 30.3873 152.315 29.5479V28.8764C152.315 27.7851 153.154 26.9457 154.246 26.9457H154.917C155.757 26.9457 156.428 26.2741 156.428 25.4347C156.428 24.5953 155.757 23.9237 154.917 23.9237Z" fill="#D6DDE8" />
  <path d="M100.271 87.9719H99.683C98.8436 87.9719 98.0881 87.3004 98.0881 86.377V85.7894C98.0881 85.1179 97.5005 84.5303 96.829 84.5303C96.1574 84.5303 95.5698 85.1179 95.5698 85.7894V86.377C95.5698 87.2164 94.8983 87.9719 93.9749 87.9719H93.3873C92.7158 87.9719 92.1282 88.5595 92.1282 89.2311C92.1282 89.9026 92.7158 90.4902 93.3873 90.4902H93.9749C94.8143 90.4902 95.5698 91.1618 95.5698 92.0851V92.6727C95.5698 93.3443 96.1574 93.9319 96.829 93.9319C97.5005 93.9319 98.0881 93.3443 98.0881 92.6727V92.0851C98.0881 91.2457 98.7597 90.4902 99.683 90.4902H100.271C100.942 90.4902 101.53 89.9026 101.53 89.2311C101.53 88.5595 101.026 87.9719 100.271 87.9719Z" fill="#D6DDE8" />
  <path d="M211.075 3.35771H210.487C209.648 3.35771 208.893 2.68617 208.893 1.7628V1.25914C208.893 0.587599 208.305 0 207.633 0C206.962 0 206.374 0.587599 206.374 1.25914V1.84674C206.374 2.68617 205.703 3.44165 204.779 3.44165H204.192C203.52 3.44165 202.933 4.02925 202.933 4.7008C202.933 5.37234 203.52 5.95994 204.192 5.95994H204.779C205.619 5.95994 206.374 6.63148 206.374 7.55485V8.14245C206.374 8.81399 206.962 9.40159 207.633 9.40159C208.305 9.40159 208.893 8.81399 208.893 8.14245V7.38696C208.893 6.54754 209.564 5.79205 210.487 5.79205H211.075C211.747 5.79205 212.334 5.20445 212.334 4.53291C212.334 3.94531 211.747 3.35771 211.075 3.35771Z" fill="#D6DDE8" />
  <path d="M375.603 33.745H374.932C373.84 33.745 373.001 32.9056 373.001 31.8143V31.1428C373.001 30.3034 372.329 29.6318 371.49 29.6318C370.65 29.6318 369.979 30.3034 369.979 31.1428V31.8143C369.979 32.9056 369.139 33.745 368.048 33.745H367.377C366.537 33.745 365.866 34.4166 365.866 35.256C365.866 36.0954 366.537 36.767 367.377 36.767H368.048C369.139 36.767 369.979 37.6064 369.979 38.6977V39.3692C369.979 40.2086 370.65 40.8802 371.49 40.8802C372.329 40.8802 373.001 40.2086 373.001 39.3692V38.6977C373.001 37.6064 373.84 36.767 374.932 36.767H375.603C376.443 36.767 377.114 36.0954 377.114 35.256C377.114 34.4166 376.443 33.745 375.603 33.745Z" fill="#D6DDE8" />
  <path d="M359.99 131.622H359.318C358.227 131.622 357.388 130.783 357.388 129.692V129.02C357.388 128.181 356.716 127.509 355.877 127.509C355.037 127.509 354.366 128.181 354.366 129.02V129.692C354.366 130.783 353.526 131.622 352.435 131.622H351.763C350.924 131.622 350.252 132.294 350.252 133.133C350.252 133.973 350.924 134.644 351.763 134.644H352.435C353.526 134.644 354.366 135.484 354.366 136.575V137.246C354.366 138.086 355.037 138.757 355.877 138.757C356.716 138.757 357.388 138.086 357.388 137.246V136.575C357.388 135.484 358.227 134.644 359.318 134.644H359.99C360.829 134.644 361.501 133.973 361.501 133.133C361.501 132.294 360.829 131.622 359.99 131.622Z" fill="#D6DDE8" />
  <path d="M402.465 159.911H402.045C401.374 159.911 400.87 159.407 400.87 158.736V158.316C400.87 157.813 400.45 157.393 399.947 157.393C399.443 157.393 399.023 157.813 399.023 158.316V158.736C399.023 159.407 398.52 159.911 397.848 159.911H397.428C396.925 159.911 396.505 160.331 396.505 160.834C396.505 161.338 396.925 161.758 397.428 161.758H397.848C398.52 161.758 399.023 162.262 399.023 162.933V163.353C399.023 163.856 399.443 164.276 399.947 164.276C400.45 164.276 400.87 163.856 400.87 163.353V162.933C400.87 162.262 401.374 161.758 402.045 161.758H402.465C402.968 161.758 403.388 161.338 403.388 160.834C403.388 160.331 402.968 159.911 402.465 159.911Z" fill="#D6DDE8" />
  <path d="M363.18 180.729H362.844C362.34 180.729 361.92 180.309 361.92 179.805V179.47C361.92 179.05 361.585 178.714 361.165 178.714C360.745 178.714 360.409 179.05 360.409 179.47V179.805C360.409 180.309 359.99 180.729 359.486 180.729H359.15C358.731 180.729 358.395 181.065 358.395 181.484C358.395 181.904 358.731 182.24 359.15 182.24H359.486C359.99 182.24 360.409 182.659 360.409 183.163V183.499C360.409 183.919 360.745 184.254 361.165 184.254C361.585 184.254 361.92 183.919 361.92 183.499V183.163C361.92 182.659 362.34 182.24 362.844 182.24H363.18C363.599 182.24 363.935 181.904 363.935 181.484C363.851 181.065 363.515 180.729 363.18 180.729Z" fill="#D6DDE8" />
  <path d="M286.54 110.553H286.204C285.7 110.553 285.281 110.133 285.281 109.629V109.294C285.281 108.874 284.945 108.538 284.525 108.538C284.106 108.538 283.77 108.874 283.77 109.294V109.629C283.77 110.133 283.35 110.553 282.846 110.553H282.511C282.091 110.553 281.755 110.888 281.755 111.308C281.755 111.728 282.091 112.064 282.511 112.064H282.846C283.35 112.064 283.77 112.483 283.77 112.987V113.323C283.77 113.743 284.106 114.078 284.525 114.078C284.945 114.078 285.281 113.743 285.281 113.323V112.987C285.281 112.483 285.7 112.064 286.204 112.064H286.54C286.96 112.064 287.295 111.728 287.295 111.308C287.295 110.888 286.96 110.553 286.54 110.553Z" fill="#D6DDE8" />
  <path d="M28.9194 139.933H28.4997C27.8282 139.933 27.2406 139.345 27.2406 138.673V138.254C27.2406 137.666 26.8209 137.246 26.2333 137.246C25.6457 137.246 25.226 137.666 25.226 138.254V138.673C25.226 139.345 24.6384 139.933 23.9668 139.933H23.5471C22.9595 139.933 22.5398 140.352 22.5398 140.94C22.5398 141.527 22.9595 141.947 23.5471 141.947H23.9668C24.6384 141.947 25.226 142.535 25.226 143.206V143.626C25.226 144.214 25.6457 144.633 26.2333 144.633C26.8209 144.633 27.2406 144.214 27.2406 143.626V143.206C27.2406 142.535 27.8282 141.947 28.4997 141.947H28.9194C29.507 141.947 29.9268 141.527 29.9268 140.94C29.9268 140.352 29.507 139.933 28.9194 139.933Z" fill="#D6DDE8" />
  <path d="M6.00308 83.7748H5.66731C5.07971 83.7748 4.65999 83.3551 4.65999 82.7675V82.4317C4.65999 82.012 4.32422 81.5923 3.82057 81.5923C3.40085 81.5923 2.98114 81.9281 2.98114 82.4317V82.7675C2.98114 83.3551 2.56142 83.7748 1.97382 83.7748H1.722C1.30228 83.7748 0.882568 84.1106 0.882568 84.6142C0.882568 85.0339 1.21834 85.4537 1.722 85.4537H2.05777C2.64537 85.4537 3.06508 85.8734 3.06508 86.461V86.7967C3.06508 87.2165 3.40085 87.6362 3.90451 87.6362C4.32422 87.6362 4.74394 87.3004 4.74394 86.7967V86.461C4.74394 85.8734 5.16365 85.4537 5.75125 85.4537H6.08702C6.50673 85.4537 6.92645 85.1179 6.92645 84.6142C6.8425 84.1945 6.50673 83.7748 6.00308 83.7748Z" fill="#D6DDE8" />
  <path d="M52.3395 48.6029H52.0037C51.4161 48.6029 50.9964 48.1832 50.9964 47.5956V47.2598C50.9964 46.8401 50.6606 46.4204 50.157 46.4204C49.7372 46.4204 49.3175 46.7562 49.3175 47.2598V47.5956C49.3175 48.1832 48.8978 48.6029 48.3102 48.6029H47.9744C47.5547 48.6029 47.135 48.9387 47.135 49.4424C47.135 49.8621 47.4708 50.2818 47.9744 50.2818H48.3102C48.8978 50.2818 49.3175 50.7015 49.3175 51.2891V51.6249C49.3175 52.0446 49.6533 52.4643 50.157 52.4643C50.5767 52.4643 50.9964 52.1285 50.9964 51.6249V51.2051C50.9964 50.6175 51.4161 50.1978 52.0037 50.1978H52.3395C52.7592 50.1978 53.1789 49.8621 53.1789 49.3584C53.1789 48.9387 52.7592 48.6029 52.3395 48.6029Z" fill="#D6DDE8" />
  <path d="M233.404 27.7849C230.802 27.7849 228.703 25.6863 228.703 23.0841C228.703 20.4819 230.802 18.3833 233.404 18.3833C236.006 18.3833 238.105 20.4819 238.105 23.0841C238.105 25.6863 236.006 27.7849 233.404 27.7849ZM233.404 20.9855C232.229 20.9855 231.221 21.9089 231.221 23.168C231.221 24.4272 232.145 25.3506 233.404 25.3506C234.579 25.3506 235.586 24.4272 235.586 23.168C235.586 21.9089 234.579 20.9855 233.404 20.9855Z" fill="#D6DDE8" />
  <path d="M94.5629 125.242C91.9606 125.242 89.8621 123.144 89.8621 120.542C89.8621 117.939 91.9606 115.841 94.5629 115.841C97.1651 115.841 99.2637 117.939 99.2637 120.542C99.2637 123.144 97.0811 125.242 94.5629 125.242ZM94.5629 118.359C93.3877 118.359 92.3803 119.282 92.3803 120.542C92.3803 121.801 93.3037 122.724 94.5629 122.724C95.822 122.724 96.7454 121.801 96.7454 120.542C96.7454 119.282 95.7381 118.359 94.5629 118.359Z" fill="#D6DDE8" />
  <path d="M307.525 70.344C305.679 70.344 304.084 68.833 304.084 66.9023C304.084 64.9717 305.595 63.4607 307.525 63.4607C309.372 63.4607 310.967 64.9717 310.967 66.9023C310.967 68.833 309.456 70.344 307.525 70.344ZM307.525 65.3074C306.686 65.3074 305.93 65.979 305.93 66.9023C305.93 67.7418 306.602 68.4973 307.525 68.4973C308.365 68.4973 309.12 67.8257 309.12 66.9023C309.12 66.0629 308.449 65.3074 307.525 65.3074Z" fill="#D6DDE8" />
  <path d="M297.032 46.7562L296.697 46.1686C296.613 46.0847 296.613 46.0007 296.529 45.9168C295.102 43.5664 294.598 40.7123 295.27 38.0262C296.193 34.3327 295.689 30.3034 293.423 26.7778C289.31 20.3982 280.915 18.2996 274.284 21.8252C266.897 25.7705 264.547 35.0882 268.828 42.0554C270.842 45.4131 274.116 47.5956 277.642 48.4351C280.496 49.1905 283.014 50.8694 284.525 53.3037C284.525 53.3037 284.525 53.3877 284.609 53.3877L284.945 53.9753" stroke="#D6DDE8" stroke-width="2" stroke-miterlimit="10" stroke-linecap="round" stroke-linejoin="round" />
  <path d="M297.032 46.7562L296.697 46.1686C296.613 46.0847 296.613 46.0007 296.529 45.9168C295.102 43.5664 294.598 40.7123 295.27 38.0262C296.193 34.3327 295.689 30.3034 293.423 26.7778C289.31 20.3982 280.915 18.2996 274.284 21.8252C266.897 25.7705 264.547 35.0882 268.828 42.0554C270.842 45.4131 274.116 47.5956 277.642 48.4351C280.496 49.1905 283.014 50.8694 284.525 53.3037C284.525 53.3037 284.525 53.3877 284.609 53.3877L284.945 53.9753" stroke="#D6DDE8" stroke-width="2" stroke-miterlimit="10" stroke-linecap="round" stroke-linejoin="round" />
  <path d="M296.949 46.6726L297.284 47.1763C298.795 49.6945 298.627 52.8004 296.949 55.0669C297.368 56.2421 296.949 57.6691 295.857 58.3407C294.766 59.0122 293.255 58.7604 292.416 57.837C289.646 58.3407 286.792 57.0815 285.197 54.5632L284.861 54.0596" stroke="#D6DDE8" stroke-width="2" stroke-miterlimit="10" stroke-linecap="round" stroke-linejoin="round" />
  <path d="M296.949 55.0665C297.368 56.2417 296.949 57.6687 295.857 58.3403C294.766 59.0118 293.339 58.8439 292.5 57.8366C289.73 58.3403 286.876 57.0811 285.281 54.5629L284.945 54.0592L284.609 53.4716C284.609 53.4716 284.609 53.3877 284.525 53.3877C284.525 53.3037 284.609 53.2198 284.609 53.2198L296.445 45.9167C296.445 46.0007 296.529 46.0846 296.613 46.1686L296.949 46.6722V46.7562L297.201 47.1759C298.795 49.6942 298.628 52.8001 296.949 55.0665Z" fill="#F1F3FA" stroke="#D6DDE8" stroke-width="2" stroke-miterlimit="10" stroke-linecap="round" stroke-linejoin="round" />
  <path d="M289.394 49.9464L274.452 39.0339L279.237 38.2784L281.083 34.417L285.364 34.501L288.219 30.5557L291.24 48.8552" stroke="#D6DDE8" stroke-width="2" stroke-miterlimit="10" stroke-linecap="round" stroke-linejoin="round" />
  <path d="M289.394 49.9464L274.452 39.0339L279.237 38.2784L281.083 34.417L285.364 34.501L288.219 30.5557L291.24 48.8552" stroke="#D6DDE8" stroke-width="2" stroke-miterlimit="10" stroke-linecap="round" stroke-linejoin="round" />
  <path d="M292.583 18.8033L295.354 12.5916" stroke="#D6DDE8" stroke-width="2" stroke-miterlimit="10" stroke-linecap="round" stroke-linejoin="round" />
  <path d="M262.616 39.2014L250.108 41.5518" stroke="#D6DDE8" stroke-width="2" stroke-miterlimit="10" stroke-linecap="round" stroke-linejoin="round" />
  <path d="M266.729 49.3586L263.707 56.9135" stroke="#D6DDE8" stroke-width="2" stroke-miterlimit="10" stroke-linecap="round" stroke-linejoin="round" />
  <path d="M300.138 27.7013L310.128 23.9238" stroke="#D6DDE8" stroke-width="2" stroke-miterlimit="10" stroke-linecap="round" stroke-linejoin="round" />
  <path d="M342.614 87.888L329.603 99.8918L332.96 103.249C333.296 103.585 333.548 104.005 333.8 104.425C333.8 104.425 333.8 104.509 333.884 104.593C334.387 105.936 334.051 107.447 333.044 108.538L331.953 109.629L328.092 113.491L321.964 119.618L304.42 102.074L314.409 92.0851L315.5 90.9939C316.927 89.5668 319.278 89.5668 320.789 90.9939L324.146 94.3516L336.15 81.3404C337.913 79.4097 341.019 79.3258 342.865 81.1725C344.628 83.1032 344.544 86.1252 342.614 87.888Z" fill="white" stroke="#D6DDE8" stroke-width="2" stroke-miterlimit="10" />
  <path d="M331.869 109.545L314.409 92.001" stroke="#D6DDE8" stroke-width="2" stroke-miterlimit="10" />
  <path d="M326.329 91.7495L332.121 97.5416" stroke="#D6DDE8" stroke-width="2" stroke-miterlimit="10" />
  <path d="M340.928 84.9778C341.485 84.4205 341.485 83.517 340.928 82.9597C340.37 82.4024 339.467 82.4024 338.909 82.9597C338.352 83.517 338.352 84.4205 338.909 84.9778C339.467 85.5351 340.37 85.5351 340.928 84.9778Z" fill="#D6DDE8" />
  <path d="M308.449 105.684L313.569 100.563" stroke="#D6DDE8" stroke-width="2" stroke-miterlimit="10" />
  <path d="M312.059 109.377L317.263 104.173" stroke="#D6DDE8" stroke-width="2" stroke-miterlimit="10" />
  <path d="M318.69 145.893C319.895 145.893 320.872 144.915 320.872 143.71C320.872 142.505 319.895 141.528 318.69 141.528C317.484 141.528 316.507 142.505 316.507 143.71C316.507 144.915 317.484 145.893 318.69 145.893Z" fill="#D6DCE8" stroke="#AAB2C5" stroke-width="2" stroke-miterlimit="10" stroke-linejoin="round" />
  <path d="M333.8 104.593C333.8 104.509 333.8 104.509 333.716 104.425C333.464 104.005 332.876 104.509 331.869 106.02C331.449 106.691 330.61 107.027 329.602 107.279C329.015 107.447 328.259 107.615 327.588 107.699C326.916 107.447 326.161 107.531 325.657 107.95C325.405 108.118 325.153 108.286 324.986 108.454C323.894 109.21 322.635 109.713 320.621 109.294C318.69 108.874 316.507 111.56 316.507 113.742V134.476C316.507 137.33 320.872 137.414 320.872 134.392V121.717C320.872 119.031 325.237 118.443 325.237 122.221C325.237 125.075 329.602 125.159 329.602 122.053V112.735C329.602 112.399 329.602 112.148 329.602 111.896L331.869 109.629L332.96 108.538C333.967 107.447 334.303 105.852 333.8 104.593Z" fill="#D6DCE8" stroke="#AAB2C5" stroke-width="2" stroke-miterlimit="10" stroke-linejoin="round" />
  <path d="M202.429 66.3151C201.338 67.3224 199.491 67.3224 198.4 66.3151C198.316 66.2311 198.232 66.1472 198.148 66.0632C197.896 65.7275 197.728 65.3077 197.56 64.972C197.309 64.0486 197.56 63.0413 198.232 62.2019C198.82 61.5303 199.491 60.9427 200.079 60.2712C200.247 60.1033 200.498 60.1033 200.582 60.2712C201.338 60.9427 202.009 61.6143 202.597 62.2858C202.681 62.3697 202.681 62.3697 202.681 62.4537C202.849 62.7055 203.017 62.8734 203.101 63.1252C203.688 64.1325 203.436 65.4756 202.429 66.3151Z" fill="#F1F3FA" stroke="#D6DDE8" stroke-width="2" stroke-miterlimit="10" stroke-linecap="round" stroke-linejoin="round" />
  <path d="M200.666 65.4756C200.414 65.4756 200.246 65.4756 199.995 65.3917C199.575 65.2238 199.407 65.1398 199.239 64.804C199.155 64.6362 199.071 64.4683 198.987 64.3004C198.987 64.2165 198.987 64.2165 198.987 64.1325C198.903 63.8807 198.735 63.7128 198.484 63.7967C198.232 63.8807 198.064 64.0486 198.148 64.3004C198.148 64.3843 198.148 64.4683 198.232 64.5522C198.316 64.888 198.484 65.2238 198.735 65.4756C198.819 65.5595 198.903 65.6435 198.987 65.7274C199.407 66.1471 200.078 66.399 200.666 66.399C200.75 66.399 200.834 66.399 200.918 66.399C201.17 66.399 201.338 66.1471 201.338 65.8953C201.086 65.6435 200.918 65.4756 200.666 65.4756Z" fill="#F1F3FA" />
  <path d="M217.035 41.8037L211.075 47.9315L204.444 54.7309C204.276 54.8988 204.024 55.0667 203.772 55.0667L201.002 55.8222C200.33 55.99 199.743 55.4024 199.995 54.8148L200.75 52.0447C200.834 51.7929 200.918 51.625 201.086 51.3732L204.611 47.6797L213.677 38.3621" fill="#F1F3FA" />
  <path d="M217.035 41.8037L211.075 47.9315L204.444 54.7309C204.276 54.8988 204.024 55.0667 203.772 55.0667L201.002 55.8222C200.33 55.99 199.743 55.4024 199.995 54.8148L200.75 52.0447C200.834 51.7929 200.918 51.625 201.086 51.3732L204.611 47.6797L213.677 38.3621" stroke="#D6DDE8" stroke-width="2" stroke-miterlimit="10" stroke-linecap="round" stroke-linejoin="round" />
  <path d="M211.075 48.0154L204.444 54.8148C204.276 54.9827 204.024 55.1505 203.772 55.1505L201.002 55.906C200.33 56.0739 199.743 55.4863 199.995 54.8987L200.75 52.1286C200.834 51.8768 200.918 51.7089 201.086 51.4571L204.611 47.7636C204.863 47.6796 205.199 47.5957 205.451 47.5957L211.075 48.0154Z" fill="#F1F3FA" stroke="#D6DDE8" stroke-width="2" stroke-miterlimit="10" stroke-linecap="round" stroke-linejoin="round" />
  <path d="M218.126 42.895L212.67 37.4387C212.082 36.8511 212.082 36.0117 212.67 35.4241C213.258 34.8365 214.097 34.8365 214.685 35.4241L220.141 40.8804C220.728 41.468 220.728 42.3074 220.141 42.895C219.553 43.4826 218.714 43.4826 218.126 42.895Z" fill="#F1F3FA" stroke="#D6DDE8" stroke-width="2" stroke-miterlimit="10" stroke-linecap="round" stroke-linejoin="round" />
  <path d="M219.218 40.041L215.44 36.2636L219.218 32.4862C220.309 31.3949 221.988 31.3949 222.995 32.4862C224.086 33.5774 224.086 35.2563 222.995 36.2636L219.218 40.041Z" fill="#F1F3FA" stroke="#D6DDE8" stroke-width="2" stroke-miterlimit="10" stroke-linecap="round" stroke-linejoin="round" />
  <path d="M238.571 199.212C240.069 191.223 242.232 183.567 244.563 175.744C246.893 168.088 249.389 160.265 252.385 152.776L253.55 153.109C252.219 161.098 250.388 168.92 248.391 176.743C246.393 184.565 244.23 192.388 241.4 199.878L238.571 199.212Z" fill="#D6DCE8" stroke="#AAB2C5" stroke-width="2" stroke-miterlimit="10" stroke-linejoin="round" />
  <path d="M234.243 204.372L237.479 197.656H243.1L245.995 204.372H234.243Z" fill="#D6DCE8" stroke="#AAB2C5" stroke-width="2" stroke-miterlimit="10" stroke-linejoin="round" />
</svg>